<svg width="302" height="302" viewBox="0 0 302 302" fill="none" xmlns="http://www.w3.org/2000/svg">
<path d="M0 60.4724C0.386554 53.2844 0.773157 46.0955 3.58342 39.7215C6.39368 33.3475 11.6264 27.7879 17.8048 29.1781C23.9832 30.5682 31.1076 38.9069 31.7885 36.6515C32.4695 34.3961 26.707 21.5472 27.3533 17.2042C27.9997 12.8611 35.0544 17.0238 38.5855 16.1208C42.1166 15.2177 42.1243 9.25014 45.1855 5.71939C48.2467 2.18865 54.359 1.09442 60.4724 -3.05176e-05V60.4724H0Z" fill="#83DCE4"/>
<path d="M60.4724 301.472C53.2844 301.086 46.0955 300.699 39.7215 297.889C33.3475 295.079 27.7879 289.846 29.1781 283.668C30.5682 277.489 38.9069 270.365 36.6515 269.684C34.3961 269.003 21.5472 274.765 17.2042 274.119C12.8611 273.473 17.0238 266.418 16.1208 262.887C15.2177 259.356 9.25014 259.348 5.71939 256.287C2.18865 253.226 1.09442 247.113 -3.05176e-05 241H60.4724L60.4724 301.472Z" fill="#83DCE4"/>
<path d="M241 301.472C248.188 301.086 255.377 300.699 261.751 297.889C268.125 295.079 273.684 289.846 272.294 283.668C270.904 277.489 262.566 270.365 264.821 269.684C267.076 269.003 279.925 274.765 284.268 274.119C288.611 273.473 284.449 266.418 285.352 262.887C286.255 259.356 292.222 259.348 295.753 256.287C299.284 253.226 300.378 247.113 301.472 241H241V301.472Z" fill="#83DCE4"/>
<path d="M241 0C248.188 0.386554 255.377 0.773157 261.751 3.58342C268.125 6.39368 273.684 11.6264 272.294 17.8048C270.904 23.9832 262.566 31.1076 264.821 31.7885C267.076 32.4695 279.925 26.707 284.268 27.3533C288.611 27.9997 284.449 35.0544 285.352 38.5855C286.255 42.1166 292.222 42.1243 295.753 45.1855C299.284 48.2467 300.378 54.359 301.472 60.4724L241 60.4724V0Z" fill="#83DCE4"/>
<g clip-path="url(#clip0_190_71)">
<path d="M7.91776 87.7771C14.7072 97.3837 27.721 107.513 29.3184 112.611C30.9157 117.71 21.0985 117.778 15.4551 118.306C9.8118 118.835 8.34282 119.823 12.3028 126.858C16.2628 133.892 25.6501 146.974 29.5016 155.9C33.3531 164.827 31.6691 169.596 27.71 168.863C23.7509 168.13 17.5165 161.895 16.6568 162.424C15.797 162.952 20.3115 170.242 23.4108 182.189C26.5101 194.136 28.194 210.736 25.4351 212.837C22.6762 214.938 15.4753 202.539 10.6676 202.032C5.85994 201.524 3.44782 212.91 2.06914 221.456C0.690464 230.003 0.34526 235.71 0 241.417H60.4724V60H0C0.564116 69.0846 1.12831 78.1705 7.91776 87.7771Z" fill="#83DCE4"/>
</g>
<g clip-path="url(#clip1_190_71)">
<path d="M293.555 87.7771C286.765 97.3837 273.751 107.513 272.154 112.611C270.557 117.71 280.374 117.778 286.017 118.306C291.661 118.835 293.13 119.823 289.17 126.858C285.21 133.892 275.822 146.974 271.971 155.9C268.119 164.827 269.803 169.596 273.762 168.863C277.722 168.13 283.956 161.895 284.816 162.424C285.675 162.952 281.161 170.242 278.062 182.189C274.962 194.136 273.278 210.736 276.037 212.837C278.796 214.938 285.997 202.539 290.805 202.032C295.612 201.524 298.025 212.91 299.403 221.456C300.782 230.003 301.127 235.71 301.472 241.417H241V60H301.472C300.908 69.0846 300.344 78.1705 293.555 87.7771Z" fill="#83DCE4"/>
</g>
<g clip-path="url(#clip2_190_71)">
<path d="M213.64 293.555C204.034 286.765 193.905 273.751 188.806 272.154C183.708 270.557 183.639 280.374 183.111 286.017C182.582 291.661 181.595 293.13 174.56 289.17C167.525 285.21 154.443 275.822 145.517 271.971C136.591 268.119 131.821 269.803 132.555 273.762C133.288 277.722 139.522 283.956 138.994 284.816C138.465 285.675 131.175 281.161 119.228 278.062C107.282 274.962 90.6813 273.278 88.5804 276.037C86.4794 278.796 98.8783 285.997 99.3858 290.805C99.8933 295.612 88.5077 298.025 79.9609 299.403C71.4141 300.782 65.7075 301.127 60 301.472V241L241.417 241V301.472C232.333 300.908 223.247 300.344 213.64 293.555Z" fill="#83DCE4"/>
</g>
<path d="M213.64 7.91776C204.034 14.7072 193.905 27.721 188.806 29.3184C183.708 30.9157 183.639 21.0985 183.111 15.4551C182.582 9.8118 181.595 8.34282 174.56 12.3028C167.525 16.2628 154.443 25.6501 145.517 29.5016C136.591 33.3531 131.821 31.6691 132.555 27.71C133.288 23.7509 139.522 17.5165 138.994 16.6568C138.465 15.797 131.175 20.3115 119.228 23.4108C107.282 26.5101 90.6813 28.194 88.5804 25.4351C86.4794 22.6762 98.8783 15.4753 99.3858 10.6676C99.8933 5.85994 88.5077 3.44782 79.9609 2.06914C71.4141 0.690464 65.7075 0.34526 60 0V60.4724L241.417 60.4724V0C232.333 0.564116 223.247 1.12831 213.64 7.91776Z" fill="#83DCE4"/>
<rect x="56" y="54" width="192" height="193" fill="#83DCE4"/>
<defs>
<clipPath id="clip0_190_71">
<rect width="60.4724" height="181.417" fill="white" transform="translate(0 60)"/>
</clipPath>
<clipPath id="clip1_190_71">
<rect width="60.4724" height="181.417" fill="white" transform="matrix(-1 0 0 1 301.472 60)"/>
</clipPath>
<clipPath id="clip2_190_71">
<rect width="60.4724" height="181.417" fill="white" transform="matrix(0 -1 -1 0 241.417 301.472)"/>
</clipPath>
</defs>
</svg>
