<svg xmlns:inkscape="http://www.inkscape.org/namespaces/inkscape" xmlns:sodipodi="http://sodipodi.sourceforge.net/DTD/sodipodi-0.dtd" xmlns="http://www.w3.org/2000/svg" xmlns:svg="http://www.w3.org/2000/svg" version="1.1" id="svg2" viewBox="408.38 415.16 1700.74 1791.86">
  <g id="g8" inkscape:groupmode="layer" inkscape:label="ink_ext_XXXXXX" transform="matrix(1.3333333,0,0,-1.3333333,0,2666.6667)">
    <g id="g10" transform="scale(0.1)">
      <path d="m 12967.5,15664.7 c -816.3,279.9 -1744.9,10.9 -2434.9,-507.6 -679.43,-510.6 -1164.25,-1234 -1591.01,-1969.7 -22.81,103.7 -47.23,207 -73.78,309.8 -164.96,923.1 -548.76,1805.3 -1111.36,2555.5 -18.36,28.8 -35.36,58.4 -54.04,87 -238.22,364.5 -568.43,746.2 -1003.86,746.6 -25.73,0 -50.58,-2.5 -75.42,-5 -55.97,-0.2 -112.28,-6.1 -169,-21.7 -175.7,-48.3 -304.96,-160.9 -398.46,-308 -182.26,-217.1 -307.67,-509.7 -371.9,-786.9 -337.12,-1455.3 172.88,-3075.8 1282.66,-4075.9 -676.47,271.9 -1376.67,548.2 -2105.42,528.8 -728.76,-19.4 -1499.62,-414.2 -1727.61,-1106.7 -145.52,-441.8 -50.35,-932.3 143.15,-1355.4 321.07,-702 914.79,-1274.9 1627.82,-1570.8 712.95,-295.9 1537.95,-311.6 2261.71,-43.2 -709.3,-519.9 -1441.2,-1065.2 -1861.19,-1837.9 -419.94,-772.7 -431.84,-1842.3 213.2,-2440.1 530.82,-492 1382.32,-529.8 2030.59,-208 648.27,321.8 1107.55,943.8 1379.52,1614.5 272.06,670.7 377.83,1395.1 481.45,2111.4 429.47,-552 638.55,-1239.9 971.65,-1855 333.1,-615 870.9,-1201.7 1567.9,-1260.8 436.4,-36.9 866.5,143 1226.2,393.1 389.1,270.3 725.3,638.4 879.1,1086.5 240.7,701 -3.5,1495.6 -448.3,2088.6 -444.8,592.9 -1066.9,1023.6 -1677.7,1443.6 662.2,-284 1411.7,-398.6 2112.3,-229.8 700.5,168.7 1341.2,642.7 1626.5,1304.3 285.3,661.7 166.2,1501.5 -353.6,2000.5 -521.1,500.1 -1334.1,588.9 -2033.1,407.2 -699,-181.7 -1312.5,-592.9 -1911.1,-997.1 733.3,648.5 1406.4,1364.9 2008.1,2137.1 207.9,266.8 417.2,572.5 391.9,909.9 -31,413 -410.2,720.9 -802,855.2" style="fill:#fe6e00;fill-opacity:1;fill-rule:nonzero;stroke:none" id="path12"/>
      <path d="m 10268.5,11072.6 c 535.7,-673.3 424.2,-1653.4 -249.1,-2189.1 -673.26,-535.7 -1653.35,-424.2 -2189.06,249.1 -535.71,673.3 -424.18,1653.3 249.1,2189 673.29,535.8 1653.37,424.2 2189.06,-249" style="fill:#f7db8f;fill-opacity:1;fill-rule:nonzero;stroke:none" id="path14"/>
    </g>
  </g>
</svg>
