<?xml version="1.0" encoding="UTF-8" standalone="no"?>
<!-- Created with Inkscape (http://www.inkscape.org/) -->

<svg
   width="102.416mm"
   height="108.18772mm"
   viewBox="0 0 102.416 108.18772"
   version="1.1"
   id="svg1"
   xmlns="http://www.w3.org/2000/svg"
   xmlns:svg="http://www.w3.org/2000/svg">
  <defs
     id="defs1" />
  <path
     id="rect240"
     style="display:inline;fill:#930402;fill-opacity:1;stroke:none;stroke-width:0.726569;stroke-dasharray:none;stroke-opacity:1"
     d="M 0,0 V 1.535979 H 1.53598 V 0 Z M 3.07196,0 V 1.535979 H 4.60792 V 0 Z M 6.14391,0 V 3.071959 H 3.07196 V 4.607938 6.14392 7.6799 12.287839 13.823816 H 7.67989 V 13.823456 12.287839 7.6799 h 4.60757 V 6.14392 3.071959 H 7.67989 v -1.53598 h 55.82534 31.23086 v 1.53598 H 90.12852 V 6.14392 7.6799 h 4.60757 v 4.607939 1.535617 3.6e-4 h 4.60795 V 12.287839 7.6799 6.14392 4.607938 3.071959 H 96.27208 V 0 H 94.73609 63.50523 7.67989 Z m 91.66414,0 v 1.535979 h 1.53599 V 0 Z m 3.07196,0 v 1.535979 h 1.53598 V 0 Z M 0,3.071959 V 4.607938 H 1.53598 V 3.071959 Z m 100.88001,0 v 1.535979 h 1.53598 V 3.071959 Z M 4.60792,4.607938 H 6.14391 V 6.14392 H 4.60792 Z m 3.07197,0 h 3.07159 V 6.14392 H 7.67989 Z m 83.9846,0 h 3.0716 V 6.14392 h -3.0716 z m 4.60759,0 h 1.53597 V 6.14392 H 96.27208 Z M 0,6.14392 v 63.132306 3.6e-4 32.767204 H 1.53598 V 69.276586 69.276226 6.14392 Z m 100.88001,0 v 63.132666 32.767204 h 1.53598 V 69.276226 6.14392 Z M 4.60792,7.6799 h 1.53599 v 4.607939 H 4.60792 Z m 91.66416,0 h 1.53597 v 4.607939 H 96.27208 Z M 8.4477,8.447707 v 3.07196 h 3.07196 v -3.07196 z m 82.44862,0 v 3.07196 h 3.07196 V 8.447707 Z M 3.07196,94.363896 v 1.53599 4.607934 1.53597 1.53599 1.53597 h 3.07195 v 3.07197 h 1.53598 55.82497 3.7e-4 31.23086 1.53599 v -3.07197 h 3.07196 v -1.53597 -1.53599 -1.53597 -4.607934 -1.53599 h -4.60795 v 3.6e-4 1.53563 4.607934 h -4.60757 v 1.53597 3.07196 h 4.60757 v 1.53598 H 63.50523 63.50486 7.67989 v -1.53598 h 4.60757 v -3.07196 -1.53597 H 7.67989 v -4.607934 -1.53563 -3.6e-4 z m 1.53596,1.53599 h 1.53599 v 4.607934 H 4.60792 Z m 91.66416,0 h 1.53597 v 4.607934 H 96.27208 Z M 8.4477,96.668036 v 3.07196 h 3.07196 v -3.07196 z m 82.44862,0 v 3.07196 h 3.07196 v -3.07196 z m -86.2884,5.375754 h 1.53599 v 1.53599 H 4.60792 Z m 3.07197,0 h 3.07159 v 1.53599 H 7.67989 Z m 83.9846,0 h 3.0716 v 1.53599 h -3.0716 z m 4.60759,0 h 1.53597 v 1.53599 H 96.27208 Z M 0,103.57978 v 1.53597 h 1.53598 v -1.53597 z m 100.88001,0 v 1.53597 h 1.53598 v -1.53597 z M 0,106.65173 v 1.53599 h 1.53598 v -1.53599 z m 3.07196,0 v 1.53599 h 1.53596 v -1.53599 z m 94.73609,0 v 1.53599 h 1.53599 v -1.53599 z m 3.07196,0 v 1.53599 h 1.53598 v -1.53599 z" />
</svg>
