<svg width="36" height="30" viewBox="0 0 36 30" fill="none" xmlns="http://www.w3.org/2000/svg">
<path fill-rule="evenodd" clip-rule="evenodd" d="M14.4572 3.03197C11.6609 8.86583 11.6821 18.432 14.512 27.4811C14.7947 28.3858 14.3044 27.944 13.4235 26.5004C11.1237 22.7348 11.099 6.51497 13.3873 3.05735C15.1455 0.401144 14.1878 -0.150044 11.9913 2.25419C6.55239 8.20528 6.46668 21.957 11.8385 26.9544C16.0688 30.8898 16.2826 30.3718 15.953 16.9867C15.7852 10.1896 16.0264 3.64353 16.4875 2.44054C17.0574 0.95495 17.1855 3.65491 16.8869 10.8624C16.6448 16.6971 16.7641 23.3901 17.152 25.7357L17.857 30L18.5426 26.5004C18.9199 24.5756 19.2044 19.0637 19.1752 14.2517C19.0904 0.358268 17.523 -3.36707 14.4572 3.03197ZM19.7725 14.6962C19.7725 27.2475 19.9624 29.3053 21.0978 29.0822C21.8267 28.9387 22.6916 28.7917 23.0203 28.755C23.349 28.7174 24.6875 26.5231 25.9951 23.8774C29.1714 17.4478 28.8762 9.72411 25.2468 4.29271C22.3868 0.0135608 20.6039 -0.520133 22.7119 3.53417C24.6071 7.18076 24.7723 21.6333 22.9664 25.8722C21.2188 29.9755 20.9387 28.9046 22.4557 23.9142C24.5497 17.0234 23.7306 5.64881 20.8468 1.56914C19.9854 0.350398 19.7725 2.94798 19.7725 14.6962ZM24.6318 1.46241C24.6318 1.9436 25.0356 2.58403 25.5286 2.88587C27.3707 4.01362 29.0494 9.8291 29.0494 15.0855C29.0494 19.0961 28.4902 21.6114 26.9113 24.6989L24.7732 28.881L27.4617 26.3779C32.9705 21.251 34.1526 13.5072 30.4153 7.03378C29.2341 4.98825 28.5697 3.31544 28.9381 3.31544C29.3065 3.31544 30.4763 4.84565 31.5374 6.71532C34.7455 12.3681 33.6888 21.4014 29.2367 26.377C27.7824 28.0026 27.7975 28.0288 29.6502 27.0673C34.6156 24.4881 37.3642 16.2701 35.3171 10.1257C34.2684 6.97953 30.1503 2.44929 28.0528 2.1352C27.3858 2.03546 26.3441 1.64612 25.7362 1.27079C25.1292 0.894579 24.6318 0.981209 24.6318 1.46241ZM8.32737 2.50528C8.52528 2.822 7.90328 3.78352 6.94555 4.6418C3.26746 7.93756 2.39189 16.6831 5.19441 22.1259C7.21856 26.0568 7.29631 26.3718 6.06468 25.6176C4.39218 24.594 2.54386 18.8686 2.54386 14.7128C2.54386 11.9429 3.30192 9.15892 4.83748 6.28924L7.13021 2.00309L4.75354 4.19035C0.931435 7.70659 -0.347015 10.9367 0.0779571 16.0059C0.478191 20.7908 3.00859 25.3114 6.2458 27.0271C7.56313 27.7253 7.89445 27.7244 7.45799 27.0253C6.57447 25.6106 7.91477 25.8538 9.66944 27.4269C10.7871 28.4278 10.6122 27.6719 9.01387 24.5835C7.14788 20.9771 6.87752 19.4172 7.12314 13.6647C7.34843 8.38988 7.83172 6.38722 9.37964 4.31457C11.2377 1.82548 11.2536 1.68375 9.65795 1.80273C8.72849 1.87185 8.12947 2.18857 8.32737 2.50528Z" fill="#EFB64A"/>
</svg>
