<svg width="35" height="91" viewBox="0 0 35 91" fill="none" xmlns="http://www.w3.org/2000/svg">
<path d="M16.2906 14.4482C16.449 12.1058 16.5939 8.03877 16.6136 5.41164C16.6333 2.78451 16.9064 0.634472 17.2202 0.634472C17.5339 0.634472 17.7903 2.9756 17.7903 5.83758C17.7903 8.69957 18.0307 11.1892 18.3248 11.3711C18.9356 11.7483 18.7957 18.3063 18.1441 19.8276C17.8212 20.5821 18.297 21.127 20.0292 21.985C23.7652 23.8367 23.1987 24.3662 17.4821 24.3662C11.7828 24.3662 11.2009 23.8361 14.8914 22.006C16.7548 21.082 17.0605 20.6825 16.5841 19.7931C16.2648 19.1964 16.1328 16.7912 16.2906 14.4482Z" fill="#EFB64A"/>
<path d="M11.3741 40.6351C10.8514 36.4435 11.8993 29.88 13.5156 27.2226C14.1615 26.16 15.1102 25.2908 15.6237 25.2908C16.4256 25.2908 16.5575 26.9853 16.5575 37.3108C16.5575 48.9899 16.5218 49.3308 15.3025 49.3308C13.7177 49.3308 11.9776 45.4801 11.3741 40.6351Z" fill="#EFB64A"/>
<path d="M19.491 49.3308C18.493 49.3308 18.4068 48.3722 18.4068 37.3108C18.4068 27.5124 18.5639 25.2908 19.2562 25.2908C20.4403 25.2908 21.2071 26.3862 22.2747 29.6057C23.8016 34.2078 24.0537 38.5399 23.0477 42.877C21.9647 47.5481 20.9821 49.3308 19.491 49.3308Z" fill="#EFB64A"/>
<path d="M7.62513 29.7049C8.55961 27.9876 9.77333 26.4626 10.3213 26.3165C10.8693 26.1698 11.511 26.0182 11.7471 25.9787C11.9831 25.9393 11.6367 27.476 10.9766 29.3943C9.51628 33.6376 9.39363 40.9347 10.7097 45.2717C11.2151 46.9379 11.4845 48.445 11.3088 48.6207C11.1331 48.7963 10.2313 48.3815 9.30487 47.6985C5.26492 44.7213 4.41364 35.6046 7.62513 29.7049Z" fill="#EFB64A"/>
<path d="M24.3052 30.8064C23.7325 28.9597 23.1192 27.1018 22.9417 26.6777C22.3345 25.2279 24.0746 25.9054 25.8561 27.8126C29.4343 31.6429 30.2529 39.43 27.6338 44.7176C26.3751 47.259 23.608 49.806 22.8881 49.0867C22.7876 48.9862 23.1593 47.8206 23.7134 46.4977C25.2612 42.803 25.5608 34.8593 24.3052 30.8064Z" fill="#EFB64A"/>
<path d="M0.141318 39.0558C-0.460297 36.658 0.902603 33.1377 3.39906 30.6419C4.64667 29.3936 5.76359 28.469 5.88132 28.5861C5.99844 28.7039 5.65078 29.8633 5.10773 31.1627C3.83361 34.2109 3.82376 41.0019 5.08801 44.0284C5.78147 45.6878 5.84066 46.2728 5.29637 46.094C4.16711 45.7217 0.588214 40.8354 0.141318 39.0558Z" fill="#EFB64A"/>
<path d="M29.9373 43.629C31.0801 40.3318 30.7762 33.1352 29.3788 30.3762C28.0628 27.7786 28.6841 27.8428 31.5184 30.5956C35.7864 34.7416 35.8998 39.5188 31.8389 44.1443C29.3801 46.944 28.8395 46.7973 29.9373 43.629Z" fill="#EFB64A"/>
<path d="M11.2428 54.262C11.9394 54.262 12.0855 53.7714 11.8395 52.2587L11.5141 50.2554H17.4803H23.4471L23.1229 52.2587C22.8788 53.7708 23.0255 54.262 23.7214 54.262C24.2287 54.262 24.4722 54.5394 24.2626 54.8784C24.0531 55.2175 22.5114 55.4949 20.836 55.4949C19.1606 55.4949 17.7903 55.7722 17.7903 56.1113C17.7903 56.4503 18.1775 56.7277 18.6509 56.7277C19.1243 56.7277 20.3034 57.6289 21.2706 58.731L23.0298 60.7343L22.8554 75.8672L22.6809 91H17.4821H12.2833L12.1089 75.9757C12.0103 67.4624 12.1835 60.5069 12.5096 59.9256C13.3016 58.5128 15.4622 56.7727 16.4546 56.748C16.907 56.7369 17.1647 56.3917 17.0278 55.9806C16.8688 55.5041 15.755 55.2964 13.9569 55.4067C12.4048 55.5022 10.9519 55.2834 10.7282 54.921C10.5038 54.5585 10.7355 54.262 11.2428 54.262Z" fill="#EFB64A"/>
</svg>
