<svg width="424" height="416" viewBox="0 0 424 416" fill="none" xmlns="http://www.w3.org/2000/svg">
<g clip-path="url(#clip0_2396_152)">
<path d="M194.985 0.00656122C193.696 -0.0168009 192.314 0.0215031 190.827 0.133076C167.032 1.91824 172.724 17.7066 149.923 24.7477C127.121 31.7889 122.942 15.5339 102.278 27.4779C81.613 39.422 93.5847 51.1731 76.0931 67.4211C58.6015 83.6692 47.7912 70.8385 34.3496 90.5758C22.1293 108.52 34.0872 114.643 29.8204 132.31C34.287 128.179 40.1885 125.854 46.3373 125.805C52.0372 125.815 57.5526 127.781 61.9207 131.361C66.2888 134.941 69.2322 139.907 70.237 145.392C74.026 145.789 77.6503 146.725 80.8747 148.139C84.0991 149.554 86.8514 151.415 88.9528 153.603C89.5189 153.536 90.0897 153.502 90.6613 153.502C93.4519 153.509 96.1579 154.312 98.3425 155.78C100.527 157.247 102.063 159.295 102.702 161.591H7.01264C4.03016 164.868 1.64589 169.3 0.496861 176.932C-3.05949 200.553 13.5802 198.509 15.3634 222.331C17.1465 246.152 0.388839 246.615 7.42209 269.442C10.947 280.882 16.2482 284.31 22.1622 287.488C79.1753 275.56 128.486 265.261 168.328 256.968C168.812 255.434 169.057 253.856 168.477 252.132C167.606 249.545 164.936 246.637 164.622 243.646C164.309 240.655 166.353 237.584 167.375 236.047C168.397 234.511 165.969 232.057 166.713 231.283C167.456 230.508 168.942 228.96 169.541 225.387C170.14 221.814 169.85 216.217 169.361 213.763C168.873 211.309 168.183 211.999 165.381 212.541C162.578 213.083 157.664 213.478 154.459 211.466C151.255 209.453 149.761 205.032 150.127 200.871C150.493 196.711 152.72 192.81 157.482 189.885C162.245 186.959 169.545 185.009 173.769 182.861C177.993 180.712 179.14 178.367 180.53 174.89C181.92 171.413 183.553 166.806 185.105 164.367C186.657 161.928 188.126 161.657 188.095 161.424C188.064 161.191 186.532 160.997 186.073 160.149C185.614 159.3 186.229 157.798 187.64 157.14C189.05 156.482 191.256 156.67 192.007 157.543C192.758 158.415 192.056 159.973 191.979 160.713C191.903 161.453 192.45 161.377 193.744 160.791C195.037 160.206 197.076 159.11 199.054 159.541C201.032 159.973 202.95 161.931 204.384 162.838C205.818 163.746 206.769 163.604 207.521 164.139C208.272 164.674 208.823 165.886 209.876 167.889C210.93 169.892 212.484 172.685 212.798 174.953C213.112 177.222 212.188 178.967 211.56 180.285C210.931 181.602 210.601 182.492 210.885 183.088C211.168 183.685 212.064 183.989 214.739 184.045C217.415 184.1 221.868 183.907 225.524 183.311C229.18 182.715 232.038 181.715 236.331 181.578C240.624 181.44 246.353 182.165 249.471 182.215C252.589 182.266 253.098 181.643 254.367 181.241C255.637 180.84 257.666 180.661 258.896 180.457C260.127 180.252 260.557 180.022 260.966 180.533C261.376 181.044 261.764 182.295 261.75 183.136C261.735 183.977 261.319 184.408 261.482 184.667C261.645 184.926 262.387 185.013 262.617 185.659C262.847 186.305 262.566 187.511 262.134 188.164C261.702 188.817 261.117 188.916 260.934 189.209C260.75 189.502 260.966 189.986 260.929 190.798C260.891 191.61 260.601 192.751 259.776 193.053C258.951 193.354 257.591 192.818 256.392 193.435C255.192 194.052 254.153 195.825 251.082 198.159C248.01 200.493 242.906 203.387 237.764 204.613C232.623 205.84 227.443 205.397 224.086 205.8C220.729 206.204 219.196 207.455 218.927 209.672C218.658 211.888 219.654 215.069 219.554 218.016C219.455 220.964 218.261 223.676 218.083 225.003C217.906 226.329 218.743 226.269 221.136 227.131C223.529 227.992 227.478 229.775 230 232.001C232.522 234.228 233.616 236.897 235.485 239.01C236.723 240.411 238.266 241.547 239.473 242.487C249.223 240.771 253.034 240.579 255.644 241.328C260.355 242.681 263.581 246.493 264.159 250.214C264.736 253.936 262.666 257.567 262.417 258.924C262.169 260.281 263.743 259.366 265.16 260.29C266.576 261.214 267.832 263.974 267.313 268.66C266.794 273.346 264.501 279.958 262.094 283.969C259.687 287.979 257.164 289.39 255.656 291.638C254.148 293.886 253.655 296.967 253.584 299.876C253.513 302.786 253.863 305.52 249.118 312.589C244.372 319.657 234.533 331.06 221.579 349.526C211.819 363.438 200.145 381.691 188.181 400.602C201.098 406.495 202.399 417.332 221.948 415.865C245.742 414.08 240.048 398.294 262.849 391.253C285.651 384.212 289.83 400.467 310.495 388.523C331.159 376.579 319.187 364.827 336.679 348.579C350.985 335.29 360.823 341.431 371.285 333.317H303.253C303.893 331.02 305.429 328.973 307.614 327.505C309.799 326.037 312.506 325.235 315.297 325.227C315.867 325.228 316.437 325.262 317.003 325.329C319.104 323.141 321.856 321.28 325.081 319.865C328.305 318.45 331.929 317.514 335.718 317.118C336.723 311.633 339.667 306.667 344.035 303.087C348.403 299.507 353.918 297.54 359.618 297.531C364.288 297.533 368.858 298.849 372.784 301.322C376.709 303.795 379.823 307.321 381.754 311.478C382.485 311.598 383.21 311.758 383.925 311.956C385.038 301.555 378.343 294.285 384.703 278.063C393.421 255.826 408.719 262.69 412.275 239.068C415.832 215.447 399.192 217.489 397.409 193.667C395.625 169.846 412.386 169.385 405.352 146.559C398.319 123.732 384.211 132.801 372.281 112.114C360.35 91.426 375.249 83.7305 359.019 66.2192C342.789 48.708 334.011 63.0063 314.296 49.5497C294.581 36.093 304.667 22.6884 282.455 13.9611C260.243 5.23381 258.531 21.9292 234.936 18.3689C212.816 15.0311 214.317 0.356987 194.985 0.00656122ZM424 56.675C419.087 58.8096 414.175 60.9437 409.002 64.6935C403.829 68.4433 398.397 73.8072 395.015 75.2498C391.633 76.6924 390.3 74.2076 385.15 71.8972C380.001 69.5868 371.034 67.453 370.241 67.9727C369.448 68.4924 376.83 71.6656 382.166 75.3839C387.501 79.1022 390.787 83.3604 394.077 87.623C396.34 83.4792 398.603 79.3358 403.591 74.177C408.578 69.0181 416.289 62.847 424 56.675ZM356.542 85.3583C350.919 89.859 345.297 94.3593 341.661 98.1211C338.024 101.883 336.373 104.904 334.723 107.926C332.323 104.818 329.926 101.713 326.036 99.0017C322.145 96.2903 316.763 93.9759 317.341 93.597C317.919 93.218 324.457 94.774 328.212 96.4587C331.967 98.1435 332.941 99.9549 335.408 98.903C337.874 97.8511 341.834 93.9402 345.606 91.2058C349.378 88.4715 352.96 86.9149 356.542 85.3583ZM212.871 246.098C211.212 246.18 210.104 247.211 207.705 247.623C205.307 248.035 201.616 247.827 199.137 247.337C196.659 246.848 195.393 246.075 193.948 246.105C192.504 246.135 190.883 246.967 189.093 247.36C187.304 247.753 185.348 247.705 184.622 248.028C183.896 248.351 184.401 249.044 184.056 249.81C183.711 250.575 182.517 251.414 181.938 252.527C181.671 253.041 181.543 253.618 181.478 254.222C186.192 253.243 196.386 251.103 200.393 250.273C207.349 248.832 211.911 247.909 217.13 246.844C215.629 246.495 214.1 246.037 212.871 246.098Z" fill="#FF951A"/>
</g>
<defs>
<clipPath id="clip0_2396_152">
<rect width="424" height="416" fill="white"/>
</clipPath>
</defs>
</svg>
