<?xml version="1.0" encoding="UTF-8" standalone="no"?>
<!-- Created with Inkscape (http://www.inkscape.org/) -->

<svg
   width="103.13511mm"
   height="72.390739mm"
   viewBox="0 0 103.13511 72.390739"
   version="1.1"
   id="svg1"
   xmlns="http://www.w3.org/2000/svg"
   xmlns:svg="http://www.w3.org/2000/svg">
  <defs
     id="defs1" />
  <g
     id="layer1"
     transform="translate(4.0400731e-5)">
    <g
       id="g514"
       transform="matrix(1.4557945,0,0,1.7996135,-1306.3742,-47.797567)"
       style="display:inline;fill:#ffffff;fill-opacity:0.995425">
      <path
         style="color:#000000;fill:#ffffff;fill-opacity:0.995425;-inkscape-stroke:none"
         d="m 897.36133,26.560547 v 40.224609 h 70.8457 V 26.560547 Z m 2.14648,2.146484 h 66.55274 v 35.931641 h -66.55274 z"
         id="rect510" />
      <g
         id="g513"
         transform="matrix(1.2699162,0,0,0.78336125,754.15378,-39.776088)"
         style="display:inline;fill:#ffffff;fill-opacity:0.995425">
        <g
           id="text511"
           style="font-size:14.1757px;line-height:0.6;font-family:'Kung Fu Panda';-inkscape-font-specification:'Kung Fu Panda';text-align:center;text-anchor:middle;fill:#ffffff;fill-opacity:0.995425;stroke-width:1.09298"
           transform="scale(0.50495064,1.9803916)"
           aria-label="COMISSaO&#10;DE RECEPCaO">
          <path
             d="m 232.46789,54.249782 v -5.232827 q 0,-0.678329 0.45683,-1.190537 0.46376,-0.512208 1.23207,-0.775234 0.76831,-0.263026 1.71659,-0.263026 h 6.47874 v 3.273978 q -1.18362,-0.553738 -1.80657,-0.706016 -0.62296,-0.1592 -1.6543,-0.1592 h -0.80984 q -0.38762,0 -0.56758,0.193808 -0.17997,0.186887 -0.17997,0.574504 v 3.315508 q 0,0.394538 0.17305,0.581425 0.17996,0.186887 0.5745,0.186887 h 0.13151 q 0.84445,0 1.23207,-0.01384 0.38762,-0.01384 0.87906,-0.103826 0.49144,-0.08998 0.89983,-0.249182 0.4153,-0.1592 1.12824,-0.484521 v 3.260134 h -6.47874 q -0.43607,0 -0.87214,-0.05537 -0.42915,-0.06229 -0.89982,-0.214573 -0.47068,-0.1592 -0.82369,-0.394539 -0.35301,-0.24226 -0.58142,-0.636799 -0.22842,-0.40146 -0.22842,-0.906746 z m 11.29626,0 v -5.232827 q 0,-0.657564 0.42223,-1.169772 0.42914,-0.512208 1.15592,-0.782155 0.72679,-0.27687 1.62661,-0.27687 h 4.73446 q 0.89983,0 1.62661,0.27687 0.72678,0.269947 1.14901,0.782155 0.42914,0.512208 0.42914,1.169772 v 5.232827 q 0,0.463756 -0.20073,0.844451 -0.19381,0.380695 -0.51221,0.629877 -0.31839,0.249182 -0.74754,0.422225 -0.42223,0.166122 -0.8583,0.242261 -0.43607,0.06922 -0.88598,0.06922 h -4.73446 q -0.51221,0 -1.03826,-0.110747 -0.51913,-0.11767 -1.02441,-0.353009 -0.50529,-0.24226 -0.82369,-0.692172 -0.3184,-0.449913 -0.3184,-1.052103 z m 4.86598,-0.643721 q 0,0.346087 0.15919,0.498365 0.1592,0.145356 0.50529,0.145356 h 0.0831 q 0.34609,0 0.50529,-0.145356 0.16612,-0.152278 0.16612,-0.498365 v -3.979994 q 0,-0.346086 -0.1592,-0.491443 -0.15228,-0.145356 -0.51221,-0.145356 h -0.0831 q -0.35993,0 -0.51221,0.145356 -0.15227,0.145357 -0.15227,0.491443 z m 7.48238,-6.817903 h 4.8729 l 1.82734,3.1217 1.83425,-3.1217 h 4.38838 v 9.669655 H 264.647 l 0.0138,-4.263785 -1.8481,3.211683 -1.82734,-3.211683 v 4.263785 h -4.38145 v -7.24705 q 0,-1.287441 -0.49145,-2.422605 z m 14.29337,0 h 5.46125 v 9.669655 H 271.015 v -6.423364 q 0,-2.055753 -0.60912,-3.246291 z m 7.23321,9.669655 v -3.273977 q 0.8929,0.546816 1.57815,0.706016 0.69218,0.1592 1.7512,0.1592 h 1.03134 q 0.38762,0 0.51913,-0.11767 0.13843,-0.117669 0.13843,-0.408382 0,-0.276869 -0.13843,-0.380695 -0.13151,-0.103826 -0.62988,-0.228417 l -2.13881,-0.498364 q -0.39454,-0.0969 -0.73371,-0.263026 -0.33916,-0.166121 -0.64372,-0.422225 -0.30455,-0.256104 -0.4776,-0.643721 -0.17304,-0.394539 -0.17304,-0.87906 v -0.892903 q 0,-1.100555 0.69217,-1.813493 0.6991,-0.712938 1.95885,-0.712938 h 7.24013 v 3.273978 q -0.93443,-0.539895 -1.64045,-0.699095 -0.69909,-0.166121 -1.77196,-0.166121 h -1.01057 q -0.35993,0 -0.49145,0.103826 -0.13151,0.0969 -0.13151,0.394538 0,0.290713 0.1592,0.408382 0.16612,0.11767 0.69217,0.200731 l 2.69256,0.456834 q 1.66121,0.297634 1.66121,2.111127 v 1.356659 q 0,0.477599 -0.1592,0.865216 -0.1592,0.387617 -0.42222,0.636799 -0.26303,0.249182 -0.60912,0.422225 -0.33916,0.166122 -0.69217,0.235339 -0.35301,0.06922 -0.71294,0.06922 z m 11.6908,0 v -3.273977 q 0.8929,0.546816 1.57815,0.706016 0.69218,0.1592 1.7512,0.1592 h 1.03134 q 0.38762,0 0.51913,-0.11767 0.13843,-0.117669 0.13843,-0.408382 0,-0.276869 -0.13843,-0.380695 -0.13151,-0.103826 -0.62988,-0.228417 l -2.13881,-0.498364 q -0.39454,-0.0969 -0.73371,-0.263026 -0.33916,-0.166121 -0.64372,-0.422225 -0.30455,-0.256104 -0.4776,-0.643721 -0.17304,-0.394539 -0.17304,-0.87906 v -0.892903 q 0,-1.100555 0.69217,-1.813493 0.6991,-0.712938 1.95885,-0.712938 h 7.24013 v 3.273978 q -0.93443,-0.539895 -1.64045,-0.699095 -0.69909,-0.166121 -1.77196,-0.166121 h -1.01057 q -0.35993,0 -0.49145,0.103826 -0.13151,0.0969 -0.13151,0.394538 0,0.290713 0.1592,0.408382 0.16612,0.11767 0.69217,0.200731 l 2.69256,0.456834 q 1.66121,0.297634 1.66121,2.111127 v 1.356659 q 0,0.477599 -0.1592,0.865216 -0.1592,0.387617 -0.42222,0.636799 -0.26303,0.249182 -0.60912,0.422225 -0.33916,0.166122 -0.69217,0.235339 -0.35301,0.06922 -0.71294,0.06922 z m 11.82923,0 v -6.963259 q 0,-1.349737 0.59527,-2.028066 0.60219,-0.67833 1.90348,-0.67833 h 5.3851 q 3.10094,0 3.10094,2.145736 v 7.523919 h -4.88674 v -3.059404 h -1.20438 v 3.059404 z m 4.87982,-5.156688 h 1.21823 v -1.716588 q 0,-0.422226 -0.11767,-0.526052 -0.11767,-0.110747 -0.44991,-0.110747 -0.40146,0 -0.52606,0.103826 -0.12459,0.103826 -0.12459,0.505286 z m 7.73158,2.948657 v -5.232827 q 0,-0.657564 0.42222,-1.169772 0.42915,-0.512208 1.15593,-0.782155 0.72678,-0.27687 1.62661,-0.27687 h 4.73446 q 0.89982,0 1.62661,0.27687 0.72678,0.269947 1.149,0.782155 0.42915,0.512208 0.42915,1.169772 v 5.232827 q 0,0.463756 -0.20073,0.844451 -0.19381,0.380695 -0.51221,0.629877 -0.3184,0.249182 -0.74755,0.422225 -0.42222,0.166122 -0.85829,0.242261 -0.43607,0.06922 -0.88598,0.06922 h -4.73446 q -0.51221,0 -1.03826,-0.110747 -0.51913,-0.11767 -1.02442,-0.353009 -0.50528,-0.24226 -0.82368,-0.692172 -0.3184,-0.449913 -0.3184,-1.052103 z m 4.86597,-0.643721 q 0,0.346087 0.1592,0.498365 0.1592,0.145356 0.50529,0.145356 h 0.0831 q 0.34608,0 0.50528,-0.145356 0.16613,-0.152278 0.16613,-0.498365 v -3.979994 q 0,-0.346086 -0.1592,-0.491443 -0.15228,-0.145356 -0.51221,-0.145356 h -0.0831 q -0.35993,0 -0.51221,0.145356 -0.15228,0.145357 -0.15228,0.491443 z"
             id="path1"
             style="fill:#ffffff;fill-opacity:0.995425" />
          <path
             style="font-size:10.7579px;fill:#ffffff;fill-opacity:0.995425"
             d="m 231.72781,57.624959 h 6.66065 q 0.29942,0 0.57782,0.05253 0.28366,0.04728 0.56731,0.168092 0.28366,0.120816 0.48852,0.30992 0.21011,0.183851 0.34144,0.483265 0.13132,0.294161 0.13132,0.667116 v 3.981684 q 0,0.430736 -0.17335,0.76692 -0.17334,0.330932 -0.46225,0.525288 -0.28366,0.189104 -0.61984,0.288909 -0.33093,0.09455 -0.68813,0.09455 h -6.36124 v -4.864168 q 0,-0.745909 -0.0945,-1.34999 -0.0945,-0.604082 -0.3677,-1.124117 z m 4.15503,5.715134 h 0.29941 q 0.37821,0 0.49903,-0.09455 0.12607,-0.09455 0.12607,-0.399219 v -3.036166 q 0,-0.304667 -0.12607,-0.399218 -0.12082,-0.09455 -0.49903,-0.09455 h -0.29941 z m 5.41572,-5.715134 h 7.99488 v 2.484613 q -0.71964,-0.441242 -1.31847,-0.556806 -0.52529,-0.105057 -1.49182,-0.0998 -0.13132,0 -0.26789,0 h -0.73015 v 1.024311 h 2.96787 v 1.612635 h -2.96787 v 1.045323 h 0.73015 q 0.22062,0 0.41497,0 0.18911,0 0.36771,0 0.34669,-0.0053 0.62509,-0.03152 0.2784,-0.02626 0.54104,-0.09455 0.26265,-0.07354 0.53055,-0.199609 0.26789,-0.12607 0.59882,-0.330932 v 2.484613 h -7.51162 v -4.895685 q 0,-1.775474 -0.48326,-2.44259 z m 11.88202,0 h 6.7552 q 0.29942,0 0.57782,0.04728 0.28365,0.04202 0.56206,0.152333 0.2784,0.110311 0.48326,0.283656 0.20486,0.168092 0.33093,0.441242 0.12607,0.267897 0.12607,0.614587 v 1.418278 q 0,1.061082 -1.22917,1.402519 l 1.5601,2.978384 h -3.9344 l -1.10836,-2.51613 v 2.51613 h -3.66126 v -4.88518 q 0,-1.712439 -0.46225,-2.453095 z m 4.13401,3.183246 h 0.47276 q 0.19961,0 0.32568,-0.105058 0.12607,-0.11031 0.12607,-0.330931 v -0.614587 q 0,-0.304667 -0.12607,-0.399219 -0.12081,-0.09455 -0.49902,-0.09455 h -0.29942 z m 5.61008,-3.183246 h 7.99489 v 2.484613 q -0.71965,-0.441242 -1.31848,-0.556806 -0.52529,-0.105057 -1.49182,-0.0998 -0.13132,0 -0.26789,0 h -0.73015 v 1.024311 h 2.96788 v 1.612635 h -2.96788 v 1.045323 h 0.73015 q 0.22062,0 0.41498,0 0.1891,0 0.3677,0 0.34669,-0.0053 0.62509,-0.03152 0.2784,-0.02626 0.54105,-0.09455 0.26264,-0.07354 0.53054,-0.199609 0.26789,-0.12607 0.59883,-0.330932 v 2.484613 h -7.51162 v -4.895685 q 0,-1.775474 -0.48327,-2.44259 z m 9.06647,5.662606 v -3.971178 q 0,-0.514783 0.34669,-0.903496 0.35195,-0.388713 0.93502,-0.588323 0.58307,-0.199609 1.30271,-0.199609 h 4.9167 v 2.484613 q -0.89824,-0.420231 -1.371,-0.535794 -0.47276,-0.120816 -1.25544,-0.120816 h -0.61459 q -0.29416,0 -0.43074,0.14708 -0.13657,0.141828 -0.13657,0.435989 v 2.51613 q 0,0.299415 0.13132,0.441242 0.13658,0.141828 0.43599,0.141828 h 0.0998 q 0.64085,0 0.93501,-0.01051 0.29416,-0.0105 0.66711,-0.07879 0.37296,-0.06829 0.68288,-0.189104 0.31517,-0.120816 0.85622,-0.367701 v 2.474107 h -4.9167 q -0.33093,0 -0.66186,-0.04202 -0.32568,-0.04728 -0.68288,-0.16284 -0.35719,-0.120816 -0.62509,-0.299414 -0.2679,-0.183851 -0.44124,-0.483265 -0.17335,-0.304667 -0.17335,-0.688127 z m 8.30481,-5.662606 h 7.99488 v 2.484613 q -0.71964,-0.441242 -1.31847,-0.556806 -0.52529,-0.105057 -1.49182,-0.0998 -0.13132,0 -0.2679,0 h -0.73015 v 1.024311 h 2.96788 v 1.612635 h -2.96788 v 1.045323 h 0.73015 q 0.22063,0 0.41498,0 0.18911,0 0.3677,0 0.34669,-0.0053 0.6251,-0.03152 0.2784,-0.02626 0.54104,-0.09455 0.26265,-0.07354 0.53054,-0.199609 0.2679,-0.12607 0.59883,-0.330932 v 2.484613 h -7.51162 v -4.895685 q 0,-1.775474 -0.48326,-2.44259 z m 8.81959,0 h 6.63964 q 0.29941,0 0.57781,0.05253 0.28366,0.04728 0.56206,0.168092 0.27841,0.120816 0.48327,0.30992 0.20486,0.183851 0.33093,0.483265 0.13132,0.294161 0.13132,0.667116 v 1.355243 q 0,0.457001 -0.10506,0.782679 -0.10505,0.320426 -0.35194,0.562059 -0.24688,0.241632 -0.68287,0.357196 -0.43074,0.115563 -1.06634,0.115563 h -2.41632 v 2.484613 h -3.64025 v -4.864168 q 0,-0.782679 -0.0945,-1.365749 -0.0893,-0.588323 -0.3677,-1.108358 z m 4.1025,3.151729 h 0.47276 q 0.46225,0 0.46225,-0.451748 v -0.514783 q 0,-0.299414 -0.13132,-0.393966 -0.12607,-0.0998 -0.49377,-0.0998 h -0.30992 z m 5.42622,2.510877 v -3.971178 q 0,-0.514783 0.34669,-0.903496 0.35194,-0.388713 0.93501,-0.588323 0.58307,-0.199609 1.30272,-0.199609 h 4.91669 v 2.484613 q -0.89824,-0.420231 -1.371,-0.535794 -0.47276,-0.120816 -1.25544,-0.120816 h -0.61458 q -0.29417,0 -0.43074,0.14708 -0.13658,0.141828 -0.13658,0.435989 v 2.51613 q 0,0.299415 0.13133,0.441242 0.13657,0.141828 0.43599,0.141828 h 0.0998 q 0.64085,0 0.93501,-0.01051 0.29416,-0.0105 0.66712,-0.07879 0.37295,-0.06829 0.68287,-0.189104 0.31518,-0.120816 0.85622,-0.367701 v 2.474107 h -4.91669 q -0.33094,0 -0.66187,-0.04202 -0.32568,-0.04728 -0.68287,-0.16284 -0.3572,-0.120816 -0.62509,-0.299414 -0.2679,-0.183851 -0.44125,-0.483265 -0.17334,-0.304667 -0.17334,-0.688127 z m 8.73554,1.675669 v -5.284399 q 0,-1.024311 0.45175,-1.539094 0.457,-0.514782 1.44454,-0.514782 h 4.08674 q 2.35329,0 2.35329,1.628393 v 5.709882 h -3.70853 V 62.64146 h -0.914 v 2.321774 z m 3.70328,-3.913397 h 0.92451 v -1.302714 q 0,-0.320426 -0.0893,-0.399219 -0.0893,-0.08405 -0.34144,-0.08405 -0.30467,0 -0.39922,0.07879 -0.0946,0.07879 -0.0946,0.38346 z m 5.86747,2.237728 v -3.971178 q 0,-0.499024 0.32042,-0.887737 0.32568,-0.388713 0.87724,-0.593576 0.55155,-0.210115 1.23442,-0.210115 h 3.59297 q 0.68288,0 1.23443,0.210115 0.55155,0.204863 0.87198,0.593576 0.32568,0.388713 0.32568,0.887737 v 3.971178 q 0,0.351943 -0.15234,0.640851 -0.14708,0.288909 -0.38871,0.478012 -0.24163,0.189104 -0.56731,0.320426 -0.32043,0.126069 -0.65136,0.183851 -0.33093,0.05253 -0.67237,0.05253 h -3.59297 q -0.38871,0 -0.78793,-0.08405 -0.39397,-0.0893 -0.77743,-0.267897 -0.38346,-0.183851 -0.62509,-0.525288 -0.24163,-0.341438 -0.24163,-0.798438 z m 3.69277,-0.488518 q 0,0.262644 0.12082,0.378207 0.12082,0.110311 0.38346,0.110311 h 0.063 q 0.26264,0 0.38346,-0.110311 0.12606,-0.115563 0.12606,-0.378207 V 59.77864 q 0,-0.262644 -0.12081,-0.372954 -0.11557,-0.110311 -0.38871,-0.110311 h -0.063 q -0.27315,0 -0.38871,0.110311 -0.11557,0.11031 -0.11557,0.372954 z"
             id="path2" />
        </g>
        <g
           id="g512"
           style="display:inline;fill:#ffffff;fill-opacity:0.995425">
          <rect
             style="opacity:1;fill:#ffffff;fill-opacity:0.995425;stroke:none;stroke-width:1.49657"
             id="rect511"
             width="3.8854933"
             height="1.1138372"
             x="152.86584"
             y="90.963867" />
          <path
             style="font-size:10.7579px;line-height:0.6;font-family:'Kung Fu Panda';-inkscape-font-specification:'Kung Fu Panda';text-align:center;text-anchor:middle;fill:#ffffff;fill-opacity:0.995425;stroke-width:0.449035"
             d="m 153.69248,127.92921 c -0.23877,0 -1.27178,0 -1.27178,0 0,0 0,0.20551 0,0.62678 l -1e-5,1.19275 h 1.72868 c -0.19491,-0.14527 -0.31917,-0.25613 -0.37277,-0.33259 -0.0561,-0.0765 -0.0841,-0.17798 -0.0841,-0.30456 l -6e-5,-0.14898 z"
             id="path511" />
          <rect
             style="opacity:1;fill:#ffffff;fill-opacity:0.995425;stroke:none;stroke-width:1.10956"
             id="rect512"
             width="2.8807161"
             height="0.82580221"
             x="155.85481"
             y="112.74251" />
        </g>
      </g>
    </g>
  </g>
</svg>
