<?xml version="1.0" encoding="UTF-8" standalone="no"?>
<!-- Created with Inkscape (http://www.inkscape.org/) -->

<svg
   width="75.86116mm"
   height="5.7996397mm"
   viewBox="0 0 75.861159 5.7996397"
   version="1.1"
   id="svg1"
   xmlns="http://www.w3.org/2000/svg"
   xmlns:svg="http://www.w3.org/2000/svg">
  <defs
     id="defs1" />
  <path
     id="path2393"
     d="M 3.2114841,4.6319599 V 4.2475969 2.3232533 1.9388904 H 1.3933459 1.0089829 v 0.7687258 0.3843629 h 0.9684936 v 0.384363 H 0.6296773 V 2.4041715 1.5519984 h 5.646596 V 2.4041717 3.4763421 H 4.9284738 V 3.0919791 H 5.8969677 V 2.7076162 1.9388901 H 5.5126047 3.6919378 v 0.384363 1.9243438 0.384363 H 10.10726 V 4.2475969 2.3232533 1.9388904 H 8.2891222 7.904759 v 0.7687258 0.3843629 h 0.971022 v 0.384363 H 7.5279821 V 2.4041715 1.5519984 h 5.6465959 v 0.8521733 1.0721704 h -1.347799 v -0.384363 h 0.971022 V 2.7076162 1.9388901 H 12.413438 10.5953 v 0.384363 1.9243438 0.384363 h 6.415322 V 4.2475969 2.3232533 1.9388904 H 15.192483 14.80812 v 0.7687258 0.3843629 h 0.968493 v 0.384363 H 14.428815 V 2.4041715 1.5519984 h 5.646595 v 0.8521733 1.0721704 h -1.347799 v -0.384363 h 0.971023 V 2.7076162 1.9388901 h -0.384363 -1.818139 v 0.384363 1.9243438 0.384363 h 6.415323 V 4.2475969 2.3232533 1.9388904 H 22.093316 21.69631 v 0.7687258 0.3843629 h 0.971023 v 0.384363 H 21.317005 V 2.4041715 1.5519984 h 5.646598 v 0.8521733 1.0721704 h -1.347799 v -0.384363 h 0.968494 V 2.7076162 1.9388901 h -0.386895 -1.818138 v 0.384363 1.9243438 0.384363 h 6.41532 V 4.2475969 2.3232533 1.9388904 h -1.818138 -0.384361 v 0.7687258 0.3843629 h 0.971022 v 0.384363 H 28.215307 V 2.4041715 1.5519984 h 5.646598 V 2.4041717 3.4763421 H 32.514104 V 3.0919791 H 33.4826 V 2.7076162 1.9388901 h -0.384363 -1.818139 v 0.384363 1.9243438 0.384363 h 6.415323 V 4.2475969 2.3232533 1.9388904 H 35.87728 35.492919 v 0.7687258 0.3843629 h 0.971023 v 0.384363 h -1.3478 V 2.4041715 1.5519984 h 5.646596 v 0.8521733 1.0721704 h -1.347799 v -0.384363 h 0.968494 V 2.7076162 1.9388901 h -0.384361 -1.81814 v 0.384363 1.9243438 0.384363 h 6.417853 V 4.2475969 2.3232533 1.9388904 h -1.818141 -0.38436 v 0.7687258 0.3843629 h 0.968493 v 0.384363 H 42.016978 V 2.4041715 1.5519984 h 5.646596 v 0.8521733 1.0721704 h -1.347799 v -0.384363 h 0.968494 V 2.7076162 1.9388901 H 46.899908 45.08177 v 0.384363 1.9243438 0.384363 h 6.402673 V 4.2475969 2.3232533 1.9388904 h -1.818138 -0.384363 v 0.7687258 0.3843629 h 0.971023 v 0.384363 h -1.3478 V 2.4041715 1.5519984 h 5.646596 v 0.8521733 1.0721704 h -1.347799 v -0.384363 h 0.97102 V 2.7076162 1.9388901 h -0.384361 -1.825724 v 0.384363 1.9243438 0.384363 h 6.415322 V 4.2475969 2.3232533 1.9388904 h -1.818138 -0.38436 v 0.7687258 0.3843629 h 0.971019 v 0.384363 H 55.800941 V 2.4041715 1.5519984 h 5.646596 v 0.8521733 1.0721704 h -1.347799 v -0.384363 h 0.97102 V 2.7076162 1.9388901 h -0.384363 -1.818136 v 0.384363 1.9243438 0.384363 h 6.415322 V 4.2475969 2.3232533 1.9388904 h -1.818138 -0.38436 v 0.7687258 0.3843629 h 0.971019 v 0.384363 H 62.704303 V 2.4041715 1.5519984 h 5.646596 V 2.4041717 3.4763421 H 67.0031 v -0.384363 h 0.97102 V 2.7076162 1.9388901 h -0.384363 -1.818136 v 0.384363 1.9243438 0.384363 h 6.415322 V 4.2475969 2.3232533 1.9388904 H 70.368805 69.96927 v 0.7687258 0.3843629 h 0.968493 v 0.384363 H 69.589964 V 2.4041715 1.5519984 h 5.646596 v 0.8521733 1.0721704 h -1.347799 v -0.384363 h 0.968494 V 2.7076162 1.9388901 h -0.386892 -1.818136 v 0.384363 1.9243438 0.384363 H 75.86115 V 4.2475969 H 73.036588 V 2.3232533 h 1.433775 V 2.7076162 H 73.88623 73.501869 v 0.7687259 0.3868918 h 2.101353 0.01517 V 3.0312902 2.4067004 1.5545271 1.1676354 h -6.41532 v 0.384363 0.8521733 0.6271186 0.8319436 h 0.01518 2.101356 v -0.384363 -0.768726 h -0.384363 -0.584133 v -0.384363 h 1.433775 v 1.921815 H 66.140819 V 2.3232533 h 1.433776 v 0.3843629 h -0.584134 -0.384363 v 0.7687259 0.3868918 h 2.101356 0.01517 V 3.0312902 2.4067004 1.5545271 1.1676354 h -6.415332 v 0.384363 0.8521733 0.6271186 0.8319436 h 0.01517 2.101356 v -0.384363 -0.768726 h -0.384363 -0.584133 v -0.384363 h 1.433775 v 1.921815 h -5.64659 V 2.3232533 h 1.433775 v 0.3843629 h -0.584133 -0.38436 v 0.7687259 0.3868918 h 2.101353 0.01517 V 3.0312902 2.4067004 1.5545271 1.1676354 h -6.41532 v 0.384363 0.8521733 0.6271186 0.8319436 h 0.01517 2.101355 v -0.384363 -0.768726 h -0.384363 -0.584133 v -0.384363 h 1.433775 v 1.921815 H 52.346739 V 2.3232533 h 1.433775 v 0.3843629 h -0.584133 -0.384363 v 0.7687259 0.3868918 h 2.101356 0.01517 V 3.0312902 2.4067004 1.5545271 1.1676354 h -6.415319 v 0.384363 0.8521733 0.6271186 0.8319436 h 0.01517 2.101351 v -0.384363 -0.768726 h -0.384361 -0.581614 v -0.384363 h 1.433775 v 1.921815 H 45.453484 V 2.3232533 H 46.88726 V 2.7076162 H 46.3006 45.916237 v 0.7687259 0.3868918 h 2.101353 0.01517 V 3.0312902 2.4067004 1.5545271 1.1676354 h -6.415319 v 0.384363 0.8521733 0.6271186 0.8319436 h 0.01517 2.101353 v -0.384363 -0.768726 h -0.384363 -0.584128 v -0.384363 h 1.433772 v 1.921815 H 38.552651 V 2.3232533 h 1.433773 v 0.3843629 h -0.584128 -0.384363 v 0.7687259 0.3868918 h 2.101353 0.01517 V 3.0312902 2.4067004 1.5545271 1.1676354 h -6.415322 v 0.384363 0.8521733 0.6271186 0.8319436 h 0.01517 2.101353 v -0.384363 -0.768726 h -0.384363 -0.58413 v -0.384363 h 1.433775 v 1.921815 H 31.659404 V 2.3232533 h 1.433775 v 0.3843629 h -0.58413 -0.384363 v 0.7687259 0.3868918 h 2.101353 0.01517 V 3.0312902 2.4067004 1.5545271 1.1676354 h -6.415322 v 0.384363 0.8521733 0.6271186 0.8319436 h 0.01517 2.101353 v -0.384363 -0.768726 h -0.38183 -0.584131 v -0.384363 h 1.433775 v 1.921815 H 24.763628 V 2.3232533 h 1.433775 v 0.3843629 h -0.58413 -0.384363 v 0.7687259 0.3868918 h 2.101355 0.01517 V 3.0312902 2.4067004 1.5545271 1.1676354 h -6.415322 v 0.384363 0.8521733 0.6271186 0.8319436 h 0.01517 2.101352 v -0.384363 -0.768726 h -0.384363 -0.58413 v -0.384363 h 1.433776 v 1.921815 H 17.867852 V 2.3232533 h 1.433775 v 0.3843629 h -0.58413 -0.384363 v 0.7687259 0.3868918 h 2.098824 0.01517 V 3.0312902 2.4067004 1.5545271 1.1676354 h -6.412793 v 0.384363 0.8521733 0.6271186 0.8319436 h 0.01517 2.101352 v -0.384363 -0.768726 h -0.384363 -0.58413 v -0.384363 h 1.433775 v 1.921815 H 10.969548 V 2.3232533 h 1.433775 v 0.3843629 h -0.584131 -0.384363 v 0.7687259 0.3868918 h 2.101353 0.01517 V 3.0312902 2.4067004 1.5545271 1.1676354 H 7.1385611 v 0.384363 0.8521733 0.6271186 0.8319436 h 0.015172 2.1013532 V 3.4788709 2.7101449 H 8.8707234 8.2865925 v -0.384363 h 1.4337754 v 1.921815 H 4.0737724 V 2.3232533 H 5.5075473 V 2.7076162 H 4.9234167 4.5390537 V 3.4763421 3.8632339 H 6.640407 6.6555792 V 3.0312902 2.4067004 1.5545271 1.1676354 H 0.24025688 v 0.384363 0.8521733 0.6271186 0.8319436 H 0.25542908 2.3567821 V 3.4788709 2.7101449 H 1.9749478 1.3908172 v -0.384363 h 1.4337752 v 1.921815 H 3.0000001e-5 v 0.384363 z"
     style="display:inline;fill:#930402;fill-opacity:1;fill-rule:nonzero;stroke:none;stroke-width:0.025287"
     clip-path="none" />
</svg>
