<?xml version="1.0" encoding="UTF-8" standalone="no"?>
<!-- Created with Inkscape (http://www.inkscape.org/) -->

<svg
   width="113.30745mm"
   height="113.96363mm"
   viewBox="0 0 113.30745 113.96363"
   version="1.1"
   id="svg1"
   sodipodi:docname="plain-logo.svg"
   inkscape:version="1.3.2 (091e20e, 2023-11-25)"
   inkscape:export-filename="plain-logo2.svg"
   inkscape:export-xdpi="96"
   inkscape:export-ydpi="96"
   xmlns:inkscape="http://www.inkscape.org/namespaces/inkscape"
   xmlns:sodipodi="http://sodipodi.sourceforge.net/DTD/sodipodi-0.dtd"
   xmlns="http://www.w3.org/2000/svg"
   xmlns:svg="http://www.w3.org/2000/svg">
  <sodipodi:namedview
     id="namedview1"
     pagecolor="#ffffff"
     bordercolor="#000000"
     borderopacity="0.25"
     inkscape:showpageshadow="2"
     inkscape:pageopacity="0.0"
     inkscape:pagecheckerboard="0"
     inkscape:deskcolor="#d1d1d1"
     inkscape:document-units="mm"
     inkscape:zoom="1.2399339"
     inkscape:cx="213.72107"
     inkscape:cy="215.7373"
     inkscape:window-width="1366"
     inkscape:window-height="693"
     inkscape:window-x="0"
     inkscape:window-y="35"
     inkscape:window-maximized="1"
     inkscape:current-layer="svg1" />
  <defs
     id="defs1" />
  <g
     id="g2"
     style="fill:#0d0d0d;fill-opacity:1"
     transform="translate(-23.25682,-21.729393)">
    <path
       id="path30"
       style="color:#000000;display:inline;fill:#0d0d0d;fill-opacity:1;fill-rule:evenodd;stroke:none;stroke-width:0.0192794;stroke-dasharray:none;stroke-opacity:1;-inkscape-stroke:none"
       d="M 81.952083,38.743689 C 59.441543,37.375712 40.042444,55.305311 38.666523,78.750349 37.292878,102.15677 54.399078,122.2779 76.854885,123.70543 l 2.120792,-3.12819 c -0.604979,-0.006 -1.212011,-0.0223 -1.822669,-0.0594 C 56.301573,119.25065 40.46212,100.65398 41.736629,78.936921 43.011131,57.219855 60.912994,40.674092 81.764429,41.941244 97.223489,42.880697 109.91857,53.348232 114.93281,67.54848 l 2.11345,-3.11661 C 111.15878,50.113836 97.900725,39.712893 81.952083,38.743689 Z m -0.231612,4.665656 c -0.941805,-0.05769 -1.886251,-0.07619 -2.830792,-0.0559 -7.487503,0.161944 -14.755305,2.728878 -20.816723,7.320404 -5.919851,4.484698 -10.471745,10.87654 -12.896584,18.063812 -1.849668,5.484499 -2.453311,11.423611 -1.781829,17.191224 -0.0076,0.135864 0.0045,0.27711 0.04794,0.42439 0.247021,1.937353 0.637677,3.853576 1.176137,5.724627 2.111487,7.335735 6.328756,13.849228 12.035919,18.665688 5.832698,4.92313 13.120399,7.79568 20.613494,8.26836 0.912632,0.0538 1.825351,0.0641 2.737613,0.0465 l 1.769638,-2.60962 c -0.870695,0.0611 -1.744283,0.0928 -2.620673,0.0878 1.760807,-1.64419 3.249902,-3.56124 4.41546,-5.67676 -0.987811,0.3795 -2.028035,0.22407 -2.737596,0.40732 l -4.43e-4,-2e-5 c -0.215441,0.0554 -0.452891,0.16266 -0.705706,0.28513 -1.237915,1.74833 -2.732357,3.29462 -4.447009,4.51127 -0.09899,0.0702 -0.178667,0.15822 -0.261255,0.24321 -1.067674,-0.12669 -2.127947,-0.28556 -3.140579,-0.51471 -0.287495,-0.065 -0.567053,-0.15589 -0.852357,-0.22853 1.025278,-0.84282 2.026853,-1.7162 2.973029,-2.65539 0.436732,-0.43349 0.896218,-0.88042 1.316605,-1.35422 -0.422101,-0.26465 -0.798717,-0.53378 -1.134012,-0.66712 -0.403084,-0.15847 -0.934059,-0.24152 -1.494384,-0.36239 -0.0032,-7.6e-4 -0.0078,-0.002 -0.01093,-0.003 -0.323375,0.32936 -0.641409,0.66434 -0.974966,0.98265 -1.14185,1.08931 -2.342282,2.10877 -3.589972,3.06296 -0.03014,0.0231 -0.05233,0.0529 -0.07926,0.0789 -1.587162,-0.56816 -3.126479,-1.25479 -4.610235,-2.05537 1.442515,-0.79843 2.809817,-1.74816 4.05789,-2.84623 0.679543,-0.59756 1.310321,-1.24735 1.927788,-1.91343 0.08737,-0.0942 0.165541,-0.19595 0.252063,-0.29096 -0.105436,-0.24467 -0.211179,-0.46819 -0.328242,-0.65146 -0.224249,-0.34936 -0.603769,-0.7238 -0.989617,-1.152 -0.08228,-0.0913 -0.164972,-0.18791 -0.2466,-0.28657 -0.783475,0.96088 -1.739936,1.8299 -2.65435,2.59934 -1.429347,1.20282 -3.016204,2.16075 -4.691927,2.93956 -0.930015,-0.61902 -1.84058,-1.2691 -2.708957,-1.98053 0.425693,-0.17334 0.849059,-0.35822 1.275175,-0.54987 1.144895,-0.51456 1.895483,-1.44143 2.29163,-2.67089 0.379021,-1.17662 0.420025,-2.40153 -0.08356,-3.54159 -0.506219,-1.14706 -1.479335,-1.99297 -2.492285,-2.637287 -1.906866,-1.213464 -3.788023,-2.371984 -5.523385,-3.851818 -3.326017,-2.835947 -6.079412,-6.400146 -8.080018,-10.358018 -0.02422,-0.04769 -0.05397,-0.08518 -0.08091,-0.12752 -0.297568,-2.737266 -0.261654,-5.52095 0.06213,-8.272154 0.999834,2.556684 2.203218,5.0232 3.65275,7.342202 1.672209,2.675261 3.63334,5.169523 5.662648,7.556876 2.487558,2.926743 5.318071,5.518573 8.576832,7.478587 1.40025,0.842002 2.892273,1.561532 4.235975,2.505912 0.09502,-0.39983 0.184306,-0.77891 0.203278,-1.10218 0.02555,-0.43536 -0.05895,-0.965342 -0.118982,-1.537681 -0.01556,-0.148657 -0.02905,-0.301811 -0.03709,-0.457967 -0.749344,-0.439228 -1.491752,-0.833018 -2.086431,-1.173776 -3.395354,-1.94641 -6.294783,-4.468327 -8.857252,-7.484062 C 55.879349,88.761511 54.772786,87.34434 53.683128,85.917889 52.837407,84.811391 52.142866,83.794 51.475687,82.695999 49.465373,79.38825 47.915341,75.788741 46.810456,72.048147 c -0.01201,-0.04193 -0.03892,-0.07497 -0.05409,-0.115249 0.388726,-1.486306 0.857438,-2.948256 1.42885,-4.364349 0.480154,2.014231 1.086253,3.995058 1.833155,5.92093 3.692549,9.518877 10.608427,17.583473 19.245707,22.49184 0.01781,-0.01583 0.03573,-0.03354 0.05352,-0.04903 0.433775,-0.37845 0.854318,-0.704546 1.115051,-1.023172 l 4.69e-4,-4.34e-4 c 0.201167,-0.245081 0.39179,-0.58561 0.593964,-0.947042 C 69.200685,92.967574 67.4479,91.822519 65.792009,90.540955 57.505248,84.127246 51.703548,74.365319 50.030655,63.743058 c 0.809251,-1.462408 1.711246,-2.85943 2.703301,-4.182803 0.193749,4.715909 1.436753,9.38373 3.716856,13.463291 0.348265,0.623083 1.070639,0.926965 1.719044,0.583775 0.591049,-0.312905 0.912427,-1.170543 0.56494,-1.792221 -2.587408,-4.629138 -3.762639,-9.984014 -3.426843,-15.331901 0.793573,-0.841706 1.629427,-1.637074 2.498772,-2.393201 -0.430632,2.781239 -0.387831,5.630758 0.07872,8.415346 0.770703,4.600785 2.698555,8.882296 5.238656,12.715131 0.280513,-0.422502 0.545981,-0.849041 0.788319,-1.28407 0.0879,-0.208667 0.395479,-1.189271 0.508405,-1.55554 -3.727096,-6.179939 -5.637352,-13.378345 -3.493258,-20.58103 0.01408,-0.04821 0.01868,-0.09275 0.02817,-0.139398 0.894793,-0.611625 1.8082,-1.195487 2.758526,-1.717672 0.154357,-0.08491 0.311563,-0.162406 0.467006,-0.244585 -2.227753,5.451047 -2.15965,11.90649 0.107556,17.309744 1.049364,2.500995 2.582592,4.793918 4.262234,6.880039 1.345057,1.66998 3.003999,3.066246 4.64898,4.400128 2.654764,2.15176 5.412873,4.167071 8.150753,6.200756 2.302807,1.710791 4.699911,3.325492 6.894459,5.18754 0.10218,0.08643 0.20322,0.174123 0.303995,0.262292 0.03596,0.03116 0.07146,0.06382 0.107207,0.09581 0.155183,0.143904 0.309037,0.289618 0.459304,0.43921 0.31314,0.311783 0.612867,0.638302 0.89766,0.978005 0.328043,0.391745 0.661234,0.843647 0.974526,1.288028 0.07291,0.0595 0.146476,0.117799 0.219237,0.177565 l 0.0055,0.0045 0.0058,0.0064 c 0.57287,0.487469 0.952671,1.179746 1.08791,1.91441 0.443627,0.788344 0.876812,1.626336 1.200453,2.449136 0.158015,0.401693 0.297757,0.814057 0.421622,1.232683 l 1.675272,-2.470079 c -0.613443,-1.489755 -1.405619,-2.903931 -2.301676,-4.242677 -1.091235,-1.630832 -2.307425,-3.041812 -3.794819,-4.293165 -2.232967,-1.878969 -4.660315,-3.518677 -6.995376,-5.25428 -2.731901,-2.031044 -5.486073,-4.041062 -8.129668,-6.196699 -0.475504,-0.3873 -0.946502,-0.781501 -1.409217,-1.185364 -0.117482,-0.102432 -0.234043,-0.205326 -0.350115,-0.309046 -0.0478,-0.0431 -0.249178,-0.22753 -0.101669,-0.09177 -0.184863,-0.169999 -0.368308,-0.341687 -0.548948,-0.51637 -0.652496,-0.63061 -1.271954,-1.297187 -1.830646,-2.020153 -0.430971,-0.557595 -0.84376,-1.117725 -1.238563,-1.686225 l -0.09772,-0.0758 0.02524,-0.0364 c -1.095983,-1.591992 -2.039964,-3.256933 -2.739265,-5.165427 -1.224527,-3.343448 -1.436351,-7.181077 -0.78096,-10.687082 0.240682,-1.288539 0.638058,-2.589265 1.144717,-3.807001 0.06162,-0.148489 0.125773,-0.296217 0.191255,-0.443165 0.01965,-0.04436 0.169771,-0.368014 0.121418,-0.267437 -0.05041,0.105459 0.09463,-0.189795 0.120291,-0.240672 0.05342,-0.104766 0.108036,-0.209686 0.163652,-0.313448 0.19285,-0.361747 0.398945,-0.71615 0.616717,-1.062248 0.01059,-0.0161 0.01471,-0.03115 0.02318,-0.04671 1.454097,-0.563777 2.938977,-1.019885 4.447936,-1.370726 -3.40042,3.708242 -4.902333,8.273546 -5.141786,13.640209 -0.0765,1.714438 2.4775,1.869209 2.553994,0.155207 0.243939,-5.460771 2.712624,-10.644032 6.734502,-14.16615 0.137645,-0.120583 0.222398,-0.241525 0.275679,-0.360308 1.087162,-0.100736 2.180226,-0.133634 3.275031,-0.12622 l 0.0013,5.41e-4 c -1.666631,1.42175 -3.007373,3.038037 -4.084663,4.823835 0.286819,-0.06798 0.57354,-0.102308 0.848376,-0.127491 0.569241,-0.05216 1.104557,-0.07154 1.52321,-0.181787 l 0.0014,-3.8e-4 0.0014,-3.81e-4 c 0.449277,-0.115712 0.979429,-0.445628 1.599681,-0.697623 1.042502,-1.271656 2.230901,-2.408041 3.552836,-3.346056 0.09849,-0.06988 0.177584,-0.157011 0.259819,-0.241445 0.221564,0.02686 0.443738,0.03533 0.665118,0.06587 1.121084,0.156388 2.230591,0.395942 3.332515,0.673036 -1.026533,0.84366 -2.029497,1.717686 -2.976733,2.657939 -0.287015,0.284915 -0.579043,0.586086 -0.868455,0.885946 0.244007,0.157348 0.474414,0.29869 0.686919,0.383182 0.4031,0.158476 0.933616,0.241494 1.493941,0.362364 0.19737,0.04264 0.400578,0.09624 0.603692,0.158827 0.129316,-0.126623 0.251562,-0.26084 0.38245,-0.385743 1.141843,-1.089302 2.342224,-2.108697 3.589971,-3.062969 0.03283,-0.02513 0.05661,-0.05755 0.08545,-0.08595 1.585706,0.565418 3.128874,1.252018 4.618311,2.054003 -1.447843,0.800128 -2.819882,1.75244 -4.072126,2.854159 -0.679508,0.597527 -1.310337,1.247352 -1.927788,1.91343 -0.0068,0.0063 -0.01209,0.01431 -0.01809,0.02064 0.03122,0.05716 0.06163,0.117656 0.09447,0.169057 l 4.15e-4,4.88e-4 c 0.224247,0.349379 0.603473,0.723521 0.989645,1.151539 0.187968,0.208322 0.380074,0.433888 0.548703,0.687073 0.721792,-0.820176 1.551292,-1.573216 2.351579,-2.246695 1.432818,-1.205658 3.023687,-2.165985 4.703841,-2.945774 0.0016,-7.09e-4 0.0032,-0.0017 0.0033,-0.0035 0.937619,0.623159 1.853672,1.279031 2.724992,1.994928 -0.39364,0.140362 -0.792877,0.312427 -1.307244,0.543751 -1.144895,0.514565 -1.895508,1.441873 -2.291656,2.67135 -0.379028,1.176691 -0.419999,2.40109 0.08358,3.541133 0.506228,1.147037 1.479309,1.993418 2.492258,2.637751 1.906872,1.213457 3.787992,2.371991 5.523382,3.851818 2.26497,1.931205 4.25637,4.205844 5.93331,6.706775 l 2.95041,-4.35146 c -0.1582,-0.49297 -0.32068,-0.984639 -0.49867,-1.471467 C 110.85739,60.49085 106.15899,54.321013 100.20666,50.02722 94.776453,46.110333 88.314419,43.813163 81.720913,43.409372 Z m -0.469025,7.197206 c -0.770605,-0.04628 -1.671756,0.666878 -2.845209,0.969385 -0.597465,0.157157 -1.186805,0.166259 -1.704993,0.213766 -0.518303,0.04755 -0.948924,0.133589 -1.249082,0.32475 -0.305052,0.19551 -0.556991,0.543278 -0.815591,0.991868 -0.258655,0.448695 -0.512649,0.982373 -0.906258,1.461964 l -2.7e-5,4.61e-4 c -0.391199,0.477837 -0.862528,0.824836 -1.253119,1.165607 -0.390779,0.340943 -0.685907,0.661988 -0.815835,0.996016 l -4.96e-4,8.95e-4 -5.5e-5,9.22e-4 c -0.12303,0.312817 -0.125006,0.733716 -0.07025,1.249983 0.05412,0.516221 0.161158,1.106667 0.123817,1.742934 -0.03724,0.634582 -0.212472,1.206463 -0.326595,1.712324 -0.114108,0.505871 -0.16192,0.924989 -0.07666,1.253294 l 3.89e-4,9.49e-4 -5.4e-5,9.22e-4 c 0.0902,0.348109 0.344752,0.702072 0.692217,1.087661 0.233152,0.258734 0.49462,0.540046 0.74736,0.844418 0.226147,-0.329149 0.446238,-0.660091 0.662369,-0.992388 -0.340952,-0.368387 -0.666434,-0.746565 -0.787016,-1.213249 -0.208088,-0.797068 0.258633,-1.689664 0.30917,-2.550784 0.05073,-0.864441 -0.308154,-1.806735 -0.0087,-2.569637 0.30774,-0.792299 1.219768,-1.235464 1.74493,-1.878277 0.531904,-0.649052 0.793077,-1.627318 1.498221,-2.079719 0.698419,-0.446154 1.691969,-0.275756 2.510681,-0.4919 0.792556,-0.204453 1.57273,-0.848699 2.433046,-0.796417 0.860324,0.05228 1.562963,0.783322 2.322607,1.08542 0.787815,0.310458 1.797324,0.261795 2.438404,0.792658 0.647222,0.534579 0.792567,1.537537 1.244778,2.246411 0.44942,0.702048 1.299441,1.252267 1.515507,2.076415 0.205127,0.793564 -0.258411,1.685883 -0.309143,2.550324 -0.05073,0.86444 0.308346,1.807212 0.0086,2.570097 -0.307749,0.792324 -1.219309,1.235476 -1.744488,1.878304 -0.531904,0.649061 -0.793493,1.626829 -1.498637,2.079231 -0.152873,0.09836 -0.321021,0.165023 -0.496837,0.215476 l 1.021506,0.790292 -0.02547,0.237181 c 0.124088,-0.03844 0.237795,-0.08478 0.334218,-0.146707 l 4.42e-4,2.7e-5 2.7e-5,-4.61e-4 c 0.305202,-0.195468 0.557327,-0.543081 0.816034,-0.99184 0.258549,-0.448542 0.512465,-0.982554 0.905815,-1.461992 0.391276,-0.478184 0.863299,-0.825564 1.254059,-1.166475 0.390795,-0.340942 0.685438,-0.661555 0.815365,-0.995582 l 5.24e-4,-0.0014 4.96e-4,-8.95e-4 c 0.123039,-0.312817 0.124696,-0.733735 0.07025,-1.249983 -0.05412,-0.51622 -0.161173,-1.106684 -0.123817,-1.742934 0.0373,-0.635483 0.211157,-1.208841 0.324987,-1.715198 0.113626,-0.505875 0.161404,-0.924673 0.07653,-1.250988 -0.09209,-0.348851 -0.34752,-0.70335 -0.695261,-1.088772 -0.348125,-0.385847 -0.775718,-0.787529 -1.109712,-1.308272 l 2.7e-5,-4.61e-4 -4.16e-4,-4.88e-4 c -0.334669,-0.523793 -0.524437,-1.084881 -0.728803,-1.56179 -0.204358,-0.4769 -0.414016,-0.853039 -0.694204,-1.084081 l 2.7e-5,-4.61e-4 -4.43e-4,-2.7e-5 C 86.561401,52.57773 86.143492,52.4397 85.633748,52.329758 85.124018,52.219734 84.53908,52.13997 83.963942,51.913679 l -8.85e-4,-5.3e-5 -4.16e-4,-4.88e-4 c -1.122686,-0.44583 -1.937998,-1.259063 -2.71031,-1.306533 l -4.42e-4,-2.7e-5 z m 21.537234,4.828224 4.4e-4,2.6e-5 c 4.04257,3.991799 7.08507,8.949535 8.85863,14.40913 -0.0208,-0.02722 -0.0369,-0.05493 -0.0578,-0.08216 -2.54716,-3.275557 -5.6718,-6.109114 -9.14827,-8.270213 -0.8537,-0.530688 -1.84167,-0.976048 -2.556014,-1.710306 -0.591268,-0.6082 -0.768396,-1.316015 -0.596669,-1.989116 0.109585,-0.428806 0.196824,-0.709659 0.441482,-1.035884 0.02847,-0.03846 0.203639,-0.202923 0.128258,-0.15691 0.173463,-0.105685 0.358363,-0.180392 0.542283,-0.263143 0.73147,-0.329077 1.64571,-0.81902 2.38768,-0.90142 z m -23.035388,-1.311503 -0.928331,0.203134 0.741723,3.725939 0.92833,-0.203134 z m 2.966032,0.181173 -1.188747,3.603534 0.896404,0.318187 1.188747,-3.603535 z m 40.091256,3.265896 -28.646999,42.247197 -21.58253,31.829152 c 0.556028,0.0521 1.112904,0.0943 1.670365,0.12649 L 124.88992,62.286217 c -0.61552,-1.607982 -1.30954,-3.182006 -2.07934,-4.715876 z m -46.694548,-1.213271 -0.710169,0.656373 2.422848,2.84404 0.709699,-0.65594 z m 9.553718,0.581971 -2.737815,2.530424 0.627912,0.737689 2.738284,-2.530858 z m 5.215343,3.499525 c -0.02844,0.155865 -0.05178,0.306978 -0.06002,0.447439 -0.02555,0.43537 0.05898,0.965338 0.118981,1.537685 0.03972,0.378074 0.06812,0.784118 0.01228,1.198555 0.757108,0.445176 1.505815,0.840919 2.10664,1.185182 3.395357,1.94636 6.294835,4.468808 8.857226,7.484523 1.16021,1.36554 2.2668,2.782251 3.35646,4.208694 0.68544,0.896819 1.2618,1.742628 1.81452,2.612757 l 1.56591,-2.309707 c -1.47569,-2.19622 -3.11869,-4.280784 -4.82056,-6.28291 -2.48751,-2.926826 -5.318041,-5.519101 -8.576806,-7.479049 -1.448491,-0.871009 -2.996263,-1.608705 -4.374636,-2.603169 z m -13.070328,-0.101235 -1.155904,1.068344 0.775864,0.600944 1.007951,-0.931599 z m 5.731136,0.349671 -0.7097,0.65594 2.422379,2.844473 0.710142,-0.655912 z m -4.59827,1.631317 -0.22582,0.683957 0.797572,0.617069 0.324208,-0.982866 z m 2.86027,0.174282 -0.928304,0.202672 0.465206,2.336908 0.0255,0.01959 1.119669,0.866118 z m -12.178912,1.891452 c -0.230415,-0.01305 -0.448681,0.03419 -0.655134,0.142472 -0.09045,0.06434 -0.180268,0.128394 -0.270727,0.192667 -0.131399,0.11293 -0.228198,0.249943 -0.289359,0.411757 -0.0891,0.153686 -0.135681,0.322463 -0.139858,0.50597 -0.01716,0.182727 0.0092,0.355868 0.07971,0.518852 0.04176,0.168001 0.121843,0.315906 0.239118,0.444335 0.07013,0.0818 0.139741,0.164073 0.209425,0.246367 0.14989,0.174231 0.331187,0.299563 0.543867,0.375876 0.112462,0.02358 0.224645,0.04523 0.336713,0.06812 0.230831,0.01309 0.448698,-0.03421 0.655134,-0.142473 0.08994,-0.06387 0.180671,-0.127864 0.270673,-0.191745 0.131899,-0.113227 0.228242,-0.250882 0.28897,-0.412706 0.08956,-0.153323 0.136352,-0.321488 0.14069,-0.504994 0.01716,-0.182726 -0.0096,-0.35591 -0.08057,-0.519366 -0.04144,-0.167982 -0.121021,-0.31631 -0.238675,-0.444309 -0.06962,-0.08227 -0.13975,-0.164078 -0.209894,-0.245932 -0.14959,-0.174555 -0.330242,-0.300448 -0.543371,-0.376772 -0.111981,-0.02355 -0.224229,-0.04521 -0.336713,-0.06812 z m 19.534173,1.764489 c -0.245641,0.210793 -0.472276,0.413831 -0.631865,0.608852 l -4.69e-4,4.34e-4 c -0.266731,0.324935 -0.505219,0.799412 -0.792699,1.298147 -0.04296,0.07443 -0.09095,0.150231 -0.137184,0.225765 1.947005,1.03257 3.810803,2.238044 5.56634,3.596731 4.255308,3.293453 7.834775,7.481102 10.553865,12.204439 l 1.62129,-2.390544 C 101.34247,75.181518 95.736389,69.755196 89.163162,66.148542 Z m 38.033958,3.904251 -52.342908,61.765817 c 0.659335,0.064 1.319899,0.11399 1.981266,0.15001 L 128.05648,75.513425 c -0.19112,-1.835352 -0.47799,-3.65828 -0.85936,-5.460632 z m -7.91826,1.49433 -2.49772,3.427294 c 0.26652,1.770587 0.42323,3.57714 0.45393,5.412862 l 2.89745,-3.418732 c -0.17153,-1.842104 -0.46115,-3.651119 -0.85366,-5.421424 z M 85.867793,69.777657 c -0.139151,0.04756 -0.277843,0.06569 -0.416967,0.09587 l -0.08624,0.803476 1.067561,-0.471338 c -0.190277,-0.139602 -0.372186,-0.291232 -0.56435,-0.428013 z m 29.705997,6.854172 -2.18705,3.000638 c 0.0657,1.849261 -0.002,3.701169 -0.2065,5.539745 l 2.63876,-3.113371 c 0.0419,-1.813146 -0.0413,-3.626971 -0.24521,-5.427012 z M 60.600008,75.759304 c -1.646471,-0.100057 -1.799987,2.560581 -0.156136,2.66048 0.167314,0.01017 0.308405,-0.02515 0.444558,-0.06644 0.2886,-0.407148 0.577649,-0.802972 0.866356,-1.198364 0.03467,-0.662226 -0.336939,-1.345975 -1.154778,-1.395676 z m 51.054272,6.250475 -1.73392,2.379536 c 0.46091,1.023667 0.89558,2.060311 1.28161,3.117512 l 1.88994,-2.229871 c -0.43758,-1.108901 -0.92024,-2.197137 -1.43763,-3.267177 z m -12.884908,2.060442 -0.470859,0.658425 -0.739491,1.034892 -0.180497,0.252281 c 0.178166,0.34572 0.490016,0.615033 0.981619,0.644909 1.548709,0.09412 1.755716,-2.228148 0.409228,-2.590507 z m 21.319388,1.591685 -3.77144,4.156755 c -3.0655,14.201139 -13.40873,25.332699 -26.532601,29.244219 l -3.762429,4.14713 c 17.84053,-3.06565 32.08579,-18.24601 34.06647,-37.548104 z m -11.99845,1.238512 -1.78172,2.444641 c 0.36688,0.901626 0.70693,1.815122 1.01226,2.741662 l 1.93198,-2.280059 c -0.10269,-0.29139 -0.19474,-0.57563 -0.31186,-0.877635 -0.26562,-0.684707 -0.55228,-1.359647 -0.85066,-2.028609 z m -11.94439,0.839751 -1.624578,2.272368 c 0.846019,1.39773 1.610016,2.84133 2.238895,4.336019 l 1.698131,-2.503851 C 97.784185,90.42215 96.990594,89.063419 96.14592,87.740169 Z M 69.400412,87.421366 c -0.529791,0.507465 -1.197175,0.696009 -1.819247,0.669476 l 0.79261,0.719558 z m 44.872338,4.650617 c -8e-5,2.8e-4 2e-5,6.43e-4 -6e-5,9.22e-4 l 5e-4,-8.95e-4 z m -6e-5,9.22e-4 -5.45266,6.009294 c 0.0357,0.206451 0.0802,0.410887 0.11254,0.618003 -0.93535,1.696508 -2.00542,3.314048 -3.19984,4.832268 0.0171,-0.68922 0.0127,-1.3674 -0.007,-2.03887 l -2.027,2.23403 c 0.0109,0.7449 -2.1e-4,1.49114 -0.0478,2.23772 -0.96469,1.02218 -1.99501,1.97042 -3.06777,2.86199 0.19684,-0.75649 0.36015,-1.48426 0.48636,-2.20182 l -2.791644,3.07679 c -0.07664,0.30576 -0.155197,0.61151 -0.246176,0.91728 -0.01792,0.0587 -0.0092,0.0971 -0.02041,0.15097 -0.17647,0.11991 -0.344727,0.2541 -0.523244,0.37025 -0.368589,0.23985 -0.749814,0.45124 -1.126493,0.67318 l -4.478151,4.93594 c 4.030304,-1.54172 7.808947,-3.80382 11.090318,-6.70072 5.32256,-4.69863 9.2938,-11.02003 11.29939,-17.976278 z m -10.29418,0.469518 -1.80883,2.482781 c 0.25986,0.764506 0.4993,1.536074 0.69403,2.320741 l 1.94292,-2.292348 c -0.22741,-0.844232 -0.50717,-1.679814 -0.82812,-2.511174 z m -30.79824,0.645672 c -0.04269,0.02075 -0.102712,0.02871 -0.140815,0.05298 -0.305027,0.195495 -0.557015,0.543276 -0.815591,0.991867 -0.0485,0.08397 -0.101724,0.180291 -0.150848,0.26935 -0.08604,0.156383 -0.177923,0.318909 -0.273002,0.481224 -0.140257,0.239062 -0.293623,0.481422 -0.481938,0.710956 l -4.43e-4,-2.7e-5 c -0.183754,0.224553 -0.386442,0.41644 -0.588921,0.596195 -0.11788,0.104374 -0.236457,0.208407 -0.352874,0.305651 -0.104835,0.08758 -0.214592,0.179812 -0.311821,0.264657 -0.390778,0.340919 -0.685439,0.661579 -0.815365,0.995582 l -5.24e-4,0.0014 -4.97e-4,8.95e-4 c -0.123038,0.3128 -0.124684,0.733759 -0.07025,1.249982 0.01526,0.145457 0.03528,0.309314 0.05439,0.465958 l -4.43e-4,-2.7e-5 c 0.01717,0.140381 0.03112,0.28751 0.04472,0.433912 0.02464,0.27055 0.04188,0.55038 0.02471,0.84307 -0.01862,0.3173 -0.07133,0.61866 -0.133912,0.90421 l -2.7e-5,4.6e-4 c -0.06257,0.28535 -0.135087,0.55488 -0.192213,0.80768 -0.01093,0.0492 -0.01841,0.0936 -0.02828,0.14124 0.0015,0.002 0.0031,0.004 0.0046,0.005 -0.08894,0.43615 -0.129406,0.81345 -0.05387,1.1071 l -2.7e-5,4.6e-4 3.88e-4,9.5e-4 c 0.05281,0.20424 0.174589,0.41286 0.326162,0.62636 -6.19e-4,9.7e-4 -0.001,0.003 -0.0015,0.003 0.07563,0.1059 0.16997,0.21638 0.262918,0.32642 0.03823,0.0445 0.06332,0.0859 0.104239,0.13125 0.347465,0.38559 0.774828,0.78743 1.108827,1.30822 l 3.88e-4,9.5e-4 c 0.334797,0.52392 0.524907,1.08444 0.729273,1.56135 0.204366,0.47688 0.413601,0.85348 0.693734,1.08452 l 4.16e-4,4.9e-4 4.43e-4,2e-5 c 0.275331,0.22764 0.69281,0.36609 1.202529,0.47605 0.238026,0.0513 0.494639,0.0972 0.756823,0.15333 0.293267,0.0627 0.594209,0.14045 0.894663,0.25701 0.0063,0.002 0.01276,0.002 0.01843,0.004 l 4.43e-4,2e-5 4.43e-4,3e-5 4.42e-4,3e-5 4.16e-4,4.9e-4 4.43e-4,2e-5 c 1.122843,0.44604 1.93831,1.26008 2.710725,1.30702 0.77099,0.0469 1.672653,-0.66775 2.847034,-0.9702 0.245445,-0.0635 0.485729,-0.0986 0.723336,-0.13138 0.558031,-0.0768 1.079043,-0.10854 1.511513,-0.17926 0.06722,-0.011 0.140742,-0.0201 0.203218,-0.0339 0.197011,-0.0441 0.375531,-0.10161 0.517254,-0.19249 l 4.43e-4,3e-5 4.69e-4,-4.4e-4 4.43e-4,3e-5 c 0.305171,-0.19548 0.557371,-0.54355 0.816061,-0.9923 0.256131,-0.44434 0.508112,-0.9719 0.895211,-1.44783 0.0035,-0.005 0.0051,-0.01 0.01019,-0.0147 l 4.42e-4,3e-5 c 0.391304,-0.47814 0.862863,-0.8256 1.253616,-1.16651 0.390761,-0.34085 0.685439,-0.66157 0.815365,-0.99558 l 4.97e-4,-8.9e-4 4.97e-4,-9e-4 c 0.123037,-0.3128 0.124687,-0.73375 0.07025,-1.24998 -0.05413,-0.51618 -0.160738,-1.10624 -0.123401,-1.74245 0.0373,-0.63549 0.211334,-1.20884 0.324987,-1.71519 0.0264,-0.11755 0.03415,-0.21426 0.05222,-0.322078 -0.535356,-0.188049 -1.008689,-0.445329 -1.445631,-0.731401 0.01248,0.03618 0.03863,0.06653 0.04855,0.103809 0.20429,0.77932 -0.255742,1.65555 -0.305552,2.50428 -0.04981,0.84873 0.30772,1.77417 0.01052,2.52302 -0.305172,0.77774 -1.210949,1.21216 -1.732198,1.84296 -0.527948,0.63686 -0.786453,1.59739 -1.486626,2.0411 -0.693656,0.44077 -1.681051,0.27295 -2.497168,0.48116 -0.78716,0.2002 -1.561503,0.83179 -2.416083,0.77986 -0.854644,-0.0519 -1.553338,-0.76981 -2.308143,-1.06696 -0.7828,-0.30538 -1.785514,-0.25851 -2.422702,-0.78013 -0.643302,-0.52533 -0.788064,-1.5104 -1.237783,-2.20667 -0.446916,-0.68963 -1.29187,-1.23045 -1.503895,-2.03962 -0.207271,-0.78278 0.255464,-1.65836 0.305082,-2.50384 0.04981,-0.84874 -0.307333,-1.774629 -0.01005,-2.523458 0.305173,-0.777735 1.210506,-1.212198 1.731755,-1.84299 0.527951,-0.636924 0.786854,-1.596925 1.487042,-2.04061 0.191914,-0.1211 0.410052,-0.188204 0.636362,-0.23892 -0.30109,-0.215168 -0.572682,-0.440088 -0.814729,-0.642632 l 0.02454,0.02092 z M 47.350433,92.632079 c 0.0074,0.0088 0.01344,0.01751 0.01978,0.02618 2.547152,3.275628 5.671829,6.109079 9.148272,8.270221 0.853699,0.53068 1.841664,0.97606 2.556016,1.7103 0.591252,0.6082 0.768396,1.31601 0.596669,1.98912 -0.109746,0.42881 -0.197309,0.70964 -0.441925,1.03585 -0.02847,0.0385 -0.202686,0.20292 -0.127372,0.15697 -0.173449,0.10568 -0.358368,0.18084 -0.542306,0.2636 -0.725551,0.32638 -1.630475,0.80852 -2.369207,0.897 -0.544438,-0.53363 -1.080231,-1.07875 -1.590659,-1.65118 -3.265211,-3.6615 -5.715257,-8.001511 -7.249273,-12.698066 z m 31.064391,2.070542 c -0.599583,0.07305 -1.158832,0.471235 -1.723301,0.61655 -0.66557,0.175351 -1.473743,0.03725 -2.041483,0.399198 -0.573229,0.367118 -0.785642,1.161039 -1.21802,1.687762 -0.426896,0.521672 -1.167983,0.8813 -1.418095,1.524315 -0.243604,0.619135 0.04851,1.384054 0.0073,2.085624 -0.04102,0.69889 -0.420362,1.423 -0.251187,2.06991 0.173152,0.66875 0.864747,1.1155 1.23018,1.68525 0.3677,0.57536 0.485341,1.38887 1.011552,1.82279 0.521217,0.43091 1.341967,0.39216 1.98247,0.6442 0.61753,0.24524 1.189212,0.83841 1.88862,0.88092 0.699415,0.0425 1.333481,-0.48009 1.977783,-0.64596 0.667992,-0.17252 1.475817,-0.0348 2.043723,-0.39952 0.573229,-0.36712 0.785615,-1.16059 1.217993,-1.68731 0.426892,-0.52154 1.167984,-0.88129 1.418095,-1.52431 0.243605,-0.61914 -0.04795,-1.38401 -0.0069,-2.08559 0.04117,-0.70157 0.417544,-1.42585 0.250744,-2.069941 -0.151031,-0.574855 -0.67285,-0.989255 -1.051344,-1.455087 l -1.427679,1.997948 -5.042485,-3.901703 0.489608,-0.705401 c 0.218864,-0.316034 0.440386,-0.62856 0.662383,-0.939645 z m 22.079876,2.621037 -1.997207,2.740602 c 0.127994,0.68712 0.236975,1.37768 0.305634,2.07367 l 2.193043,-2.588049 c -0.13625,-0.751136 -0.3071,-1.492505 -0.50147,-2.226223 z m -9.753376,3.350012 c -0.638508,-0.0388 -1.295959,0.35087 -1.334226,1.20787 -0.06552,1.46708 -0.303934,2.91028 -0.677638,4.31053 l 3.162886,-4.66426 c -0.172753,-0.53116 -0.654082,-0.82399 -1.151022,-0.85414 z m 6.161907,1.57782 -2.82528,3.87698 c -0.205859,0.8611 -0.461847,1.70849 -0.794874,2.52358 l 3.505515,-4.13683 c 0.08502,-0.74722 0.122723,-1.50277 0.114639,-2.26373 z m -9.414576,13.23759 c -0.09648,0.0246 -0.192554,0.0505 -0.288389,0.0773 l -1.369164,1.8789 z"
       transform="matrix(1.1633281,-0.06787805,0.06827218,1.1169597,-17.562897,-6.4962093)" />
    <g
       id="g1"
       transform="matrix(0.79485318,0,0,0.79485318,-53.116651,26.645116)"
       style="display:inline;fill:#0d0d0d;fill-opacity:1;stroke-width:3.14524;stroke-dasharray:none">
      <g
         id="text7"
         style="font-size:15.8664px;line-height:1.1;font-family:'Gang of Three';-inkscape-font-specification:'Gang of Three';text-align:center;letter-spacing:0px;word-spacing:0px;text-anchor:middle;display:inline;stroke-width:1.97642"
         transform="matrix(1.0524854,0.68925675,-0.68925675,1.0524854,66.825739,-33.52206)"
         aria-label="imeusp">
        <path
           style="font-family:'Kung Fu Panda';-inkscape-font-specification:'Kung Fu Panda'"
           d="m 93.658099,7.3094649 h 6.112592 V 18.132395 h -5.430833 v -7.189463 q 0,-2.3009375 -0.681759,-3.6334671 z m 7.778251,0 h 5.45408 l 2.04528,3.4940171 2.05302,-3.4940171 h 4.91177 V 18.132395 h -4.91177 l 0.0155,-4.772316 -2.06852,3.594731 -2.04528,-3.594731 v 4.772316 h -4.90402 v -8.111387 q 0,-1.4409916 -0.55006,-2.7115431 z m 15.96712,0 h 11.79134 v 3.6644561 q -1.06138,-0.65077 -1.94457,-0.82121 -0.77472,-0.154945 -2.20022,-0.147198 -0.19368,0 -0.39511,0 h -1.07687 v 1.510717 h 4.3772 v 2.378411 h -4.3772 v 1.541705 h 1.07687 q 0.32538,0 0.61203,0 0.2789,0 0.54231,0 0.51132,-0.0077 0.92192,-0.04648 0.41061,-0.03874 0.79797,-0.139451 0.38737,-0.108462 0.78248,-0.294396 0.39511,-0.185934 0.88319,-0.488078 v 3.664457 h -11.07859 v -7.220452 q 0,-2.6185754 -0.71275,-3.6024781 z"
           id="path1" />
        <path
           style="font-family:'Kung Fu Panda';-inkscape-font-specification:'Kung Fu Panda'"
           d="m 91.798755,25.178882 h 5.756218 v 7.42188 q 0,0.402858 0.162693,0.550056 0.162692,0.147198 0.573297,0.162692 0.0155,0 0.03099,0 0.340879,0 0.48033,-0.185934 0.139451,-0.201429 0.139451,-0.627528 v -5.012481 q 0,-1.348024 -0.364122,-2.308685 h 5.709738 v 8.514244 q 0,0.51132 -0.1472,0.906431 -0.13945,0.387363 -0.48808,0.720495 -0.34088,0.325385 -0.9839,0.503572 -0.64302,0.17044 -1.5727,0.17044 h -6.25204 q -0.588792,0 -1.061375,-0.123956 -0.472583,-0.131703 -0.766979,-0.333132 -0.294396,-0.209177 -0.495825,-0.480331 -0.193682,-0.271154 -0.278902,-0.534561 -0.07747,-0.271154 -0.07747,-0.542309 v -6.492208 q 0,-1.270552 -0.364121,-2.308685 z m 14.386675,10.815182 v -3.664456 q 0.99939,0.612034 1.76637,0.790221 0.77473,0.178187 1.96006,0.178187 h 1.15434 q 0.43385,0 0.58105,-0.131704 0.15494,-0.131703 0.15494,-0.457088 0,-0.309891 -0.15494,-0.4261 -0.1472,-0.116209 -0.705,-0.25566 l -2.39391,-0.557803 q -0.44159,-0.108461 -0.82121,-0.294396 -0.37961,-0.185934 -0.72049,-0.472583 -0.34088,-0.286649 -0.53456,-0.720496 -0.19369,-0.441594 -0.19369,-0.983902 v -0.999398 q 0,-1.231815 0.77473,-2.029783 0.78247,-0.797969 2.19248,-0.797969 h 8.10364 v 3.664457 q -1.04588,-0.604287 -1.83611,-0.782474 -0.78247,-0.185934 -1.9833,-0.185934 h -1.1311 q -0.40285,0 -0.55005,0.116209 -0.1472,0.108462 -0.1472,0.441594 0,0.325385 0.17819,0.457089 0.18593,0.131703 0.77472,0.22467 l 3.01369,0.51132 q 1.85934,0.333132 1.85934,2.362916 v 1.518464 q 0,0.534561 -0.17818,0.968408 -0.17819,0.433847 -0.47259,0.712748 -0.29439,0.278902 -0.68176,0.472584 -0.37961,0.185934 -0.77472,0.263407 -0.39511,0.07747 -0.79797,0.07747 z m 12.63579,-10.82293 h 9.79254 q 0.44159,0 0.8522,0.07747 0.41835,0.06973 0.82896,0.247913 0.4106,0.178187 0.71275,0.457088 0.30214,0.271155 0.48807,0.712749 0.19368,0.433847 0.19368,0.983902 v 1.998795 q 0,0.674012 -0.15494,1.154342 -0.15495,0.472584 -0.51907,0.828958 -0.36412,0.356374 -1.00714,0.526814 -0.63528,0.17044 -1.5727,0.17044 h -3.56374 v 3.664456 h -5.36885 v -7.173968 q 0,-1.154342 -0.13946,-2.014289 -0.1317,-0.867693 -0.5423,-1.634673 z m 6.05061,4.64836 h 0.69725 q 0.68176,0 0.68176,-0.666265 v -0.759232 q 0,-0.441594 -0.19368,-0.581045 -0.18593,-0.147198 -0.72824,-0.147198 h -0.45709 z"
           id="path2" />
      </g>
      <g
         id="g3"
         style="display:inline;fill:#0d0d0d;fill-opacity:1;stroke-width:3.23965;stroke-dasharray:none"
         transform="matrix(0.97085509,0,0,0.97085509,-222.99839,-71.089102)">
        <path
           d="m 436.92038,200.52619 -1.59491,-2.41718 4.8447,-3.19666 q 1.28882,-0.8504 2.19516,-0.83921 0.91152,0.008 1.43747,0.80486 l 0.41324,0.6263 q 0.18784,0.28467 0.26751,0.52928 0.0797,0.24461 0.044,0.50587 -0.0356,0.26125 -0.10191,0.45357 -0.0645,0.18372 -0.21402,0.52012 l -1.48236,3.21436 3.32815,-2.19601 1.3217,2.0031 -7.27224,4.79842 -1.48905,-2.25672 q -0.26297,-0.39855 -0.26116,-0.77864 0.004,-0.38869 0.21903,-0.85032 l 1.61063,-3.4253 q 0.12331,-0.25224 0.0482,-0.36611 -0.11271,-0.17081 -0.47503,0.0683 l -0.52794,0.34835 q -0.68841,0.45423 -0.96988,0.69196 -0.27972,0.22914 -0.56007,0.59243 -0.28377,0.35811 -0.78124,1.16927 z m 10.26139,-2.31363 -3.09917,-3.47614 q -0.39204,-0.43972 -0.41507,-1.03397 -0.0184,-0.59838 0.30667,-1.21221 0.32094,-0.61845 0.92267,-1.15492 l 3.16601,-2.82269 q 0.60173,-0.53647 1.25281,-0.78463 0.64696,-0.25279 1.23468,-0.162 0.59236,0.0867 0.9844,0.52639 l 3.09917,3.47614 q 0.25173,0.28235 0.36036,0.6092 0.10863,0.32685 0.0725,0.6498 -0.0402,0.31831 -0.16384,0.63624 -0.12364,0.31793 -0.33483,0.63083 -0.21069,0.30416 -0.44101,0.56765 -0.23445,0.25887 -0.49828,0.4941 l -2.81424,2.50905 q -0.31475,0.28061 -0.65738,0.51132 -0.34676,0.22608 -0.75592,0.39148 -0.40454,0.16127 -0.78041,0.20561 -0.37999,0.0397 -0.76333,-0.0921 -0.38284,-0.14053 -0.67584,-0.46917 z m 2.8743,-3.32693 q 0.19396,0.21755 0.3902,0.24198 0.19212,0.0198 0.44207,-0.20305 l 0.0555,-0.0495 q 0.24995,-0.22284 0.26512,-0.41083 0.0157,-0.19675 -0.19479,-0.43281 l -2.35636,-2.64297 q -0.21047,-0.23607 -0.40359,-0.23835 -0.19725,-0.007 -0.44257,0.2118 l -0.0555,0.0495 q -0.23606,0.21046 -0.24348,0.41646 -0.007,0.19725 0.18704,0.4148 z m 2.4867,-6.61328 -2.21906,-1.86072 3.72941,-4.44763 q 0.99212,-1.18318 1.86388,-1.43142 0.87574,-0.25299 1.60751,0.36061 l 0.57496,0.48212 q 0.26134,0.21914 0.40758,0.43079 0.14624,0.21164 0.18674,0.47219 0.0405,0.26055 0.0319,0.46378 -0.009,0.1945 -0.0565,0.55959 l -0.50216,3.5039 2.56197,-3.05537 1.83893,1.54197 -5.59811,6.67619 -2.07175,-1.73721 q -0.36589,-0.3068 -0.47275,-0.67156 -0.10764,-0.3735 -0.0331,-0.87745 l 0.56483,-3.7427 q 0.0461,-0.27696 -0.0584,-0.36461 -0.15681,-0.13149 -0.43572,0.20113 l -0.40641,0.48468 q -0.52993,0.63198 -0.73175,0.94022 -0.20258,0.29951 -0.36745,0.72776 -0.16962,0.42426 -0.41459,1.34374 z m 9.50478,-4.65161 -1.97404,-1.22917 -1.77043,-6.41316 2.33705,-3.7533 4.32709,2.69432 0.57688,-0.92648 1.77401,1.10461 -0.57689,0.92648 1.25285,0.78011 -2.33705,3.75331 -1.22653,-0.76373 z m -0.20733,-3.67935 0.78995,-1.26865 -1.50027,-0.93417 z"
           id="text1315-6"
           style="font-size:12.7px;font-family:'Kung Fu Panda';-inkscape-font-specification:'Kung Fu Panda';text-align:center;letter-spacing:0px;text-anchor:middle;white-space:pre"
           transform="translate(-1.2166667e-5)"
           aria-label="2024" />
      </g>
      <g
         id="g4"
         style="display:inline;fill:#0d0d0d;fill-opacity:1;stroke-width:3.25594;stroke-dasharray:none"
         transform="matrix(0.96599966,0,0,0.96599966,-224.73526,-75.200921)">
        <path
           d="m 354.58554,189.97739 -3.78539,2.76568 q -0.4907,0.35852 -1.10267,0.29876 -0.61564,-0.0648 -1.21198,-0.48154 -0.59634,-0.41677 -1.09753,-1.10275 l -3.42418,-4.68667 2.36837,-1.73038 q 0.225,1.14889 0.44409,1.68001 0.21409,0.53478 0.75918,1.28084 l 0.42802,0.58584 q 0.20486,0.2804 0.44018,0.30815 0.23031,0.0314 0.51071,-0.17345 l 2.39841,-1.75233 q 0.28541,-0.20853 0.32914,-0.43248 0.0401,-0.22896 -0.16845,-0.51436 l -0.0695,-0.0951 q -0.44632,-0.61087 -0.6612,-0.88395 -0.21488,-0.27308 -0.53971,-0.58103 -0.32483,-0.30795 -0.65584,-0.51923 -0.33466,-0.21629 -0.9468,-0.56008 l 2.35836,-1.72306 3.42417,4.68667 q 0.23048,0.31545 0.42089,0.66016 0.18175,0.34337 0.32036,0.76434 0.1336,0.42462 0.14994,0.80437 0.0113,0.3834 -0.15336,0.75716 -0.16969,0.37742 -0.53521,0.64447 z m -6.10157,-8.49373 -4.18114,2.12042 q -0.52541,0.26646 -1.10577,0.13665 -0.58316,-0.13534 -1.09336,-0.60667 -0.51573,-0.46852 -0.88035,-1.1875 l -1.91848,-3.78294 q -0.36463,-0.71898 -0.43791,-1.41188 -0.0788,-0.6901 0.15936,-1.23502 0.23537,-0.55046 0.76078,-0.81691 l 4.18114,-2.12043 q 0.37055,-0.18792 0.75607,-0.1818 0.38272,5.9e-4 0.71084,0.15403 0.32812,0.15343 0.64029,0.42621 0.30383,0.27005 0.54136,0.58763 0.23201,0.32038 0.41432,0.67987 l 1.91849,3.78293 q 0.20755,0.40927 0.33223,0.87447 0.11634,0.46248 0.13305,0.96158 0.0112,0.5019 -0.21929,0.93862 -0.23047,0.43672 -0.71163,0.68074 z m -2.48612,-3.62718 q 0.27653,-0.14024 0.33369,-0.32915 0.0516,-0.1861 -0.0886,-0.46263 l -0.0337,-0.0664 q -0.14024,-0.27653 -0.32089,-0.34483 -0.18899,-0.071 -0.46552,0.0692 l -3.1801,1.61276 q -0.27653,0.14024 -0.32816,0.32635 -0.0544,0.18057 0.0914,0.46816 l 0.0337,0.0664 q 0.14585,0.28759 0.3237,0.35036 0.17785,0.0628 0.45438,-0.0775 z m -9.07041,-4.71904 -1.23413,-4.18755 2.21985,-2.36095 -3.1472,-0.78566 -1.11142,-3.77118 8.30968,-2.44897 1.11142,3.77117 -3.66762,1.06797 3.22804,0.77477 -2.29718,2.38374 3.66411,-1.07986 1.10966,3.76523 -6.2278,1.83541 q -1.10637,0.32606 -1.95741,1.03588 z m -3.60247,-13.57945 -0.69556,-4.84303 8.57505,-1.23156 0.61798,4.30287 -5.69624,0.8181 q -1.82304,0.26183 -2.80123,0.95362 z m 7.60446,-7.65335 -2.93273,0.0502 q 0.47612,-0.80822 0.60822,-1.42449 0.13198,-0.62247 0.11574,-1.57111 l -0.0158,-0.92384 q -0.006,-0.34721 -0.11337,-0.46321 -0.10752,-0.1222 -0.36794,-0.11774 -0.24801,0.004 -0.33889,0.12984 -0.091,0.1194 -0.19494,0.56773 l -0.41361,1.92353 q -0.0807,0.3549 -0.22435,0.66126 -0.1436,0.30636 -0.36834,0.5831 -0.22474,0.27674 -0.5693,0.4377 -0.35076,0.16106 -0.78478,0.16849 l -0.79983,0.0137 q -0.98584,0.0169 -1.63509,-0.5922 -0.64935,-0.61529 -0.66868,-1.74374 l -0.11108,-6.48547 2.93273,-0.0502 q -0.46929,0.84531 -0.60106,1.48018 -0.13808,0.62878 -0.12162,1.58982 l 0.0155,0.90524 q 0.006,0.32241 0.10055,0.43862 0.0888,0.11632 0.35543,0.11176 0.26041,-0.004 0.36337,-0.14888 0.10286,-0.15061 0.16919,-0.6231 l 0.36791,-2.41891 q 0.24112,-1.49263 1.86559,-1.52046 l 1.21525,-0.0208 q 0.42782,-0.007 0.77748,0.12933 0.34966,0.13666 0.5769,0.36845 0.22725,0.23179 0.38756,0.53914 0.15401,0.30127 0.22143,0.61642 0.0674,0.31515 0.0729,0.63756 z m -0.0673,-10.48771 -2.90392,-0.41315 q 0.59769,-0.72297 0.82536,-1.31068 0.22855,-0.59384 0.36219,-1.53316 l 0.13015,-0.91477 q 0.0489,-0.3438 -0.0389,-0.4753 -0.0869,-0.13763 -0.34476,-0.17432 -0.24557,-0.0349 -0.35513,0.0747 -0.10869,0.10355 -0.28208,0.52986 l -0.71193,1.83417 q -0.13574,0.33771 -0.32588,0.61758 -0.19015,0.27987 -0.45573,0.51768 -0.26559,0.23781 -0.63123,0.34238 -0.37178,0.1037 -0.80153,0.0426 l -0.79198,-0.11268 q -0.97616,-0.13887 -1.52117,-0.84277 -0.54413,-0.71004 -0.38516,-1.82741 l 0.91362,-6.42176 2.90392,0.41315 q -0.59679,0.76068 -0.82708,1.3668 -0.23557,0.59911 -0.37095,1.55071 l -0.12753,0.89635 q -0.0454,0.31925 0.0301,0.44899 0.0694,0.12888 0.33335,0.16644 0.25785,0.0367 0.38231,-0.0897 0.12533,-0.1325 0.26538,-0.58861 l 0.74497,-2.33056 q 0.47362,-1.43588 2.08213,-1.20704 l 1.20331,0.1712 q 0.42362,0.0603 0.74733,0.25038 0.32372,0.19012 0.51154,0.45486 0.18783,0.26474 0.29764,0.59354 0.10455,0.32179 0.12139,0.64364 0.0168,0.32184 -0.0286,0.64108 z m 1.59075,-10.49622 -5.94582,-1.88799 q -1.15253,-0.36596 -1.57034,-1.05817 -0.41594,-0.69813 -0.0631,-1.80927 l 1.4601,-4.59827 q 0.84077,-2.64784 2.67299,-2.06606 l 6.42456,2.04001 -1.32497,4.17272 -2.61238,-0.82952 -0.32655,1.02841 2.61238,0.82951 z m -3.08013,-5.56497 0.33031,-1.04023 -1.46577,-0.46543 q -0.36053,-0.11448 -0.48109,-0.0422 -0.12647,0.0705 -0.21656,0.35415 -0.10885,0.3428 -0.054,0.47733 0.0549,0.13454 0.39767,0.24339 z m 4.86533,-6.097 -4.15946,-2.16265 q -0.52268,-0.27176 -0.75533,-0.81906 -0.22978,-0.55281 -0.14399,-1.24208 0.0803,-0.69212 0.45217,-1.40738 l 1.95667,-3.76332 q 0.37189,-0.71525 0.89233,-1.17853 0.51494,-0.46614 1.09659,-0.59007 0.5845,-0.12943 1.10718,0.14233 l 4.15947,2.16264 q 0.36863,0.19166 0.58827,0.50855 0.22251,0.31139 0.28899,0.66746 0.0665,0.35608 0.0267,0.76871 -0.0424,0.40427 -0.16215,0.78236 -0.1252,0.37523 -0.31114,0.73286 l -1.95668,3.76332 q -0.21168,0.40714 -0.51712,0.77952 -0.30808,0.36402 -0.70397,0.6684 -0.4014,0.30151 -0.89061,0.36866 -0.48922,0.0671 -0.96789,-0.18172 z m 1.49935,-4.1339 q 0.2751,0.14303 0.46193,0.0794 0.18134,-0.0665 0.32437,-0.34157 l 0.0343,-0.066 q 0.14303,-0.2751 0.0933,-0.46172 -0.0524,-0.19498 -0.32748,-0.33801 l -3.16361,-1.64487 q -0.2751,-0.14303 -0.45644,-0.0766 -0.17847,0.061 -0.32722,0.34707 l -0.0343,0.066 q -0.14875,0.2861 -0.0962,0.46721 0.0526,0.18112 0.32771,0.32415 z m 0.81296,-13.28179 5.09492,-5.989153 q 0.22903,-0.269228 0.48922,-0.479383 0.25949,-0.218895 0.5851,-0.381538 0.32561,-0.162643 0.65236,-0.202201 0.32604,-0.0483 0.69572,0.06265 0.36495,0.10693 0.70031,0.392213 l 3.58026,3.045701 q 0.38731,0.329482 0.55701,0.742508 0.16497,0.409008 0.11874,0.817458 -0.0469,0.399705 -0.21435,0.778345 -0.16812,0.36989 -0.44135,0.69108 l -4.86589,5.71992 -4.37378,-3.72074 q -0.67071,-0.57057 -1.28621,-0.94763 -0.61551,-0.37706 -1.29206,-0.52923 z m 8.31726,0.63553 0.22903,-0.26923 q 0.2893,-0.34008 0.29669,-0.52104 0.0114,-0.18568 -0.26253,-0.41873 l -2.73007,-2.322449 q -0.27395,-0.233048 -0.45541,-0.192014 -0.17743,0.03631 -0.46673,0.376388 l -0.22903,0.269229 z m 0.0915,-10.198233 7.20847,-6.09239 1.89336,2.240216 q -0.98509,0.150555 -1.61308,0.502688 -0.55368,0.305565 -1.42113,1.046832 -0.11841,0.100072 -0.24155,0.204147 l -0.65833,0.556401 0.78056,0.923556 2.67595,-2.26163 1.22888,1.454009 -2.67594,2.261629 0.79657,0.942501 0.65833,-0.556401 q 0.19892,-0.168121 0.37416,-0.316227 0.1705,-0.144104 0.33153,-0.280202 0.30859,-0.268927 0.53959,-0.504761 0.23101,-0.235834 0.41578,-0.497548 0.18077,-0.266451 0.32624,-0.584266 0.14548,-0.317816 0.28775,-0.754709 l 1.89336,2.240216 -6.77274,5.724124 -3.73069,-4.414124 q -1.35298,-1.600831 -2.29707,-1.834061 z m 12.57355,-9.81016 7.069,-3.691225 q 0.31333,-0.163608 0.6305,-0.266263 0.31979,-0.111022 0.6714,-0.147714 0.35161,-0.03669 0.66071,0.03276 0.30623,0.06396 0.58741,0.280909 0.27832,0.211454 0.46776,0.574249 l 0.77498,1.484161 q 0.57981,1.110372 -0.5199,2.139324 l 3.26005,2.264254 -4.11717,2.149866 -2.53473,-2.027374 1.37488,2.633011 -3.83133,2.00061 -2.66939,-5.11211 q -0.93573,-1.791987 -1.82417,-2.314461 z m 6.06547,1.072179 0.49472,-0.258329 q 0.20888,-0.109072 0.2834,-0.287897 0.0716,-0.184322 -0.0489,-0.415192 l -0.33582,-0.643136 q -0.16648,-0.31882 -0.35007,-0.348876 -0.1781,-0.03293 -0.57387,0.173736 l -0.31333,0.163607 z m 5.51559,-6.871134 8.97244,-2.928244 0.91002,2.788413 q -0.96925,-0.231614 -1.68362,-0.141978 -0.628,0.07449 -1.71078,0.434393 -0.14738,0.0481 -0.30066,0.09812 l -0.81942,0.267428 0.37516,1.149557 3.33077,-1.087029 0.59065,1.809816 -3.33076,1.087029 0.38286,1.173138 0.81943,-0.267429 q 0.2476,-0.0808 0.46572,-0.151991 0.21222,-0.06926 0.41266,-0.134676 0.38716,-0.132876 0.68998,-0.264321 0.30282,-0.131445 0.57257,-0.304279 0.26782,-0.17873 0.5223,-0.418335 0.25448,-0.239605 0.55084,-0.590725 l 0.91003,2.788413 -8.43009,2.751241 -1.79311,-5.494294 q -0.6503,-1.992565 -1.43699,-2.564248 z m 12.59295,3.062352 -0.74849,-4.62795 q -0.097,-0.599919 0.23373,-1.118264 0.33689,-0.519334 0.97877,-0.861853 0.64188,-0.342519 1.48054,-0.478158 l 5.72984,-0.9267 0.4683,2.895529 q -1.126,-0.320429 -1.69873,-0.365999 -0.57372,-0.05169 -1.48584,0.09583 l -0.71623,0.115838 q -0.34281,0.05544 -0.47425,0.25259 -0.13243,0.191026 -0.077,0.533837 l 0.47424,2.932259 q 0.0564,0.348933 0.23621,0.489465 0.18589,0.139542 0.53482,0.08311 l 0.11631,-0.01881 q 0.74684,-0.120788 1.08767,-0.188474 0.34083,-0.06769 0.7626,-0.217563 0.42176,-0.149876 0.76017,-0.349087 0.34452,-0.200201 0.92852,-0.589894 l 0.46632,2.883286 -5.72984,0.9267 q -0.38566,0.06237 -0.77925,0.07578 -0.38845,0.0063 -0.8265,-0.06106 -0.43904,-0.07347 -0.78491,-0.231115 -0.34685,-0.163764 -0.6053,-0.480025 -0.25944,-0.322382 -0.33171,-0.76926 z m 9.97302,-8.238602 9.43806,-0.04933 0.0153,2.933115 q -0.85227,-0.516452 -1.55991,-0.649181 -0.62076,-0.120781 -1.76173,-0.108617 -0.15502,8.1e-4 -0.31625,0.0017 l -0.86195,0.0045 0.006,1.209212 3.50361,-0.01831 0.01,1.903734 -3.50361,0.01831 0.006,1.234017 0.86195,-0.0045 q 0.26044,-0.0014 0.48988,-0.0026 0.22324,-0.0012 0.43408,-0.0023 0.40924,-0.0083 0.73773,-0.04106 0.3285,-0.03272 0.63813,-0.114958 0.3096,-0.08844 0.62508,-0.238914 0.31548,-0.150479 0.70488,-0.394363 l 0.0153,2.933114 -8.86755,0.04634 -0.0302,-5.779413 q -0.0109,-2.095967 -0.58557,-2.880524 z m 11.82598,0.08466 7.74282,1.21955 q 0.34916,0.05499 0.66417,0.167388 0.32211,0.107232 0.62457,0.299258 0.30247,0.192026 0.50664,0.450178 0.20513,0.252027 0.29715,0.624345 0.0991,0.367157 0.0306,0.802079 l -0.24893,1.580418 q -0.0839,0.532932 -0.26627,0.893426 -0.18137,0.354368 -0.51366,0.590801 -0.33229,0.236433 -0.86194,0.291116 -0.52353,0.05565 -1.26474,-0.0611 l -2.8178,-0.443823 -0.45636,2.897434 -4.24508,-0.66863 0.89344,-5.672355 q 0.14376,-0.912722 0.14059,-1.610037 0.004,-0.702475 -0.22521,-1.360051 z m 4.20523,4.428927 0.55131,0.08684 q 0.53906,0.08491 0.62203,-0.441901 l 0.0946,-0.600314 q 0.055,-0.349162 -0.0808,-0.483544 -0.12869,-0.139544 -0.55748,-0.207082 l -0.36142,-0.05692 z m 6.1638,4.134074 1.45537,-4.45646 q 0.18866,-0.57769 0.72017,-0.886848 0.53741,-0.307233 1.26488,-0.317549 0.72748,-0.01032 1.53507,0.253421 l 5.51752,1.80189 -0.91057,2.788235 q -0.854,-0.800774 -1.34218,-1.103718 -0.48626,-0.308839 -1.36458,-0.595678 l -0.68969,-0.225237 q -0.33011,-0.107805 -0.53728,0.0072 -0.20524,0.109107 -0.31304,0.439215 l -0.92212,2.823604 q -0.10973,0.336003 -0.0143,0.543289 0.10128,0.209212 0.43729,0.318943 l 0.112,0.03658 q 0.71916,0.234862 1.05312,0.330878 0.33396,0.09602 0.77752,0.156065 0.44355,0.06005 0.83562,0.03805 0.39797,-0.02007 1.09561,-0.09884 l -0.90672,2.776446 -5.51752,-1.801889 q -0.37137,-0.121281 -0.72735,-0.28972 -0.34815,-0.172409 -0.70664,-0.433001 -0.35657,-0.266487 -0.59175,-0.56509 -0.23326,-0.304497 -0.31805,-0.704028 -0.0829,-0.405426 0.0577,-0.835746 z m 9.18112,5.163977 2.8759,-5.535933 q 0.55746,-1.073069 1.31087,-1.366503 0.75891,-0.290574 1.79346,0.24687 l 4.28127,2.224107 q 2.4653,1.280719 1.57909,2.986623 l -3.10746,5.98167 -3.88506,-2.018276 1.26357,-2.432289 -0.95751,-0.497422 -1.26357,2.432289 z m 6.00933,-2.084255 0.96851,0.50314 0.70897,-1.364723 q 0.17438,-0.335678 0.12371,-0.46682 -0.0478,-0.136646 -0.31195,-0.273866 -0.31917,-0.165807 -0.4611,-0.134721 -0.14193,0.03109 -0.30774,0.350255 z m 5.17628,5.835286 2.84137,-3.72891 q 0.35705,-0.46858 0.93605,-0.604315 0.58394,-0.131977 1.24842,0.07029 0.66824,0.197338 1.30946,0.685933 l 3.37377,2.570763 q 0.64122,0.488595 1.00878,1.080526 0.37133,0.586999 0.39408,1.181262 0.0277,0.598022 -0.32936,1.066602 l -2.84137,3.72891 q -0.25181,0.330472 -0.60157,0.492761 -0.34482,0.166047 -0.70701,0.170726 -0.3622,0.0047 -0.76197,-0.105032 -0.39108,-0.110886 -0.74316,-0.29341 -0.34833,-0.187456 -0.66894,-0.431754 l -3.37377,-2.570763 q -0.365,-0.278123 -0.67973,-0.642682 -0.30604,-0.365733 -0.53832,-0.807801 -0.22852,-0.446999 -0.21112,-0.940494 0.0174,-0.493495 0.34439,-0.922616 z m 3.81703,2.183458 q -0.18792,0.246621 -0.15716,0.441578 0.0345,0.190025 0.28114,0.377946 l 0.0592,0.0451 q 0.24662,0.187921 0.43899,0.170784 0.20106,-0.01831 0.38898,-0.264932 l 2.1611,-2.836142 q 0.18792,-0.246621 0.1534,-0.436645 -0.0296,-0.186266 -0.28607,-0.381705 l -0.0592,-0.0451 q -0.25649,-0.195438 -0.44393,-0.174542 -0.18744,0.02089 -0.37536,0.267516 z"
           id="text1"
           style="font-size:12.7px;font-family:'Kung Fu Panda';-inkscape-font-specification:'Kung Fu Panda';text-align:center;letter-spacing:0px;text-anchor:middle;white-space:pre"
           aria-label="COMISSAO DE RECEPCAO" />
        <g
           id="g17"
           style="fill:#0d0d0d;fill-opacity:1;stroke-width:3.25594;stroke-dasharray:none">
          <path
             style="font-size:10.7579px;line-height:0.6;font-family:'Kung Fu Panda';-inkscape-font-specification:'Kung Fu Panda';text-align:center;text-anchor:middle;display:inline;fill:#0d0d0d;fill-opacity:1;stroke-width:3.25594;stroke-dasharray:none"
             d="m 429.19222,82.281035 c -0.35625,-0.123046 -1.89749,-0.655391 -1.89749,-0.655391 0,0 -0.1059,0.306619 -0.323,0.93515 l -0.61468,1.77957 2.57917,0.890849 c -0.21594,-0.317186 -0.3442,-0.546624 -0.38476,-0.688324 -0.0443,-0.143048 -0.0338,-0.308883 0.0315,-0.497742 l 0.0767,-0.222308 z"
             id="path17" />
          <rect
             style="display:inline;opacity:1;fill:#0d0d0d;fill-opacity:1;stroke:none;stroke-width:3.25594;stroke-dasharray:none"
             id="rect16"
             width="7.269289"
             height="2.0838552"
             x="423.68689"
             y="-140.45915"
             transform="rotate(28.079609)" />
          <rect
             style="display:inline;opacity:1;fill:#0d0d0d;fill-opacity:1;stroke:none;stroke-width:3.25594;stroke-dasharray:none"
             id="rect17"
             width="7.269289"
             height="2.0838552"
             x="13.80923"
             y="-356.85611"
             transform="rotate(107.33966)" />
        </g>
      </g>
    </g>
  </g>
</svg>
