<?xml version="1.0" encoding="UTF-8" standalone="no"?>
<!-- Created with Inkscape (http://www.inkscape.org/) -->

<svg
   width="86.691139mm"
   height="84.960167mm"
   viewBox="0 0 86.691139 84.960167"
   version="1.1"
   id="svg1"
   xmlns="http://www.w3.org/2000/svg"
   xmlns:svg="http://www.w3.org/2000/svg">
  <defs
     id="defs1" />
  <path
     id="path1384"
     style="display:inline;opacity:1;fill:#ff951a;fill-opacity:1;stroke-width:9.12866"
     d="M 39.866604,0.00134001 C 39.60309,-0.00343127 39.320592,0.0043916 39.016526,0.02717828 34.151476,0.39176385 35.315156,3.616241 30.653213,5.0542615 25.991265,6.4922812 25.136761,3.1725041 20.911688,5.6118502 c -4.225073,2.4393472 -1.777342,4.8392878 -5.353679,8.1576418 -3.576336,3.318356 -5.7866133,0.697944 -8.5348792,4.728911 -2.4985688,3.664725 -0.053654,4.915343 -0.9260417,8.52351 a 4.9729751,4.8563988 0 0 1 3.3770547,-1.328601 4.9729751,4.8563988 0 0 1 4.8865232,4.000273 5.5886333,3.8090533 0 0 1 3.82664,1.6769 2.537689,2.1428858 0 0 1 0.349333,-0.02067 2.537689,2.1428858 0 0 1 2.461865,1.652096 H 1.4338068 c -0.60979859,0.669247 -1.09728759,1.574478 -1.3322185,3.133142 -0.72713196,4.8242 2.6750222,4.406735 3.0396078,9.271785 0.3645856,4.86505 -3.06169399,4.95969 -1.6236737,9.621635 0.7207096,2.336482 1.8045958,3.036477 3.0137697,3.685563 11.6568989,-2.436146 21.7389769,-4.539402 29.8849989,-6.233213 0.09896,-0.313215 0.149123,-0.635517 0.03049,-0.987535 -0.178082,-0.52841 -0.724024,-1.122403 -0.788067,-1.733228 -0.06404,-0.610823 0.353824,-1.238031 0.562758,-1.551842 0.208928,-0.313814 -0.287348,-0.81492 -0.135394,-0.973068 0.151955,-0.158148 0.45579,-0.474367 0.578259,-1.204062 0.122472,-0.729692 0.06324,-1.872804 -0.03669,-2.374015 -0.09993,-0.501198 -0.240909,-0.360279 -0.813903,-0.249597 -0.57299,0.110685 -1.577801,0.191396 -2.232938,-0.219625 -0.655127,-0.411011 -0.960587,-1.314014 -0.885734,-2.163692 0.07485,-0.849668 0.529996,-1.646318 1.503783,-2.243792 0.973779,-0.597479 2.466452,-0.995779 3.330029,-1.434536 0.86357,-0.438752 1.098154,-0.917735 1.382345,-1.627808 0.284202,-0.710071 0.61806,-1.651104 0.935344,-2.149223 0.317286,-0.498118 0.617663,-0.553487 0.611332,-0.600996 -0.0063,-0.04751 -0.319632,-0.08718 -0.413412,-0.26045 -0.09378,-0.173273 0.03197,-0.480096 0.320394,-0.614432 0.288415,-0.134339 0.739404,-0.09596 0.892969,0.08217 0.153575,0.178125 0.01,0.496282 -0.0057,0.647506 -0.01568,0.151224 0.09629,0.135625 0.360702,0.01602 0.264408,-0.119605 0.681301,-0.343464 1.08572,-0.255281 0.404412,0.08818 0.796631,0.488016 1.089858,0.673344 0.293228,0.185328 0.487672,0.156333 0.641304,0.265617 0.153631,0.109283 0.26627,0.356844 0.481625,0.765844 0.215353,0.409 0.53312,0.979463 0.59738,1.442806 0.06426,0.463345 -0.124744,0.819721 -0.253217,1.088823 -0.128469,0.269102 -0.19595,0.450701 -0.137975,0.572574 0.05798,0.121873 0.241041,0.184007 0.788065,0.195338 0.547037,0.01133 1.457581,-0.02807 2.205034,-0.149861 0.747453,-0.12179 1.331927,-0.3259 2.209685,-0.353985 0.877758,-0.02808 2.049145,0.119836 2.686657,0.130224 0.637511,0.01039 0.741411,-0.116978 1.000972,-0.198953 0.259561,-0.08198 0.674433,-0.118451 0.926043,-0.160197 0.251609,-0.04175 0.339533,-0.08882 0.423229,0.0155 0.08369,0.104327 0.163155,0.35998 0.160198,0.53175 -0.003,0.17177 -0.08806,0.259706 -0.05478,0.312644 0.03328,0.05294 0.185004,0.07068 0.232029,0.20257 0.04702,0.131894 -0.01032,0.378257 -0.0987,0.511597 -0.08839,0.13334 -0.207911,0.153629 -0.245464,0.213423 -0.03756,0.0598 0.0066,0.158648 -10e-4,0.324527 -0.0076,0.16588 -0.06703,0.398848 -0.235644,0.460438 -0.168625,0.06159 -0.446681,-0.048 -0.691949,0.07803 -0.245265,0.126033 -0.457663,0.488136 -1.08572,0.964797 -0.628068,0.476653 -1.671555,1.067782 -2.722833,1.318267 -1.051267,0.250485 -2.110429,0.159914 -2.796727,0.242361 -0.686311,0.08246 -0.999714,0.338037 -1.054715,0.790649 -0.05501,0.452607 0.148484,1.102378 0.128155,1.70429 -0.02033,0.601913 -0.26445,1.155944 -0.300755,1.426786 -0.03631,0.270843 0.134959,0.258638 0.624251,0.4346 0.48928,0.17596 1.296696,0.540087 1.812292,0.994771 0.515598,0.454684 0.739401,0.999741 1.121377,1.431437 0.253112,0.286049 0.568754,0.518032 0.815454,0.710035 1.993463,-0.350446 2.772703,-0.389687 3.30626,-0.236678 0.9633,0.276232 1.622935,1.05489 1.740979,1.814876 0.118043,0.759985 -0.305261,1.501542 -0.356052,1.778702 -0.05079,0.277161 0.271162,0.09034 0.560691,0.279053 0.289543,0.188709 0.546423,0.752422 0.440282,1.709456 -0.106142,0.957049 -0.574974,2.307361 -1.067117,3.126425 -0.492143,0.81905 -1.007857,1.107211 -1.316198,1.566312 -0.308331,0.459099 -0.409191,1.088396 -0.423747,1.682585 -0.01456,0.594189 0.05713,1.152639 -0.913123,2.596223 -0.970269,1.443596 -2.98205,3.772414 -5.630664,7.543725 -1.995512,2.841357 -4.382383,6.569222 -6.828525,10.431405 2.641029,1.203388 2.906961,3.416661 6.903971,3.117124 4.86505,-0.364586 3.700855,-3.588551 8.362797,-5.026566 4.661946,-1.438028 5.516444,1.881758 9.741525,-0.557589 4.225067,-2.439345 1.777339,-4.839298 5.353677,-8.157643 2.925039,-2.714041 4.93639,-1.460031 7.075538,-3.117121 H 62.003237 a 2.537689,2.1428858 0 0 1 2.462381,-1.652095 2.537689,2.1428858 0 0 1 0.348816,0.02067 5.5886333,3.8090533 0 0 1 3.826641,-1.6769 4.9729751,4.8563988 0 0 1 4.886522,-4.000273 4.9729751,4.8563988 0 0 1 4.525822,2.848406 4.1983317,4.1739212 0 0 1 0.443901,0.09767 c 0.227591,-2.124153 -1.14117,-3.60888 0.159163,-6.922056 1.782384,-4.54146 4.910248,-3.139656 5.637383,-7.963855 0.727135,-4.8242 -2.675034,-4.407253 -3.039609,-9.272303 -0.364589,-4.865049 3.062219,-4.959169 1.624191,-9.621118 -1.438012,-4.661948 -4.322514,-2.80964 -6.761861,-7.034713 -2.439344,-4.225073 0.606894,-5.796734 -2.711462,-9.373071 C 70.086767,9.9476929 68.291952,12.867852 64.26098,10.119586 60.23002,7.3713184 62.292227,4.6336825 57.750783,2.8512953 53.209328,1.0689071 52.859296,4.4786314 48.035097,3.7514988 43.512409,3.0698131 43.819277,0.07290783 39.866604,0.00134001 Z M 86.691136,11.574794 c -1.004497,0.435963 -2.008749,0.871802 -3.066481,1.637626 -1.057732,0.765824 -2.168292,1.861319 -2.859774,2.155941 -0.69148,0.294621 -0.964022,-0.212861 -2.016931,-0.684713 -1.05291,-0.471852 -2.886343,-0.907634 -3.048393,-0.801501 -0.162047,0.106133 1.347229,0.754207 2.438094,1.513603 1.090867,0.759395 1.762659,1.629042 2.435512,2.499588 0.462689,-0.84628 0.925339,-1.692485 1.9451,-2.746085 1.019761,-1.053601 2.596327,-2.313934 4.172873,-3.574459 z m -13.792441,5.85804 c -1.149618,0.919175 -2.299099,1.838275 -3.042709,2.60656 -0.74361,0.768285 -1.081123,1.385353 -1.418518,2.002461 -0.490648,-0.634803 -0.980663,-1.268876 -1.776118,-1.822627 -0.795464,-0.553751 -1.895836,-1.026417 -1.777669,-1.103809 0.118167,-0.07739 1.454825,0.240385 2.222604,0.58446 0.767786,0.344075 0.967005,0.714032 1.471227,0.499195 0.50423,-0.214837 1.31385,-1.013558 2.085144,-1.571997 0.7713,-0.558439 1.503558,-0.876339 2.236039,-1.194243 z m -29.37495,32.82797 c -0.339209,0.01673 -0.565807,0.227469 -1.056267,0.31161 -0.49046,0.08414 -1.245116,0.04162 -1.751831,-0.05839 -0.506713,-0.10002 -0.765551,-0.257741 -1.060918,-0.251665 -0.295366,0.0061 -0.626822,0.176099 -0.992704,0.256316 -0.365879,0.08022 -0.765739,0.07044 -0.914156,0.136424 -0.148415,0.06599 -0.04525,0.207522 -0.115755,0.363802 -0.07051,0.15628 -0.314702,0.32767 -0.433048,0.555005 -0.05466,0.105001 -0.0807,0.222757 -0.09405,0.346232 0.963777,-0.20008 3.04809,-0.637122 3.867464,-0.806667 1.422047,-0.294253 2.354807,-0.482681 3.422015,-0.700218 -0.307003,-0.07138 -0.619601,-0.164833 -0.870748,-0.152445 z" />
</svg>
