<?xml version="1.0" encoding="utf-8"?>
<!-- Generator: Adobe Illustrator 25.0.0, SVG Export Plug-In . SVG Version: 6.00 Build 0)  -->
<svg version="1.1" id="svg5" xmlns:svg="http://www.w3.org/2000/svg"
	 xmlns="http://www.w3.org/2000/svg" xmlns:xlink="http://www.w3.org/1999/xlink" x="0px" y="0px" viewBox="0 0 595.6 58.7"
	 style="enable-background:new 0 0 595.6 58.7;" xml:space="preserve">
<style type="text/css">
	.st0{fill:#C9E165;}
</style>
<g id="layer1">
	<path id="path402" class="st0" d="M1,39.1c0.7-1.1,2-3.2,10.3-7.3s23.8-10.3,31.5-9.7s7.8,8,8.3,12.2c0.5,4.2,1.3,5.3,7.5,2.4
		c6.2-3,17.6-10,25.5-12.9s12-1.6,11.4,1.3c-0.6,3-6.1,7.6-5.6,8.3c0.5,0.6,6.9-2.7,15.3-5.1c8.4-2.3,18.8-3.6,18.6-1.5
		s-11.1,7.5-10.5,11c0.7,3.5,12.8,5.2,19.6,3.9c6.7-1.3,8-5.6,25.3-8.7s50.6-5,66.2-3.5s13.4,6.2,6.5,12
		c-6.9,5.8-18.5,12.5-1.1,15.4c17.3,2.9,63.6,2,90.3-0.6c26.7-2.6,33.7-7,33.5-10.3s-7.7-5.8,1.8-8.6c9.6-2.8,36.2-6,59.5-4.1
		c23.3,1.8,43.4,8.6,52.9,10.2c9.5,1.5,8.5-2.2,2.5-5.3c-6-3.1-16.8-5.7-20.6-7.1c-3.8-1.5-0.5-1.8,7.7-0.3
		c8.1,1.5,21.1,4.9,27.1,5.2c6.1,0.3,5.3-2.4,3.7-4.6s-3.7-3.9-1.5-5.1c2.2-1.3,8.9-2.2,10.7,1.5s-1.4,12-2.6,17.2
		c-1.1,5.2-0.2,7.4,7.3,5c7.5-2.5,21.7-9.6,38.4-14c16.7-4.4,35.9-6.1,55.2-7.8V0C595.6,0,0,0,0,0c0.1,13.4,0.2,26.8,0.3,33.5
		S0.4,40.2,1,39.1z"/>
</g>
</svg>
