<?xml version="1.0" encoding="utf-8"?>
<!-- Generator: Adobe Illustrator 25.0.0, SVG Export Plug-In . SVG Version: 6.00 Build 0)  -->
<svg version="1.1" id="svg5" xmlns:svg="http://www.w3.org/2000/svg"
	 xmlns="http://www.w3.org/2000/svg" xmlns:xlink="http://www.w3.org/1999/xlink" x="0px" y="0px" viewBox="0 0 45.4 136.1"
	 style="enable-background:new 0 0 45.4 136.1;" xml:space="preserve">
<style type="text/css">
	.st0{fill:#C9E165;}
</style>
<g id="layer1">
	<g id="g2176" transform="translate(0.03747846)">
		<path id="path1702" class="st0" d="M5.9,20.8C11,28,20.8,35.6,22,39.5s-6.2,3.9-10.4,4.3s-5.3,1.1-2.4,6.4s10,15.1,12.9,21.8
			s1.6,10.3-1.3,9.7s-7.6-5.2-8.3-4.8c-0.6,0.4,2.7,5.9,5.1,14.8c2.3,9,3.6,21.4,1.5,23c-2.1,1.6-7.5-7.7-11.1-8.1
			c-3.6-0.4-5.4,8.2-6.4,14.6c-1,6.4-1.3,10.7-1.6,15h45.4V0H0C0.4,6.8,0.8,13.6,5.9,20.8z"/>
	</g>
</g>
</svg>
