<svg width="454" height="457" viewBox="0 0 454 457" fill="none" xmlns="http://www.w3.org/2000/svg">
<g clip-path="url(#clip0_2395_135)">
<path fill-rule="evenodd" clip-rule="evenodd" d="M229.039 38.0425C123.738 38.0425 38.2192 123.631 38.2192 229.017C38.2192 334.23 123.459 419.698 228.521 419.979L237.551 405.391C234.729 405.528 231.895 405.621 229.039 405.621C131.499 405.62 52.5807 326.636 52.5807 229.017C52.5807 131.398 131.499 52.4156 229.039 52.4156C301.354 52.4156 363.392 95.8449 390.649 158.084L399.648 143.549C368.288 81.0202 303.644 38.0425 229.039 38.0425ZM229.236 59.0033C224.83 59.0013 220.422 59.1755 216.025 59.5235C181.169 62.2869 147.994 75.7626 120.996 97.9782C94.6295 119.677 75.1607 149.545 65.8241 182.398C58.7026 207.467 57.5136 234.233 62.2213 259.883C62.223 260.494 62.318 261.123 62.5608 261.771C64.2422 270.381 66.5873 278.858 69.609 287.092C81.4579 319.374 102.897 347.401 130.817 367.421C159.351 387.884 194.107 398.767 229.163 398.844C233.432 398.837 237.689 398.635 241.936 398.307L249.471 386.137C245.429 386.648 241.366 387.028 237.28 387.244C245.037 379.4 251.454 370.408 256.308 360.615C251.808 362.584 246.916 362.171 243.659 363.185C242.67 363.492 241.59 364.037 240.446 364.654C235.154 372.822 228.611 380.155 220.951 386.071C220.509 386.412 220.162 386.828 219.8 387.231C214.789 386.954 209.803 386.531 205.02 385.781C203.662 385.568 202.334 385.237 200.985 384.989C205.533 380.935 209.963 376.75 214.116 372.286C216.033 370.226 218.053 368.099 219.883 365.862C217.843 364.792 216.014 363.689 214.414 363.183C212.492 362.583 209.994 362.355 207.35 361.966C207.334 361.964 207.313 361.96 207.298 361.956C205.881 363.519 204.49 365.106 203.022 366.623C197.998 371.812 192.681 376.705 187.126 381.319C186.992 381.431 186.897 381.57 186.778 381.694C179.225 379.581 171.862 376.925 164.727 373.743C171.232 369.774 177.346 365.148 182.863 359.89C185.867 357.028 188.629 353.946 191.325 350.795C191.707 350.349 192.043 349.872 192.421 349.423C191.862 348.356 191.308 347.383 190.713 346.594C189.572 345.09 187.7 343.517 185.785 341.704C185.376 341.317 184.964 340.907 184.557 340.487C181.168 345.004 176.947 349.157 172.895 352.852C166.562 358.629 159.427 363.351 151.829 367.296C147.325 364.776 142.903 362.113 138.66 359.162C140.597 358.27 142.52 357.327 144.454 356.352C149.65 353.736 152.895 349.38 154.405 343.765C155.85 338.392 155.706 332.895 153.047 327.925C150.373 322.925 145.606 319.401 140.708 316.791C131.488 311.875 122.403 307.198 113.909 301.042C97.6298 289.245 83.8206 274.03 73.4126 256.847C73.2867 256.64 73.1378 256.48 73.0006 256.298C70.8648 244.118 70.2707 231.64 71.0274 219.229C76.3872 230.409 82.6711 241.129 90.0621 251.121C98.5885 262.649 108.412 273.287 118.524 283.428C130.92 295.86 144.822 306.698 160.548 314.59C167.306 317.981 174.457 320.797 180.979 324.661C181.312 322.845 181.625 321.122 181.625 319.669C181.625 317.712 181.086 315.362 180.65 312.814C180.536 312.153 180.432 311.47 180.351 310.773C176.738 309.01 173.17 307.448 170.305 306.084C153.946 298.29 139.741 287.783 126.972 274.973C121.191 269.172 115.645 263.126 110.176 257.034C105.931 252.308 102.415 247.94 99.0049 243.203C88.7295 228.935 80.5198 213.234 74.3465 196.781C74.279 196.596 74.1446 196.456 74.0628 196.279C75.4682 189.516 77.253 182.84 79.5291 176.342C82.3182 185.233 85.6853 193.941 89.6936 202.363C109.509 243.994 143.952 278.233 185.555 297.867C185.633 297.791 185.712 297.707 185.791 297.633C187.709 295.82 189.58 294.245 190.708 292.747C191.579 291.594 192.377 290.015 193.22 288.341C184.435 284.386 175.951 279.734 167.882 274.445C127.502 247.973 97.7881 205.828 87.0847 158.705C90.4567 151.935 94.2789 145.432 98.5411 139.234C100.734 160.304 107.805 180.874 119.549 198.526C121.343 201.222 124.793 202.386 127.722 200.672C130.391 199.11 131.654 195.181 129.865 192.491C116.538 172.461 109.595 148.796 109.697 124.751C113.166 120.765 116.845 116.975 120.69 113.352C119.444 125.926 120.423 138.678 123.359 151.023C128.21 171.421 138.367 190.073 151.256 206.549C152.448 204.581 153.568 202.598 154.579 200.583C154.932 199.625 156.097 195.149 156.523 193.478C137.46 166.812 126.587 135.09 134.61 102.245C134.663 102.025 134.672 101.824 134.704 101.613C138.707 98.6295 142.805 95.7657 147.092 93.1681C147.788 92.7458 148.5 92.3559 149.202 91.9455C140.309 116.967 142.392 145.863 154.438 169.448C160.014 180.364 167.788 190.217 176.187 199.104C182.914 206.218 191.029 212.02 199.061 217.547C212.024 226.462 225.432 234.738 238.75 243.102C249.952 250.138 261.567 256.718 272.305 264.46C272.805 264.82 273.3 265.185 273.794 265.553C273.97 265.682 274.145 265.819 274.32 265.952C275.083 266.555 275.84 267.166 276.581 267.795C278.126 269.106 279.613 270.487 281.033 271.931C282.669 273.596 284.346 275.53 285.928 277.435C286.284 277.681 286.643 277.923 286.998 278.17L287.025 278.189L287.054 278.216C289.857 280.244 291.817 283.241 292.649 286.495C294.932 289.905 297.18 293.541 298.914 297.138C299.761 298.894 300.525 300.703 301.217 302.544L308.35 291.025C305.083 284.519 301.003 278.4 296.46 272.648C290.928 265.64 284.873 259.652 277.598 254.452C266.675 246.643 254.912 239.96 243.553 232.821C230.264 224.468 216.876 216.215 203.964 207.279C201.642 205.674 199.338 204.036 197.071 202.353C196.495 201.926 195.924 201.497 195.355 201.064C195.12 200.884 194.131 200.113 194.856 200.681C193.947 199.97 193.045 199.251 192.156 198.517C188.942 195.87 185.872 193.053 183.07 189.967C180.908 187.587 178.831 185.191 176.835 182.752L176.359 182.439L176.467 182.269C170.923 175.437 166.067 168.236 162.285 159.878C155.663 145.236 153.626 128.105 155.722 112.223C156.491 106.386 157.988 100.451 160.016 94.8593C160.263 94.1774 160.521 93.4983 160.786 92.8222C160.866 92.6182 161.477 91.1277 161.279 91.5913C161.073 92.0774 161.668 90.7155 161.774 90.4806C161.994 89.9968 162.22 89.512 162.451 89.0321C163.251 87.3593 164.115 85.7158 165.035 84.1064C165.08 84.0314 165.095 83.9628 165.13 83.8908C171.754 80.9698 178.551 78.5227 185.488 76.5405C170.653 94.0756 164.901 114.933 165.253 139.036C165.365 146.735 177.312 146.733 177.2 139.036C176.843 114.51 186.932 90.6218 204.716 73.7513C205.324 73.1737 205.686 72.609 205.902 72.0624C210.942 71.3153 216.028 70.8704 221.133 70.6056L221.139 70.6077C213.76 77.4295 207.952 85.0338 203.419 93.3258C204.738 92.9432 206.065 92.7114 207.339 92.5238C209.978 92.1352 212.468 91.9027 214.389 91.295L214.396 91.2929L214.402 91.2908C216.465 90.6502 218.846 89.0282 221.668 87.7307C226.179 81.7511 231.408 76.3377 237.313 71.7764C237.753 71.4366 238.098 71.0248 238.458 70.6242C239.498 70.6842 240.536 70.6617 241.576 70.7382C246.845 71.1336 252.082 71.9045 257.294 72.8457C252.74 76.904 248.304 81.0918 244.146 85.561C242.886 86.9153 241.607 88.3438 240.34 89.7657C241.521 90.404 242.633 90.9744 243.647 91.295C245.569 91.8951 248.065 92.1225 250.71 92.5114C251.641 92.6486 252.603 92.8334 253.567 93.0585C254.135 92.4561 254.668 91.8217 255.244 91.2266C260.269 86.0367 265.585 81.1441 271.14 76.5302C271.286 76.4087 271.388 76.257 271.515 76.1219C279.061 78.2229 286.442 80.8782 293.604 84.0649C287.074 88.0428 280.939 92.6817 275.403 97.9573C272.399 100.819 269.637 103.901 266.941 107.052C266.911 107.082 266.888 107.12 266.862 107.15C267.023 107.397 267.182 107.66 267.349 107.881C268.49 109.385 270.362 110.96 272.279 112.772C273.212 113.654 274.169 114.612 275.024 115.7C278.164 111.83 281.825 108.231 285.371 104.997C291.72 99.2064 298.873 94.472 306.491 90.522C306.498 90.5184 306.505 90.5135 306.505 90.5054C311.046 93.0414 315.495 95.7297 319.753 98.6991C317.956 99.4349 316.142 100.314 313.808 101.49C308.612 104.107 305.367 108.465 303.857 114.079C302.412 119.453 302.556 124.948 305.215 129.918C307.889 134.917 312.656 138.444 317.554 141.054C326.774 145.97 335.859 150.647 344.353 156.803C355.439 164.836 365.344 174.483 373.844 185.228L386.406 164.934C385.534 162.77 384.642 160.612 383.679 158.479C369.722 127.582 346.134 101.225 317.214 83.6134C290.831 67.5475 260.08 59.0172 229.236 59.0033ZM229.018 91.3677C225.414 91.3702 221.408 94.8098 216.021 96.4841C213.279 97.3507 210.535 97.5519 208.132 97.9057C205.729 98.2598 203.746 98.7623 202.399 99.7003C201.03 100.659 199.951 102.285 198.869 104.365C197.786 106.445 196.748 108.905 195.044 111.16C193.351 113.407 191.249 115.091 189.522 116.724C187.794 118.357 186.506 119.876 185.992 121.407L185.99 121.411C185.502 122.846 185.608 124.736 186.004 127.033C186.398 129.331 187.058 131.946 187.058 134.806C187.058 137.659 186.398 140.268 186.004 142.565C185.611 144.862 185.502 146.752 185.99 148.199L185.992 148.203C186.507 149.738 187.791 151.258 189.516 152.891C190.673 153.986 191.969 155.175 193.23 156.47C194.194 154.934 195.13 153.392 196.046 151.844C194.356 150.287 192.736 148.682 192.046 146.624C190.858 143.111 192.789 138.986 192.789 135.115C192.789 131.229 190.859 127.106 192.046 123.608C193.264 119.975 197.394 117.742 199.666 114.72C201.967 111.668 202.917 107.215 206.08 104.997C209.214 102.808 213.891 103.301 217.648 102.11C221.287 100.979 224.747 97.8808 228.772 97.8808C232.796 97.8808 236.271 100.964 239.895 102.11C243.652 103.286 248.344 102.794 251.477 104.997C254.641 107.215 255.592 111.668 257.894 114.72C260.181 117.742 264.294 119.975 265.526 123.608C266.699 127.106 264.783 131.229 264.783 135.115C264.783 139.001 266.715 143.126 265.526 146.624C264.308 150.257 260.181 152.49 257.908 155.512C255.607 158.564 254.655 163.015 251.492 165.233C250.806 165.715 250.041 166.06 249.235 166.334L254.212 169.595L254.159 170.665C254.727 170.459 255.244 170.22 255.676 169.916C257.046 168.958 258.128 167.33 259.211 165.25C260.293 163.17 261.331 160.709 263.033 158.455C264.726 156.207 266.831 154.522 268.559 152.889C270.288 151.255 271.573 149.739 272.088 148.208L272.09 148.201L272.092 148.197C272.58 146.762 272.472 144.877 272.077 142.579C271.684 140.282 271.023 137.666 271.023 134.806C271.023 131.95 271.677 129.334 272.069 127.035C272.46 124.738 272.568 122.85 272.084 121.411C271.559 119.874 270.271 118.355 268.545 116.724C266.817 115.09 264.714 113.407 263.014 111.166L263.012 111.162C261.309 108.907 260.271 106.445 259.188 104.365C258.105 102.284 257.025 100.657 255.656 99.698C254.31 98.7535 252.322 98.247 249.916 97.8933C247.51 97.5392 244.762 97.3411 242.019 96.4841L242.013 96.4821C236.658 94.7908 232.631 91.3702 229.018 91.3677ZM330.729 107.131C350.664 123.911 366.204 145.288 375.964 169.26C375.86 169.143 375.777 169.024 375.673 168.907C362.904 154.929 347.564 143.088 330.768 134.355C326.644 132.21 321.917 130.484 318.386 127.39C315.464 124.826 314.444 121.704 315.061 118.643C315.454 116.692 315.784 115.411 316.835 113.883C316.957 113.703 317.729 112.918 317.39 113.145C318.17 112.624 319.011 112.24 319.846 111.819C323.165 110.146 327.293 107.702 330.729 107.131ZM222.997 107.527L218.725 108.69L223.202 125.177L227.473 124.014L222.997 107.527ZM236.872 107.531L232.317 123.995L236.582 125.177L241.137 108.712L236.872 107.531ZM424.639 111.247L302.666 308.272L210.772 456.712C213.378 456.794 215.986 456.831 218.593 456.824L435.622 131.804C432.313 124.769 428.647 117.908 424.639 111.247ZM206.654 118.523L203.523 121.656L215.595 133.735L218.723 130.604L206.654 118.523ZM251.345 118.529L239.276 130.608L242.404 133.741L254.476 121.66L251.345 118.529ZM276.612 132.784C276.522 133.49 276.455 134.173 276.455 134.804C276.455 136.761 276.994 139.112 277.43 141.659C277.719 143.342 277.962 145.153 277.815 147.024C281.466 148.812 285.064 150.381 287.959 151.759C304.318 159.553 318.523 170.062 331.292 182.872C337.073 188.673 342.619 194.717 348.088 200.81C351.529 204.64 354.447 208.271 357.261 212.018L363.928 201.247C356.449 191.811 348.22 182.922 339.74 174.417C327.344 161.985 313.441 151.145 297.715 143.253C290.725 139.746 283.309 136.863 276.612 132.784ZM215.661 135.888L210.565 140.988L214.346 143.468L218.789 139.021L215.661 135.888ZM242.471 135.894L239.342 139.025L251.411 151.107L254.542 147.975L242.471 135.894ZM221.483 144.453L220.618 147.578L224.504 150.124L225.747 145.634L221.483 144.453ZM234.863 144.455L230.592 145.615L233.399 155.956L233.524 156.037L238.98 159.611L234.863 144.455ZM178.612 156.242C177.535 156.246 176.53 156.517 175.597 157.058C175.193 157.371 174.792 157.682 174.388 157.995C173.807 158.536 173.393 159.176 173.152 159.918C172.779 160.63 172.608 161.399 172.639 162.222C172.609 163.045 172.779 163.814 173.152 164.524C173.393 165.266 173.806 165.906 174.388 166.45C174.737 166.797 175.084 167.146 175.432 167.496C176.178 168.236 177.057 168.748 178.07 169.032C178.6 169.107 179.129 169.173 179.658 169.245C180.737 169.241 181.74 168.97 182.673 168.429C183.074 168.118 183.48 167.807 183.882 167.496C184.466 166.953 184.877 166.31 185.116 165.569C185.491 164.858 185.663 164.092 185.633 163.269C185.663 162.446 185.491 161.677 185.116 160.964C184.877 160.223 184.465 159.58 183.882 159.039C183.535 158.69 183.185 158.342 182.836 157.995C182.091 157.254 181.215 156.739 180.2 156.455C179.672 156.38 179.143 156.314 178.612 156.242ZM270.148 158.828C269.061 159.839 268.06 160.81 267.369 161.727C266.215 163.255 265.231 165.447 264.027 167.759C263.847 168.104 263.644 168.457 263.45 168.808C272.808 172.903 281.825 177.795 290.379 183.403C311.115 196.996 328.946 214.778 342.912 235.194L349.815 224.046C329.389 195.972 301.774 173.193 270.148 158.828ZM448.501 165.963L221.415 456.863C224.506 456.97 227.599 457.014 230.691 456.996L454 190.187C452.607 182.019 450.771 173.932 448.501 165.963ZM412.001 174.811L401.296 190.842C403.022 198.7 404.247 206.749 404.892 214.963L417.463 198.862C416.159 190.657 414.315 182.634 412.001 174.811ZM255.78 175.98C255.145 176.231 254.503 176.35 253.863 176.523L253.681 180.145L258.528 177.743C257.603 177.17 256.713 176.54 255.78 175.98ZM396.121 198.594L386.748 212.63C387.56 220.895 387.751 229.208 387.301 237.499L398.749 222.836C398.448 214.703 397.564 206.601 396.121 198.594ZM139.638 209.65C131.936 209.65 131.948 221.609 139.638 221.609C140.42 221.609 141.068 221.412 141.692 221.19C142.926 219.288 144.165 217.436 145.402 215.587C145.383 212.611 143.464 209.65 139.638 209.65ZM379.323 223.749L371.892 234.879C374.32 239.339 376.63 243.864 378.718 248.494L386.918 237.992C384.575 233.144 382.027 228.401 379.323 223.749ZM319.827 236.485L317.812 239.563L314.649 244.399L313.876 245.578C314.801 247.078 316.329 248.2 318.628 248.2C325.873 248.2 326.203 237.742 319.827 236.485ZM419.637 237.812L403.194 257.457C392.79 321.899 347.623 374.573 287.52 395.665L271.117 415.265C353.437 396.677 415.685 324.806 419.637 237.812ZM364.048 246.625L356.412 258.06C358.369 261.998 360.204 265.997 361.88 270.064L370.262 259.326C369.704 258.049 369.197 256.801 368.568 255.48C367.143 252.485 365.622 249.54 364.048 246.625ZM308.603 253.637L301.652 264.258C305.977 270.288 309.934 276.546 313.274 283.07L320.504 271.393C316.973 265.204 312.902 259.334 308.603 253.637ZM183.849 259.49C181.518 261.907 178.459 262.933 175.552 262.983L179.443 265.991L183.849 259.49ZM394.281 268.106C394.28 268.107 394.281 268.105 394.281 268.106V268.106ZM394.281 268.106L370.508 296.51C370.731 297.425 370.995 298.329 371.202 299.248C367.306 307.101 362.761 314.637 357.609 321.763C357.5 318.671 357.294 315.635 357.018 312.632L348.181 323.191C348.436 326.524 348.588 329.87 348.571 333.226C344.354 338.067 339.81 342.595 335.054 346.881C335.765 343.439 336.327 340.134 336.719 336.886L324.548 351.427C324.274 352.817 323.992 354.208 323.651 355.603C323.584 355.87 323.635 356.04 323.598 356.284C322.808 356.87 322.06 357.516 321.26 358.085C319.607 359.26 317.888 360.31 316.193 361.407L296.67 384.734C315.034 376.732 332.028 365.571 346.531 351.703C370.055 329.208 386.837 299.813 394.283 268.11L394.281 268.106ZM346.426 273.015L338.673 284.628C340.094 287.982 341.421 291.372 342.543 294.834L350.973 284.037C349.682 280.318 348.149 276.651 346.426 273.015ZM203.045 284.29C202.852 284.395 202.574 284.447 202.403 284.566C201.035 285.525 199.955 287.151 198.873 289.23C198.67 289.62 198.448 290.066 198.243 290.478C197.885 291.202 197.501 291.955 197.102 292.708C196.514 293.817 195.865 294.944 195.05 296.023C194.255 297.079 193.361 297.994 192.466 298.854C191.945 299.354 191.421 299.852 190.905 300.319C190.44 300.74 189.954 301.183 189.524 301.589C187.796 303.223 186.51 304.739 185.996 306.271L185.994 306.277L185.992 306.281C185.504 307.716 185.611 309.602 186.006 311.899C186.117 312.546 186.255 313.275 186.387 313.971C186.506 314.595 186.609 315.251 186.712 315.903C186.901 317.108 187.058 318.356 187.058 319.672C187.058 321.098 186.895 322.462 186.681 323.759C186.468 325.054 186.203 326.283 186.006 327.431C185.969 327.654 185.946 327.855 185.913 328.071C185.921 328.079 185.929 328.088 185.936 328.092C185.641 330.07 185.555 331.771 185.988 333.066L185.99 333.072C186.292 333.972 186.916 334.873 187.681 335.788C187.679 335.793 187.677 335.802 187.675 335.802C188.057 336.256 188.527 336.725 188.99 337.193C189.18 337.382 189.309 337.56 189.512 337.752C191.237 339.385 193.339 341.068 195.038 343.31L195.04 343.314C196.744 345.57 197.784 348.029 198.867 350.109C199.95 352.189 201.028 353.819 202.397 354.778C203.743 355.723 205.73 356.231 208.136 356.585C209.26 356.75 210.469 356.886 211.706 357.066C213.09 357.267 214.514 357.533 215.947 357.973C215.977 357.981 216.007 357.979 216.034 357.986L216.04 357.986C221.396 359.678 225.424 363.105 229.037 363.105C232.643 363.105 236.651 359.658 242.042 357.984C243.169 357.633 244.279 357.41 245.378 357.199C247.958 356.703 250.378 356.419 252.374 355.984C252.685 355.917 253.025 355.856 253.312 355.777C254.218 355.526 255.035 355.22 255.671 354.774L255.677 354.772C257.046 353.814 258.126 352.186 259.209 350.106C260.282 348.046 261.312 345.614 262.986 343.377C263.001 343.354 263.007 343.331 263.029 343.308C264.723 341.06 266.828 339.376 268.556 337.742C270.284 336.109 271.57 334.592 272.084 333.061L272.086 333.057L272.088 333.053C272.576 331.618 272.469 329.732 272.074 327.435C271.68 325.138 271.022 322.524 271.022 319.664C271.022 316.807 271.676 314.192 272.067 311.893C272.158 311.359 272.168 310.924 272.223 310.436C269.676 309.74 267.399 308.716 265.284 307.554C265.352 307.712 265.483 307.841 265.539 308.005C266.704 311.44 264.8 315.49 264.8 319.305C264.8 323.12 266.719 327.168 265.539 330.603C264.329 334.17 260.226 336.362 257.969 339.33C255.682 342.326 254.74 346.698 251.598 348.876C248.485 351.039 243.837 350.557 240.09 351.711C236.475 352.822 233.039 355.862 229.041 355.862C225.043 355.862 221.59 352.837 217.99 351.711C214.258 350.557 209.597 351.039 206.484 348.876C203.342 346.699 202.398 342.326 200.111 339.33C197.839 336.362 193.753 334.17 192.543 330.603C191.363 327.154 193.28 323.106 193.28 319.305C193.28 315.49 191.362 311.44 192.543 308.005C193.753 304.439 197.854 302.246 200.111 299.279C202.398 296.283 203.342 291.912 206.484 289.734C207.346 289.14 208.344 288.78 209.385 288.491C207.923 287.609 206.595 286.676 205.412 285.834L205.532 285.921L203.045 284.29ZM82.4942 288.831C82.5311 288.868 82.5617 288.905 82.5936 288.942C95.3625 302.921 110.702 314.762 127.498 323.495C131.622 325.64 136.349 327.366 139.88 330.46C142.802 333.023 143.822 336.145 143.205 339.207C142.811 341.158 142.48 342.439 141.429 343.967C141.307 344.147 140.54 344.931 140.878 344.705C140.098 345.225 139.257 345.612 138.422 346.033C135.13 347.692 131.044 350.098 127.624 350.696C124.941 348.454 122.294 346.158 119.758 343.733C103.537 328.221 90.9294 309.449 82.4942 288.831ZM227.859 289.649C225.084 290.139 222.586 292.075 219.995 292.88C216.94 293.846 213.135 293.448 210.588 295.223C208.016 297.024 207.244 300.638 205.372 303.115C203.525 305.567 200.169 307.38 199.179 310.328C198.213 313.167 199.784 316.514 199.784 319.668C199.784 322.809 198.214 326.156 199.179 329.007C200.169 331.956 203.515 333.768 205.374 336.221C207.246 338.698 208.016 342.31 210.588 344.11C213.135 345.898 216.95 345.501 220.005 346.456C222.95 347.386 225.777 349.887 229.049 349.887C232.321 349.887 235.133 347.374 238.091 346.456C241.158 345.501 244.961 345.898 247.508 344.11C250.08 342.31 250.853 338.698 252.724 336.221C254.571 333.769 257.927 331.956 258.917 329.007C259.883 326.168 258.315 322.821 258.314 319.668C258.314 316.514 259.871 313.168 258.917 310.328C258.056 307.794 255.51 306.08 253.618 304.097L247.51 313.434L222.939 297.331L225.028 294.038C225.962 292.563 226.909 291.103 227.859 289.649ZM331.495 295.379L322.935 308.198C323.72 311.241 324.416 314.304 324.927 317.403L334.441 305.214C333.601 301.886 332.601 298.612 331.495 295.379ZM286.949 313.039C283.962 313.039 281.004 314.963 281.06 318.812C281.156 325.401 280.439 331.93 279.08 338.303L292.547 316.551C291.597 314.219 289.273 313.038 286.949 313.039ZM316.102 318.428L303.993 336.563C303.269 340.476 302.308 344.341 300.979 348.082L316.187 328.599C316.379 325.229 316.348 321.835 316.102 318.428ZM275.84 380.283C275.397 380.42 274.956 380.562 274.517 380.708L268.649 389.496L275.84 380.283Z" fill="#0D0D0D"/>
<path d="M204.702 143.146L225.192 156.576L201.441 192.876L183.236 180.944L199.014 156.831C202.38 151.686 204.276 147.124 204.702 143.146ZM230.776 160.236L249.059 172.22L248.247 188.432L262.797 181.224L279.262 192.016L255.51 228.316L239.045 217.524L249.571 201.552L234.748 209.064L235.78 192.513L225.307 208.519L208.868 197.744L226.669 170.539C228.777 167.317 230.146 163.883 230.776 160.236ZM284.3 195.319L323.827 221.226L315.785 233.517C314.365 230.507 312.793 228.164 311.068 226.49C309.564 225.008 307.213 223.232 304.016 221.162C303.583 220.878 303.142 220.589 302.692 220.294L299.082 217.928L295.766 222.994L310.439 232.612L305.22 240.589L290.547 230.972L287.163 236.142L290.773 238.508C291.5 238.985 292.184 239.433 292.825 239.853C293.448 240.262 294.054 240.659 294.643 241.045C295.797 241.776 296.861 242.4 297.835 242.914C298.809 243.429 299.803 243.858 300.816 244.2C301.84 244.525 302.93 244.769 304.085 244.932C305.24 245.095 306.584 245.196 308.117 245.235L300.075 257.526L262.938 233.184L278.784 208.967C282.615 203.112 284.454 198.563 284.3 195.319Z" fill="#0D0D0D"/>
<path d="M159.243 199.008L178.539 211.655L162.251 236.547C161.662 237.448 161.441 238.182 161.59 238.75C161.738 239.317 162.259 239.919 163.154 240.555C163.189 240.578 163.224 240.6 163.258 240.623C164.02 241.122 164.693 241.266 165.276 241.055C165.883 240.809 166.498 240.209 167.121 239.256L178.121 222.445C180.093 219.431 181.375 216.583 181.967 213.902L201.107 226.447L182.422 255.003C181.674 256.146 180.846 257.052 179.939 257.72C179.061 258.382 177.988 258.83 176.722 259.064C175.484 259.292 174.016 259.134 172.319 258.591C170.632 258.03 168.75 257.069 166.673 255.707L145.715 241.971C144.399 241.108 143.304 240.192 142.429 239.223C141.566 238.236 140.952 237.302 140.589 236.42C140.237 235.521 140.035 234.621 139.981 233.72C139.945 232.83 140.025 232.028 140.22 231.314C140.443 230.595 140.753 229.931 141.15 229.325L155.397 207.551C157.256 204.71 158.538 201.862 159.243 199.008ZM183.735 266.891L191.777 254.6C193.115 257.433 194.51 259.61 195.964 261.132C197.434 262.665 199.494 264.3 202.143 266.036L206.013 268.572C206.982 269.208 207.728 269.486 208.249 269.407C208.788 269.339 209.296 268.942 209.772 268.214C210.225 267.521 210.364 266.932 210.188 266.445C210.029 265.969 209.428 265.167 208.385 264.038L201.585 256.908C200.757 256.018 200.054 255.088 199.478 254.116C198.902 253.144 198.442 252.088 198.1 250.948C197.758 249.808 197.687 248.611 197.889 247.357C198.102 246.086 198.606 244.844 199.399 243.632L201.592 240.28C203.395 237.525 205.745 235.824 208.644 235.174C211.56 234.536 214.594 235.25 217.745 237.315L244.909 255.12L236.867 267.41C235.414 264.527 233.935 262.308 232.43 260.752C230.953 259.19 228.873 257.529 226.189 255.77L222.398 253.285C221.497 252.695 220.798 252.422 220.299 252.466C219.811 252.493 219.324 252.879 218.836 253.624C218.36 254.352 218.225 254.993 218.43 255.549C218.653 256.115 219.355 256.934 220.534 258.004L229.515 266.341C233.182 269.809 233.531 273.813 230.562 278.351L227.229 283.444C226.447 284.639 225.54 285.591 224.507 286.3C223.474 287.009 222.425 287.46 221.359 287.652C220.293 287.845 219.185 287.874 218.036 287.74C216.916 287.599 215.857 287.326 214.861 286.921C213.865 286.515 212.917 286.018 212.016 285.427L183.735 266.891ZM249.843 258.354L282.669 279.87C283.656 280.516 284.552 281.227 285.356 282.002C286.189 282.771 286.934 283.655 287.591 284.655C288.248 285.655 288.71 286.688 288.977 287.754C289.255 288.803 289.279 289.957 289.049 291.217C288.847 292.47 288.344 293.712 287.539 294.942L283.152 301.646C282.166 303.153 281.149 304.33 280.1 305.177C279.062 306.007 277.876 306.553 276.54 306.817C275.205 307.08 273.695 306.932 272.008 306.371C270.339 305.821 268.457 304.86 266.362 303.487L254.416 295.657L246.374 307.947L228.377 296.151L244.121 272.09C245.81 269.509 247.127 267.155 248.074 265.028C249.049 262.895 249.639 260.67 249.843 258.354ZM259.925 287.238L262.262 288.77C263.786 289.769 265.035 289.523 266.01 288.034L267.676 285.487C268.322 284.5 268.53 283.708 268.302 283.113C268.101 282.511 267.395 281.814 266.183 281.019L264.651 280.015L259.925 287.238Z" fill="#0D0D0D"/>
<path d="M334.734 413.652L329.802 406.172L344.782 396.28C347.439 394.526 349.701 393.66 351.569 393.683C353.448 393.7 354.93 394.53 356.014 396.174L357.292 398.112C357.679 398.699 357.955 399.245 358.119 399.75C358.283 400.254 358.329 400.776 358.255 401.315C358.182 401.854 358.077 402.322 357.94 402.719C357.807 403.098 357.586 403.634 357.278 404.328L352.695 414.275L362.985 407.48L367.072 413.678L344.586 428.527L339.982 421.543C339.44 420.721 339.171 419.918 339.175 419.134C339.183 418.332 339.409 417.455 339.852 416.503L344.832 405.903C345.086 405.383 345.136 405.005 344.981 404.77C344.749 404.418 344.259 404.488 343.512 404.981L341.88 406.059C340.461 406.997 339.461 407.71 338.881 408.201C338.304 408.673 337.727 409.285 337.149 410.034C336.564 410.773 335.759 411.979 334.734 413.652ZM366.462 406.493L356.879 395.736C356.071 394.829 355.643 393.762 355.596 392.536C355.558 391.302 355.874 390.051 356.544 388.785C357.206 387.509 358.157 386.318 359.397 385.211L369.186 376.476C370.427 375.369 371.718 374.56 373.06 374.048C374.394 373.527 375.666 373.359 376.878 373.547C378.099 373.726 379.113 374.269 379.921 375.176L389.504 385.933C390.023 386.515 390.394 387.144 390.618 387.818C390.842 388.492 390.917 389.162 390.842 389.829C390.759 390.485 390.591 391.142 390.336 391.798C390.081 392.453 389.736 393.104 389.3 393.75C388.866 394.377 388.412 394.963 387.937 395.506C387.454 396.04 386.94 396.55 386.396 397.035L377.695 404.799C377.046 405.378 376.368 405.906 375.662 406.382C374.947 406.848 374.168 407.252 373.325 407.593C372.491 407.926 371.686 408.138 370.912 408.229C370.128 408.311 369.342 408.216 368.551 407.944C367.762 407.655 367.066 407.171 366.462 406.493ZM375.349 396.197C375.749 396.646 376.151 396.896 376.556 396.946C376.952 396.987 377.407 396.778 377.923 396.318L378.094 396.165C378.609 395.705 378.883 395.281 378.914 394.893C378.946 394.488 378.745 394.041 378.312 393.554L371.026 385.375C370.592 384.888 370.176 384.643 369.778 384.638C369.371 384.623 368.915 384.842 368.409 385.293L368.238 385.446C367.751 385.881 367.5 386.31 367.485 386.735C367.471 387.142 367.663 387.57 368.063 388.019L375.349 396.197ZM383.038 375.733L376.177 369.975L387.708 356.211C389.753 353.77 391.674 352.294 393.471 351.782C395.276 351.26 396.933 351.632 398.442 352.898L400.219 354.39C400.758 354.842 401.178 355.286 401.48 355.723C401.781 356.159 401.973 356.646 402.057 357.184C402.14 357.721 402.173 358.2 402.156 358.619C402.137 359.02 402.079 359.598 401.981 360.351L400.428 371.194L408.35 361.739L414.036 366.51L396.726 387.17L390.321 381.794C389.566 381.161 389.079 380.468 388.859 379.716C388.637 378.945 388.603 378.04 388.757 377.001L390.503 365.419C390.598 364.847 390.538 364.471 390.322 364.291C389.999 364.019 389.55 364.227 388.975 364.913L387.719 366.413C386.626 367.717 385.872 368.686 385.456 369.322C385.038 369.94 384.66 370.691 384.32 371.574C383.97 372.45 383.543 373.836 383.038 375.733ZM412.427 361.338L406.323 357.535L400.849 337.689L408.075 326.074L421.454 334.412L423.238 331.545L428.723 334.963L426.94 337.83L430.813 340.244L423.587 351.859L419.795 349.495L412.427 361.338ZM411.786 349.952L414.228 346.027L409.589 343.136L411.786 349.952Z" fill="#0D0D0D"/>
<path d="M69.14 364.963L57.4941 373.478C56.4877 374.214 55.3569 374.521 54.1018 374.398C52.8391 374.265 51.5962 373.771 50.3731 372.916C49.15 372.06 48.0244 370.928 46.9965 369.52L36.4618 355.09L43.7482 349.762C44.2097 352.12 44.6651 353.844 45.1145 354.935C45.5536 356.032 46.3322 357.347 47.4502 358.878L48.7669 360.682C49.1871 361.258 49.6385 361.574 50.1212 361.631C50.5935 361.695 51.1173 361.517 51.6924 361.097L59.0712 355.701C59.6566 355.273 59.9941 354.83 60.0838 354.37C60.166 353.9 59.9933 353.372 59.5656 352.786L59.3517 352.493C58.4363 351.239 57.7583 350.332 57.3175 349.772C56.8768 349.211 56.3233 348.615 55.6571 347.983C54.9909 347.35 54.3183 346.818 53.6394 346.384C52.953 345.94 51.9821 345.365 50.7266 344.659L57.9821 339.354L68.5167 353.784C68.9894 354.432 69.421 355.109 69.8115 355.817C70.1843 356.522 70.5129 357.306 70.7972 358.17C71.0712 359.042 71.2249 359.868 71.2584 360.647C71.2816 361.434 71.1244 362.211 70.7866 362.978C70.4386 363.753 69.8897 364.415 69.14 364.963ZM50.3684 338.81L37.5049 345.339C36.4273 345.886 35.2933 346.026 34.103 345.76C32.9069 345.482 31.7857 344.859 30.7393 343.892C29.6815 342.93 28.7787 341.711 28.0309 340.236L22.1286 328.588C21.3807 327.112 20.9317 325.663 20.7814 324.241C20.6198 322.824 20.7831 321.556 21.2716 320.438C21.7543 319.308 22.5346 318.47 23.6122 317.923L36.4756 311.394C37.2356 311.008 38.0109 310.821 38.8016 310.834C39.5866 310.835 40.3156 310.993 40.9886 311.308C41.6616 311.623 42.3182 312.061 42.9584 312.621C43.5816 313.175 44.1367 313.778 44.6239 314.43C45.0998 315.087 45.5247 315.785 45.8986 316.523L51.8009 328.171C52.2266 329.011 52.5673 329.909 52.823 330.863C53.0616 331.813 53.1981 332.8 53.2324 333.824C53.2553 334.854 53.0304 335.818 52.5577 336.714C52.085 337.611 51.3553 338.309 50.3684 338.81ZM42.7198 327.642C43.2869 327.354 43.6291 327.016 43.7464 326.629C43.8522 326.247 43.7613 325.772 43.4738 325.204L43.37 325C43.0824 324.432 42.7533 324.078 42.3828 323.938C41.9952 323.792 41.5178 323.863 40.9506 324.151L31.167 329.117C30.5998 329.405 30.2633 329.74 30.1574 330.122C30.0459 330.492 30.1396 330.973 30.4386 331.563L30.5423 331.768C30.8414 332.358 31.1734 332.717 31.5382 332.846C31.9029 332.975 32.3689 332.896 32.9361 332.608L42.7198 327.642ZM14.8143 313.112L11.0175 300.218L17.8469 292.949L8.16448 290.53L4.74517 278.918L30.3102 271.378L33.7295 282.989L22.4459 286.278L32.377 288.663L25.3097 296.003L36.5825 292.678L39.9964 304.271L20.8364 309.923C18.5672 310.592 16.5598 311.655 14.8143 313.112ZM3.73127 271.3L1.59137 256.389L27.9727 252.597L29.874 265.845L12.3493 268.364C8.61018 268.902 5.73756 269.88 3.73127 271.3ZM27.1266 247.736L18.104 247.89C19.0805 246.231 19.7042 244.769 19.9752 243.504C20.2459 242.226 20.3646 240.614 20.3313 238.667L20.2826 235.822C20.2703 235.109 20.1541 234.634 19.9338 234.396C19.7133 234.145 19.336 234.024 18.8018 234.033C18.2932 234.042 17.9457 234.175 17.7593 234.433C17.5727 234.678 17.3727 235.261 17.1595 236.181L15.8871 242.104C15.7216 242.832 15.4914 243.511 15.1968 244.14C14.9023 244.769 14.5245 245.367 14.0636 245.935C13.6026 246.503 13.0188 246.952 12.3121 247.283C11.5927 247.613 10.7879 247.786 9.89776 247.802L7.43704 247.844C5.41506 247.879 3.73822 247.271 2.4066 246.02C1.07477 244.757 0.389059 242.968 0.349413 240.651L0.00765991 220.682L9.03032 220.528C8.0678 222.263 7.45136 223.782 7.1811 225.085C6.89789 226.376 6.77319 228.008 6.80695 229.98L6.85465 232.768C6.86696 233.43 6.97009 233.88 7.16401 234.118C7.34614 234.357 7.71066 234.472 8.25753 234.462C8.79163 234.454 9.16419 234.301 9.37536 234.004C9.58633 233.695 9.75983 233.055 9.89588 232.085L11.0278 224.638C11.5223 221.574 13.4356 220.013 16.7674 219.956L20.5061 219.892C21.3836 219.878 22.1809 220.01 22.8981 220.29C23.6152 220.571 24.2068 220.949 24.6729 221.425C25.139 221.9 25.5364 222.454 25.8652 223.085C26.1811 223.703 26.4082 224.336 26.5465 224.983C26.6847 225.63 26.7595 226.284 26.7708 226.946L27.1266 247.736ZM26.9195 215.444L17.9856 214.172C19.2114 212.688 20.0578 211.342 20.5248 210.136C20.9935 208.917 21.3649 207.343 21.639 205.415L22.0395 202.599C22.1398 201.893 22.0999 201.405 21.9198 201.135C21.7415 200.853 21.388 200.674 20.8591 200.598C20.3554 200.527 19.9912 200.604 19.7665 200.828C19.5436 201.041 19.2544 201.585 18.8987 202.46L16.7085 208.107C16.4301 208.801 16.0959 209.434 15.7059 210.009C15.3159 210.583 14.8485 211.115 14.3038 211.603C13.7591 212.091 13.1118 212.442 12.3619 212.657C11.5993 212.87 10.7773 212.914 9.89588 212.788L7.45938 212.441C5.45726 212.156 3.89726 211.291 2.77943 209.846C1.66341 208.389 1.26841 206.513 1.59447 204.22L4.4052 184.447L13.3392 185.719C12.1152 187.28 11.267 188.683 10.7947 189.927C10.3115 191.157 9.93113 192.749 9.65346 194.702L9.2611 197.462C9.16798 198.117 9.19882 198.578 9.35367 198.844C9.49601 199.109 9.83794 199.28 10.3793 199.357C10.9082 199.432 11.3002 199.34 11.5554 199.081C11.8125 198.809 12.0847 198.205 12.3719 197.268L14.6638 190.093C15.6352 187.145 17.7705 185.906 21.0696 186.376L24.7716 186.903C25.6405 187.027 26.4068 187.284 27.0708 187.674C27.7347 188.064 28.2593 188.531 28.6445 189.075C29.0298 189.618 29.335 190.227 29.5602 190.902C29.7746 191.563 29.8992 192.223 29.9337 192.884C29.9682 193.545 29.9388 194.203 29.8457 194.858L26.9195 215.444ZM31.8135 183.125L13.521 177.312C11.1571 176.561 9.54673 175.475 8.68979 174.054C7.83669 172.621 7.77204 170.764 8.49572 168.483L12.9877 154.325C14.7121 148.89 17.4534 146.769 21.2113 147.964L40.9767 154.245L36.9003 167.093L28.8633 164.539L27.8586 167.705L35.8957 170.259L31.8135 183.125ZM22.3374 165.991L23.3536 162.788L18.8442 161.355C18.1047 161.12 17.6113 161.076 17.364 161.225C17.1046 161.37 16.8826 161.733 16.6978 162.315C16.4745 163.019 16.4191 163.509 16.5316 163.785C16.6442 164.061 17.052 164.311 17.7551 164.534L22.3374 165.991ZM37.3057 147.218L24.509 140.559C23.437 140.001 22.6625 139.161 22.1853 138.037C21.714 136.902 21.5663 135.628 21.7422 134.213C21.9069 132.792 22.3707 131.348 23.1334 129.879L29.1531 118.292C29.9159 116.824 30.831 115.614 31.8984 114.663C32.9546 113.706 34.0791 113.101 35.2721 112.846C36.4709 112.581 37.6063 112.727 38.6784 113.285L51.4751 119.943C52.2312 120.337 52.8344 120.859 53.2849 121.509C53.7413 122.149 54.0377 122.834 54.1741 123.564C54.3104 124.295 54.3378 125.084 54.2562 125.931C54.1692 126.761 54.0029 127.564 53.7573 128.34C53.5005 129.11 53.1815 129.863 52.8001 130.597L46.7803 142.184C46.3461 143.02 45.8158 143.82 45.1893 144.584C44.5574 145.331 43.8356 146.018 43.0236 146.642C42.2003 147.261 41.2869 147.64 40.2836 147.777C39.2802 147.915 38.2875 147.729 37.3057 147.218ZM41.9185 134.489C42.4828 134.783 42.9565 134.865 43.3397 134.734C43.7117 134.597 44.0443 134.247 44.3377 133.682L44.4432 133.479C44.7365 132.914 44.8322 132.44 44.7302 132.057C44.6227 131.657 44.2869 131.31 43.7227 131.017L33.9898 125.952C33.4255 125.658 32.9574 125.58 32.5855 125.716C32.2194 125.841 31.8839 126.198 31.5788 126.785L31.4733 126.988C31.1682 127.575 31.0696 128.055 31.1773 128.427C31.2852 128.798 31.6213 129.131 32.1855 129.425L41.9185 134.489ZM44.4196 93.5945L60.0944 75.1537C60.5641 74.6011 61.0657 74.109 61.5994 73.6777C62.1316 73.2283 62.7317 72.8367 63.3995 72.5029C64.0673 72.169 64.7363 71.9615 65.4065 71.8803C66.0752 71.7812 66.7887 71.8455 67.5469 72.0732C68.2955 72.2927 69.0136 72.6952 69.7014 73.2808L80.7162 82.6586C81.5106 83.335 82.0819 84.097 82.4299 84.9448C82.7683 85.7844 82.89 86.6234 82.7951 87.4618C82.6989 88.2823 82.4792 89.0811 82.1358 89.8584C81.7909 90.6176 81.3383 91.3269 80.7779 91.9862L65.8078 109.598L52.3518 98.1418C50.9761 96.9706 49.6571 95.998 48.3947 95.224C47.1322 94.45 45.8072 93.9068 44.4196 93.5945ZM70.0079 95.5513L70.7126 94.7223C71.3059 94.0242 71.6102 93.4895 71.6254 93.118C71.6487 92.7369 71.3795 92.3071 70.8176 91.8287L62.4185 84.6778C61.8566 84.1995 61.3897 84.0024 61.0175 84.0866C60.6536 84.1612 60.1749 84.5475 59.5815 85.2456L58.8769 86.0745L70.0079 95.5513ZM70.2894 64.1506L92.4666 45.392L98.2915 52.2897C96.271 52.5987 94.6169 53.1146 93.3288 53.8375C92.1932 54.4647 90.7358 55.5391 88.9566 57.0607C88.7138 57.2661 88.4661 57.4756 88.2135 57.6893L86.1882 59.4024L88.5895 62.2461L96.8222 55.2825L100.603 59.7594L92.3703 66.723L94.821 69.625L96.8464 67.9118C97.2544 67.5667 97.638 67.2422 97.9974 66.9382C98.3471 66.6424 98.6872 66.3548 99.0174 66.0754C99.6504 65.5234 100.204 65.0053 100.677 64.5212C101.151 64.0372 101.578 63.5265 101.957 62.9893C102.327 62.4423 102.662 61.8427 102.96 61.1903C103.259 60.5379 103.554 59.7633 103.846 58.8665L109.671 65.7642L88.834 83.389L77.3565 69.7978C74.5815 66.5118 72.2258 64.6294 70.2894 64.1506ZM108.972 33.9448L130.72 22.5795C131.363 22.2436 132.01 21.9703 132.66 21.7596C133.316 21.5317 134.005 21.3801 134.726 21.3048C135.447 21.2295 136.124 21.2631 136.758 21.4057C137.386 21.537 137.989 21.8253 138.566 22.2706C139.136 22.7047 139.616 23.294 140.005 24.0387L142.389 28.6085C143.578 30.8877 143.045 33.0834 140.789 35.1956L150.819 42.1673L138.152 48.7868L130.354 42.5444L134.584 50.6515L122.797 56.8115L114.584 41.0711C112.665 37.3927 110.795 35.0173 108.972 33.9448ZM127.633 37.2461L129.155 36.4507C129.583 36.2268 129.874 35.9313 130.027 35.5643C130.174 35.1859 130.124 34.7598 129.876 34.2859L128.843 32.3057C128.502 31.6512 128.143 31.2931 127.766 31.2315C127.401 31.1639 126.812 31.3422 126.001 31.7664L125.037 32.2701L127.633 37.2461ZM144.602 16.0897L172.206 7.07355L175.006 15.6592C173.018 15.1837 171.291 15.038 169.826 15.222C168.538 15.3749 166.783 15.8207 164.563 16.5595C164.26 16.6582 163.952 16.7589 163.638 16.8616L161.117 17.685L162.271 21.2246L172.518 17.8776L174.335 23.45L164.088 26.797L165.266 30.4092L167.787 29.5857C168.295 29.4199 168.772 29.2639 169.22 29.1178C169.655 28.9756 170.078 28.8374 170.489 28.7031C171.283 28.4303 171.991 28.159 172.612 27.8892C173.233 27.6194 173.82 27.3071 174.373 26.9524C174.923 26.5855 175.458 26.1561 175.98 25.6643C176.502 25.1725 177.067 24.5662 177.675 23.8454L180.475 32.431L154.539 40.9022L149.023 23.9851C147.689 19.895 146.215 17.2632 144.602 16.0897ZM183.344 25.5188L181.042 11.2692C180.843 10.0377 181.082 8.89002 181.761 7.82602C182.452 6.75999 183.455 5.87542 184.772 5.17234C186.088 4.46926 187.607 3.97851 189.327 3.70008L206.955 0.846731L208.396 9.76216C206.086 9.10441 204.344 8.72878 203.169 8.63524C201.993 8.52914 200.469 8.62747 198.598 8.93029L196.395 9.28698C195.692 9.40078 195.205 9.66001 194.936 10.0647C194.664 10.4568 194.585 11.0047 194.699 11.7084L196.158 20.7369C196.273 21.4532 196.516 21.9555 196.885 22.244C197.266 22.5304 197.814 22.6157 198.53 22.4999L198.888 22.442C200.42 22.194 201.535 22.0006 202.234 21.8617C202.933 21.7227 203.715 21.4994 204.58 21.1918C205.445 20.8841 206.225 20.5258 206.919 20.1169C207.626 19.706 208.578 19.1005 209.775 18.3006L211.21 27.1783L193.582 30.0317C192.791 30.1597 191.992 30.2375 191.185 30.265C190.388 30.2779 189.54 30.2153 188.642 30.077C187.741 29.9262 186.937 29.689 186.227 29.3654C185.516 29.0292 184.895 28.5366 184.365 27.8874C183.833 27.2256 183.493 26.4361 183.344 25.5188ZM214.027 0.151863L243.063 -3.05176e-05L243.11 9.03113C241.362 7.97102 239.763 7.30473 238.311 7.03227C237.038 6.78435 235.231 6.67289 232.891 6.69785C232.573 6.69952 232.249 6.70124 231.918 6.70307L229.266 6.71693L229.285 10.4401L240.064 10.3838L240.095 16.2454L229.316 16.3018L229.334 20.1014L231.986 20.0875C232.52 20.0846 233.022 20.082 233.493 20.0795C233.951 20.077 234.396 20.0747 234.829 20.0724C235.668 20.0554 236.424 20.0133 237.098 19.946C237.772 19.8788 238.426 19.7609 239.061 19.592C239.696 19.4105 240.337 19.1653 240.984 18.8564C241.632 18.5475 242.354 18.1428 243.153 17.6422L243.2 26.6733L215.919 26.816L215.826 9.02101C215.804 4.71865 215.205 1.76231 214.027 0.151863ZM250.41 0.412544L274.231 4.16758C274.947 4.28046 275.628 4.45226 276.274 4.68297C276.935 4.90309 277.575 5.21022 278.196 5.60439C278.816 5.99856 279.336 6.4606 279.754 6.99051C280.175 7.50784 280.48 8.14863 280.669 8.91288C280.872 9.66654 280.903 10.4897 280.763 11.3825L279.997 16.2486C279.825 17.3426 279.552 18.2596 279.178 18.9995C278.806 19.727 278.279 20.3333 277.597 20.8186C276.916 21.304 276.032 21.6027 274.946 21.715C273.872 21.8292 272.575 21.7665 271.055 21.5269L262.385 20.1603L260.981 29.0816L247.921 27.0229L250.67 9.55752C250.965 7.68399 251.109 6.03154 251.103 4.60017C251.111 3.15821 250.88 1.76234 250.41 0.412544ZM263.347 14.0493L265.043 14.3167C266.149 14.491 266.787 14.0375 266.957 12.9561L267.248 11.1077C267.361 10.391 267.278 9.8947 267 9.61886C266.736 9.33242 266.164 9.1199 265.284 8.98126L264.173 8.806L263.347 14.0493ZM282.31 26.7783L286.788 13.0567C287.175 11.8709 287.913 10.9607 289.004 10.3261C290.106 9.69541 291.403 9.36951 292.895 9.34834C294.387 9.32715 295.961 9.58724 297.618 10.1286L314.592 15.6767L311.791 24.2618C310.039 22.618 308.663 21.4852 307.662 20.8634C306.664 20.2294 305.265 19.6181 303.464 19.0293L301.342 18.3357C300.665 18.1144 300.114 18.1218 299.689 18.3579C299.268 18.5819 298.947 19.0327 298.726 19.7103L295.889 28.4042C295.664 29.0939 295.649 29.6515 295.845 30.077C296.053 30.5065 296.501 30.8338 297.19 31.0591L297.535 31.1717C299.01 31.6538 300.09 31.9934 300.775 32.1905C301.46 32.3876 302.257 32.5478 303.167 32.671C304.077 32.7943 304.933 32.8333 305.738 32.7882C306.554 32.747 307.677 32.6455 309.108 32.4838L306.319 41.0326L289.344 35.4845C288.582 35.2356 287.836 34.9382 287.106 34.5925C286.392 34.2386 285.667 33.7942 284.932 33.2593C284.201 32.7122 283.594 32.1323 283.112 31.5193C282.633 30.8943 282.307 30.1717 282.133 29.3516C281.963 28.5194 282.022 27.6616 282.31 26.7783ZM310.556 42.6783L319.404 25.633C320.548 23.4303 321.892 22.0278 323.437 21.4255C324.994 20.829 326.833 21.0824 328.955 22.1856L342.126 29.0337C347.183 31.6626 348.802 34.7279 346.984 38.2296L337.424 56.6474L325.472 50.433L329.359 42.9439L326.413 41.4124L322.526 48.9015L310.556 42.6783ZM329.044 36.2608L332.024 37.81L334.205 33.608C334.563 32.9189 334.69 32.4398 334.586 32.1706C334.488 31.8901 334.168 31.6091 333.626 31.3274C332.971 30.987 332.498 30.8488 332.207 30.9126C331.916 30.9764 331.601 31.3359 331.261 31.991L329.044 36.2608ZM344.969 54.2278L353.711 42.7464C354.443 41.7846 355.403 41.1643 356.591 40.8857C357.788 40.6148 359.069 40.687 360.431 41.1021C361.802 41.5072 363.145 42.2112 364.46 43.2142L374.839 51.1296C376.155 52.1325 377.189 53.2415 377.943 54.4566C378.705 55.6615 379.109 56.8739 379.155 58.0937C379.212 59.3213 378.875 60.416 378.142 61.3778L369.401 72.8592C368.884 73.5376 368.267 74.0433 367.55 74.3765C366.843 74.7173 366.118 74.8925 365.375 74.9021C364.632 74.9118 363.85 74.804 363.03 74.5787C362.228 74.3511 361.466 74.05 360.744 73.6753C360.03 73.2905 359.344 72.8474 358.686 72.3459L348.307 64.4305C347.558 63.8596 346.861 63.2 346.215 62.4517C345.588 61.7009 345.036 60.8718 344.559 59.9644C344.09 59.0468 343.874 58.0816 343.91 57.0686C343.945 56.0556 344.299 55.1087 344.969 54.2278ZM356.712 60.9508C356.327 61.457 356.166 61.9102 356.229 62.3104C356.3 62.7005 356.588 63.0884 357.094 63.4741L357.276 63.613C357.782 63.9987 358.232 64.174 358.627 64.1388C359.039 64.1013 359.438 63.8293 359.823 63.3231L366.472 54.5905C366.857 54.0843 367.015 53.6362 366.944 53.2461C366.883 52.8638 366.59 52.472 366.064 52.0708L365.882 51.932C365.356 51.5308 364.9 51.3516 364.516 51.3945C364.131 51.4374 363.747 51.712 363.361 52.2182L356.712 60.9508Z" fill="#0D0D0D"/>
<path d="M298.67 33.3624C297.574 32.9836 292.832 31.3445 292.832 31.3445C292.832 31.3445 292.506 32.2885 291.838 34.2238L289.947 39.7032L297.882 42.4461C297.218 41.4695 296.823 40.7631 296.698 40.3268C296.562 39.8863 296.594 39.3757 296.795 38.7942L297.031 38.1097L298.67 33.3624Z" fill="#0D0D0D"/>
<path d="M351.438 23.0255L331.706 12.4902L328.688 18.1512L348.42 28.6866L351.438 23.0255Z" fill="#0D0D0D"/>
<path d="M6.90477 169.441L13.5701 148.076L7.45038 146.164L0.785057 167.529L6.90477 169.441Z" fill="#0D0D0D"/>
</g>
<defs>
<clipPath id="clip0_2395_135">
<rect width="454" height="457" fill="white"/>
</clipPath>
</defs>
</svg>
