<svg width="398" height="264" viewBox="0 0 398 264" fill="none" xmlns="http://www.w3.org/2000/svg">
<path d="M67.9021 31.4258C67.9782 39.2009 68.1305 54.7497 67.7709 62.4454C67.4113 70.1412 66.5384 69.9849 62.9804 70.0261C59.4224 70.0674 53.1798 70.3063 48.058 73.1966C42.9362 76.0869 38.9369 81.6281 37.1556 87.2299C35.3743 92.8316 35.8108 98.4923 38.6234 102.522C41.4359 106.551 46.6228 108.949 51.8756 109.73C57.1284 110.511 62.4472 109.674 65.1316 109.735C67.8159 109.795 67.8667 110.751 67.8717 118.691C67.8767 126.631 67.8363 141.555 67.3437 149.669C66.8513 157.782 65.9072 159.087 63.5015 161.954C61.0958 164.822 57.2285 169.251 48.9614 170.579C40.6944 171.907 28.0266 170.133 19.3321 164.716C10.6377 159.3 5.9177 150.239 3.0142 134.276C0.1107 118.314 -0.975413 95.4505 1.00893 75.867C2.99327 56.2835 8.04822 39.9815 14.2152 29.9688C20.3822 19.9562 27.6601 16.2344 36.3244 15.2698C44.9886 14.3052 55.0376 16.0971 60.5186 17.9541C65.9996 19.8111 66.9131 21.7317 67.3695 22.6912C67.8259 23.6507 67.826 23.6507 67.9021 31.4258Z" fill="#794A30"/>
<path d="M94.7354 11.002C94.1929 11.007 93.7251 11.0211 93.3491 11.0314C91.8451 11.0727 91.845 11.0712 89.752 11.8851C87.659 12.6992 83.4716 14.3293 80.1412 17.9594C76.8108 21.5896 74.3367 27.2203 73.4236 49.054C72.5104 70.8877 73.1575 108.92 74.5637 130.413C75.9699 151.906 78.1365 156.856 82.7855 160.214C87.4345 163.571 94.5642 165.338 100.803 164.946C107.041 164.555 112.389 162.007 116.411 151.928C120.433 141.849 123.132 124.241 123.819 102.173C124.507 80.1053 123.183 53.5787 120.664 38.2045C118.145 22.8303 114.432 18.608 110.933 15.9026C107.434 13.1972 104.149 12.0106 101.003 11.4583C98.6444 11.044 96.3629 10.9871 94.7354 11.002ZM95.8515 53.7864C95.9846 53.7915 96.115 53.8184 96.2449 53.8584C97.6305 54.2871 98.7709 56.3029 99.8018 66.5753C100.833 76.8476 101.755 95.3779 101.298 106.727C100.841 118.075 99.0042 122.243 97.4091 123.072C95.814 123.9 94.4601 121.387 93.531 109.61C92.6019 97.8335 92.0994 76.7911 92.6639 65.6896C93.1755 55.6289 94.5644 53.7342 95.8515 53.7864Z" fill="#794A30"/>
<path d="M128 157.673C128.682 158.53 129.362 159.386 133.423 158.815C137.485 158.243 144.927 156.246 149.197 154.502C153.466 152.758 154.562 151.267 154.649 144.738C154.735 138.208 153.811 126.64 153.517 120.648C153.222 114.655 153.557 114.241 154.771 117.412C155.985 120.584 158.076 127.339 159.514 130.85C160.951 134.361 161.733 134.628 163.626 134.107C165.519 133.587 168.525 132.28 170.261 131.18C171.997 130.081 172.464 129.188 172.606 125.834C172.748 122.479 172.565 116.663 172.744 114.183C172.922 111.702 173.46 112.558 174.363 118.172C175.267 123.787 176.536 134.159 177.572 139.239C178.608 144.318 179.41 144.106 183.482 142.335C187.553 140.563 194.894 137.231 199.042 134.931C203.189 132.63 204.144 131.36 201.59 111.241C199.037 91.122 192.975 52.1544 189.503 32.4352C186.031 12.716 185.148 12.2467 181.223 12.0714C177.298 11.896 170.333 12.0157 166.408 12.7476C162.482 13.4794 161.599 14.8231 160.777 19.0665C159.954 23.31 159.193 30.4519 158.508 33.5859C157.823 36.7199 157.214 35.8456 155.702 32.2009C154.19 28.5562 151.789 22.1769 150.461 18.8348C149.133 15.4927 148.907 15.2632 148.519 14.7186C148.131 14.174 147.589 13.3237 144.306 13.0892C141.022 12.8548 131.747 13.4401 130.313 14.2199C128.878 14.9997 128.845 19.4706 128.822 22.379" fill="#794A30"/>
<path d="M210.199 14.0005C207.761 13.9865 203.936 14.2898 201.696 14.8876C199.457 15.4855 198.806 16.3774 199.048 26.0281C199.289 35.6788 200.424 54.086 202.789 72.384C205.154 90.6821 208.748 108.869 211.308 118.233C213.867 127.598 215.391 128.14 217.74 127.979C220.088 127.818 223.262 126.953 225.053 125.8C226.844 124.647 227.254 123.203 226.866 113.029C226.477 102.855 225.289 83.9514 223.135 66.104C220.981 48.2566 217.86 31.4673 215.774 22.9064C213.689 14.3456 212.638 14.0146 210.199 14.0005Z" fill="#794A30"/>
<path d="M267.289 14.4691C262.513 12.5907 253.23 9.98278 245.177 11.4105C237.124 12.8381 230.303 18.3018 227.188 24.501C224.074 30.7003 224.667 37.6332 226.591 43.1934C228.515 48.7536 231.77 52.9409 236.357 55.1302C240.943 57.3196 246.86 57.5124 251.105 58.5598C255.35 59.6072 257.922 61.508 258.393 64.1754C258.864 66.8427 257.237 70.277 254.847 71.5901C252.456 72.9031 249.302 72.0951 245.499 70.9335C241.697 69.7719 237.246 68.2568 234.372 70.7686C231.498 73.2804 230.202 79.8184 229.936 86.2788C229.67 92.7392 230.433 99.1211 233.9 103.133C237.367 107.146 243.535 108.789 250.085 108.982C256.635 109.175 263.567 107.916 267.691 100.764C271.814 93.6108 273.13 80.5624 272.99 70.8885C272.85 61.2146 271.252 54.9153 268.033 51.3563C264.813 47.7973 259.971 46.98 254.501 45.5431C249.031 44.1061 242.932 42.0492 240.129 39.7675C237.325 37.4858 237.817 34.9789 239.801 32.5586C241.786 30.1383 245.262 27.8059 249.427 27.462C253.592 27.118 258.444 28.7617 261.905 29.124C265.365 29.4863 267.435 28.568 268.987 26.608C270.538 24.648 271.573 21.6453 271.955 19.5704C272.337 17.4955 272.066 16.3476 267.289 14.4691Z" fill="#794A30"/>
<path d="M303.064 14.0392C298.295 14.229 289.935 15.0737 284.782 18.2859C279.63 21.4981 277.687 27.0766 277.031 32.5489C276.375 38.0212 277.005 43.3863 280.666 47.0152C284.327 50.644 291.017 52.5376 295.039 55.0444C299.061 57.5513 300.416 60.67 299.45 63.18C298.483 65.6899 295.196 67.5927 291.248 67.5885C287.299 67.5844 282.688 65.6722 279.794 65.5839C276.899 65.4955 275.723 67.2313 274.899 71.5249C274.074 75.8185 273.602 82.6686 274.443 86.6273C275.284 90.586 277.437 91.6534 280.861 92.9343C284.285 94.2151 288.98 95.7095 294.225 94.6277C299.471 93.5459 305.268 89.8887 308.466 84.5521C311.664 79.2155 312.263 72.1982 311.911 65.6868C311.559 59.1754 310.257 53.1699 307.658 49.5029C305.059 45.8359 301.163 44.5085 298.043 43.4596C294.924 42.4107 292.582 41.6403 292.114 39.3105C291.645 36.9807 293.053 33.0916 296.099 31.2347C299.146 29.3779 303.83 29.5543 306.34 28.8446C308.849 28.135 309.185 26.5385 309.464 24.0463C309.742 21.5541 309.962 18.1661 309.485 16.2398C309.008 14.3134 307.832 13.8493 303.064 14.0392Z" fill="#794A30"/>
<path d="M338.178 14.0029C334.807 13.9795 330.818 14.09 327.458 14.6342C322.082 15.505 318.316 17.489 316.292 19.6069C314.268 21.7248 313.987 23.9768 313.436 34.3959C312.885 44.8151 312.063 63.3988 312.003 73.9569C311.944 84.515 312.646 87.0464 314.815 88.1898C316.985 89.3332 320.621 89.0917 323.847 88.531C327.073 87.9704 329.888 87.09 330.944 84.4503C332.001 81.8105 331.301 77.4094 331.023 74.505C330.745 71.6005 330.919 69.9137 332.068 69.1669C333.217 68.4202 337.18 67.7581 338.178 68.5114C339.175 69.2648 339.116 74.2956 339.291 77.0517C339.466 79.8078 339.858 81.8839 341.507 82.8142C343.156 83.7446 346.061 83.5314 348.926 82.5214C351.791 81.5114 354.617 79.7061 354.963 73.1053C355.309 66.5045 353.173 55.1084 351.72 44.8839C350.267 34.6594 349.496 25.6056 348.79 20.6949C348.084 15.7842 347.444 15.0168 347.123 14.6315C346.802 14.2462 346.801 14.2447 346.801 14.2447L343.31 14.1265C342.001 14.0813 340.2 14.0169 338.178 14.0029ZM332.724 29.5065C333.409 29.4972 334.118 30.4755 334.72 32.3193C335.821 35.6907 336.566 41.9572 336.931 45.2493C337.296 48.5414 337.282 48.8597 336.017 49.1178C334.751 49.3759 332.234 49.5756 330.855 49.7115C329.477 49.8474 329.24 49.9191 329.12 49.6871C329.001 49.4553 328.999 48.9174 329.282 45.2517C329.565 41.586 330.134 34.7912 331.148 31.6313C331.608 30.1994 332.156 29.5144 332.724 29.5065Z" fill="#794A30"/>
<path d="M373.333 11.001C372.833 11.0033 372.373 11.0072 371.965 11.0118C368.696 11.0482 368.694 11.0498 368.245 11.1046C367.796 11.1594 366.898 11.2677 365.031 12.0222C363.164 12.7766 360.33 14.1779 358.73 21.6508C357.131 29.1237 356.767 42.6682 357.127 52.4407C357.487 62.2131 358.57 68.2105 360.352 72.5226C362.134 76.8348 364.612 79.462 368.912 80.4833C373.212 81.5046 379.335 80.9223 383.937 79.5207C388.539 78.1191 391.622 75.8968 393.903 71.3108C396.184 66.7247 397.663 59.7756 397.948 50.9822C398.233 42.1887 397.325 31.5507 395.519 24.5518C393.713 17.553 391.008 14.1919 386.388 12.5472C382.345 11.1081 376.837 10.985 373.333 11.001ZM376.662 29.659C377.712 29.6528 378.732 30.5882 379.41 35.3683C380.108 40.3025 380.444 49.3347 379.66 54.1058C378.876 58.8769 376.971 59.3893 375.502 59.054C374.033 58.7188 372.998 57.5332 372.697 52.8276C372.397 48.1221 372.832 39.8955 373.602 35.2967C374.371 30.6979 375.475 29.73 376.56 29.6643C376.596 29.6622 376.628 29.659 376.662 29.659Z" fill="#794A30"/>
<path d="M317.775 10.5363C316.888 9.69662 315.517 7.60771 315.12 6.15459C314.724 4.70148 315.304 3.88546 316.9 2.96492C318.497 2.04436 321.109 1.0199 324.074 0.776232C327.039 0.532566 330.357 1.06916 332.926 1.6126C335.495 2.15603 337.316 2.70595 338.936 2.56144C340.557 2.41692 341.979 1.57875 343.002 0.886953C344.026 0.195157 344.651 -0.350348 345.357 0.273619C346.063 0.897586 346.85 2.68931 346.981 3.95708C347.111 5.22485 346.587 5.96993 345.269 6.97866C343.95 7.9874 341.838 9.26021 338.85 9.40244C335.863 9.54468 332.001 8.55567 329.369 7.96128C326.737 7.36689 325.335 7.16732 323.89 7.6661C322.444 8.16489 320.957 9.36232 320.011 10.1651C319.066 10.9679 318.662 11.376 317.775 10.5363Z" fill="#794A30"/>
<path d="M13.0221 181.001C11.1087 181.008 9.40831 181.107 8.16181 181.208C5.31265 181.438 4.83561 181.684 4.48726 182.239C4.1389 182.794 3.91983 183.658 4.02762 194.36C4.13542 205.063 4.56913 225.603 5.148 236.318C5.72687 247.034 6.44746 247.924 10.1049 247.995C13.7623 248.067 20.3577 247.319 25.1034 245.346C29.8492 243.373 32.747 240.174 34.8422 234.278C36.9374 228.382 38.2308 219.789 37.9657 211.325C37.7006 202.861 35.8761 194.527 32.8652 189.42C29.8543 184.312 25.6546 182.432 20.9431 181.598C18.2929 181.129 15.4821 180.99 13.0221 181.001ZM16.7097 197.669C17.0004 197.679 17.3741 197.95 17.851 198.42C19.5464 200.093 22.5356 204.293 23.8368 208.84C25.138 213.386 24.7523 218.28 23.5182 222.119C22.284 225.958 20.1995 228.743 18.9504 230.331C17.7013 231.918 17.2878 232.31 16.8272 226.798C16.3666 221.287 15.8588 209.873 15.806 203.738C15.7681 199.328 15.9668 197.645 16.7097 197.669Z" fill="#794A30"/>
<path d="M42.6387 182.726C41.4278 184.118 41.1604 185.319 40.7923 194.932C40.4242 204.545 39.955 222.569 40.0035 232.043C40.0518 241.518 40.6169 242.442 41.4165 243.603C42.2161 244.764 43.2502 246.162 46.9277 246.727C50.6053 247.291 56.9258 247.024 60.2468 245.53C63.5678 244.036 63.8907 241.315 63.9765 238.111C64.0624 234.907 63.911 231.22 63.5533 229.471C63.1955 227.723 62.6305 227.915 61.1073 228.117C59.5841 228.319 57.1023 228.53 54.7592 227.435C52.4161 226.341 50.2117 223.939 50.158 221.545C50.1044 219.152 52.2029 216.769 54.5619 215.728C56.921 214.686 59.539 214.986 60.9127 214.759C62.2865 214.532 62.4177 213.777 62.4455 212.236C62.4735 210.695 62.3976 208.368 62.2192 207.029C62.0408 205.689 61.7583 205.338 60.6283 205.255C59.4983 205.172 57.521 205.359 55.7603 204.197C53.9997 203.034 52.4561 200.52 52.5694 198.844C52.6828 197.168 54.4533 196.333 56.0831 195.979C57.7129 195.625 59.201 195.752 60.3679 193.493C61.5349 191.235 62.3823 186.59 62.5948 183.898C62.8072 181.205 62.3835 180.464 59.8716 179.835C57.3597 179.205 52.7593 178.689 49.3814 179.221C46.0036 179.754 43.8496 181.335 42.6387 182.726Z" fill="#794A30"/>
<path d="M102.003 170.001C98.8195 170.036 94.5498 171.865 91.3329 173.704C87.7833 175.732 84.8594 178.674 83.7962 180.194C82.6083 182.532 83.1037 187.774 83.096 192.973C83.0808 203.709 83.0671 224.629 83.2691 235.76C83.471 246.891 83.888 248.231 85.3696 249.468C86.8513 250.705 89.396 251.839 91.1599 251.985C92.9237 252.13 93.909 251.288 94.3513 247.723C94.7937 244.158 94.6935 237.871 94.8023 234.828C94.9112 231.786 95.2273 231.989 95.6992 234.154C96.1711 236.319 96.801 240.445 98.6441 243.717C100.487 246.988 103.543 249.405 105.651 250.363C107.76 251.32 108.92 250.821 109.978 248.789C111.036 246.757 111.992 243.19 112 240.921C112.008 238.652 111.068 237.68 110.143 236.875C109.218 236.069 108.307 235.43 107.621 233.502C106.934 231.573 106.472 228.355 105.937 225.406C105.402 222.456 104.793 219.774 103.994 218.019C103.474 216.876 102.872 216.129 102.242 215.516C102.518 215.154 102.817 214.719 103.155 214.187C104.7 211.751 107.027 207.378 108.701 202.229C110.375 197.08 111.395 191.154 111.418 186.66C111.441 182.166 110.467 179.105 109.155 176.174C107.843 173.243 106.193 170.441 102.953 170.049C102.649 170.012 102.333 169.997 102.003 170.001ZM94.4064 186.134C94.832 186.137 95.4813 186.452 96.4413 188.129C97.623 190.192 99.2762 194.316 99.0323 197.809C98.7884 201.302 96.6474 204.166 95.4553 205.618C94.2633 207.07 94.0186 207.111 93.5226 205.723C93.0267 204.334 92.2805 201.513 92.02 198.733C91.7595 195.953 91.984 193.215 92.3216 191.214C92.6589 189.213 93.1089 187.948 93.3338 187.315C93.5587 186.682 93.5579 186.682 93.6039 186.579C93.6501 186.477 93.7443 186.272 94.1468 186.169C94.2222 186.149 94.3081 186.133 94.4064 186.134Z" fill="#794A30"/>
<path d="M137.592 249.336C135.315 251.465 131.639 252.773 127.834 252.972C124.03 253.172 120.095 252.261 117.987 251.279C115.879 250.297 115.599 249.243 114.938 236.364C114.277 223.485 113.235 198.782 113.034 186.198C112.834 173.614 113.474 173.152 115.933 172.098C118.391 171.044 122.666 169.398 125.753 168.586C128.839 167.775 130.735 167.798 132.003 168.703C133.271 169.608 133.912 171.392 134.115 174.444C134.318 177.495 134.084 181.813 133.711 183.898C133.338 185.983 132.825 185.835 131.032 186.468C129.24 187.101 126.169 188.516 125.051 190.227C123.932 191.939 124.766 193.946 125.997 195.311C127.227 196.677 128.854 197.403 130.425 197.997C131.996 198.591 133.511 199.053 134.441 199.509C135.371 199.965 135.717 200.414 135.953 202.998C136.189 205.583 136.316 210.303 135.998 212.64C135.681 214.976 134.919 214.93 133.287 214.935C131.655 214.939 129.154 214.995 127.803 216.38C126.453 217.766 126.254 220.48 126.779 222.833C127.303 225.187 128.548 227.179 130.109 228.212C131.67 229.245 133.546 229.319 134.941 229.011C136.336 228.703 137.251 228.014 138.05 227.976C138.849 227.938 139.53 228.548 140.106 230.878C140.683 233.208 141.155 237.259 140.952 240.758C140.748 244.258 139.869 247.208 137.592 249.336Z" fill="#794A30"/>
<path d="M163.549 161.008C163.927 161.759 163.92 162.168 164.272 166.829C164.624 171.489 165.336 180.399 165.457 185.338C165.578 190.278 165.108 191.247 163.524 191.848C161.939 192.449 159.238 192.684 157.156 193.819C155.074 194.954 153.614 196.99 152.968 199.959C152.322 202.929 152.491 206.831 153.637 209.735C154.783 212.639 156.904 214.545 159.143 215.624C161.381 216.703 163.738 216.957 165.11 217.295C166.483 217.634 166.872 218.057 167.66 223.007C168.449 227.956 169.638 237.432 169.931 242.619C170.225 247.805 169.623 248.703 167.293 249.841C164.963 250.978 160.904 252.357 156.515 251.915C152.125 251.474 147.406 249.21 144.366 241.481C141.327 233.751 139.969 220.555 138.739 208.678C137.51 196.802 136.409 186.246 137.359 178.431C138.31 170.616 141.312 165.543 145.702 162.606C150.092 159.669 155.869 158.869 159.139 159.017C162.409 159.164 163.172 160.257 163.549 161.008Z" fill="#794A30"/>
<path d="M170.801 156.074C166.852 158.146 166.665 159.457 167.243 170.97C167.821 182.483 169.163 204.196 170.453 219.173C171.743 234.15 172.981 242.388 174.223 246.746C175.465 251.104 176.71 251.583 180.043 251.841C183.376 252.1 188.796 252.139 192.654 251.202C196.512 250.265 198.808 248.351 199.99 246.7C201.171 245.049 201.238 243.659 200.594 239.851C199.949 236.043 198.592 229.817 197.418 226.995C196.243 224.172 195.252 224.755 192.613 225.136C189.974 225.516 185.687 225.693 183.468 224.999C181.249 224.305 181.1 222.738 183.233 220.968C185.366 219.197 189.779 217.224 192.213 215.521C194.647 213.817 195.102 212.382 194.99 209.2C194.879 206.018 194.2 201.09 193.455 198.572C192.711 196.055 191.898 195.95 189.933 195.946C187.968 195.943 184.852 196.041 183.405 194.095C181.957 192.149 182.181 188.158 184.329 185.529C186.477 182.9 190.548 181.635 193.06 180.698C195.572 179.76 196.527 179.151 196.679 174.341C196.832 169.531 196.183 160.519 194.966 155.485C193.748 150.451 191.959 149.396 187.209 150.283C182.459 151.171 174.749 154.002 170.801 156.074Z" fill="#794A30"/>
<path d="M224.827 132.001C220.669 132.056 214.295 133.743 209.548 136.395C204.802 139.048 201.683 142.666 200.17 144.923C198.657 147.18 198.748 148.074 199.669 165.044C200.59 182.013 202.344 215.057 203.385 231.888C204.425 248.718 204.751 249.333 205.698 249.952C206.646 250.571 208.212 251.194 210.861 250.943C213.509 250.692 217.241 249.568 219.177 248.456C221.114 247.345 221.255 246.246 221.027 238.494C220.8 230.743 220.204 216.342 220.147 208.967C220.091 201.592 220.576 201.246 223.323 197.344C226.07 193.443 231.081 185.986 234.678 177.418C238.275 168.849 240.456 159.169 239.919 151.931C239.382 144.693 236.122 139.898 233.523 136.711C230.925 133.525 228.985 131.947 224.827 132.001ZM217.504 158.437C218.74 158.408 220.161 158.874 220.935 160.254C221.967 162.094 221.849 165.557 220.859 168.282C219.869 171.007 218.006 172.995 216.837 174.062C215.668 175.13 215.194 175.277 214.956 175.351C214.718 175.424 214.718 175.423 214.706 175.165C214.693 174.907 214.666 174.391 214.534 172.006C214.403 169.622 214.167 165.37 214.316 162.722C214.464 160.073 215.001 159.029 216.36 158.615C216.7 158.511 217.092 158.446 217.504 158.437Z" fill="#794A30"/>
<path d="M278.23 117.823C281.104 119.059 281.094 120.06 281.253 128.764C281.413 137.468 281.743 153.873 281.45 161.924C281.157 169.975 280.24 169.672 277.844 169.249C275.448 168.826 271.573 168.285 268.723 169.975C265.873 171.665 264.049 175.588 263.704 179.612C263.359 183.636 264.493 187.76 266.41 190.433C268.327 193.105 271.027 194.327 273.706 194.597C276.385 194.868 279.044 194.188 280.688 194.134C282.332 194.079 282.96 194.649 283.666 203.178C284.371 211.707 285.154 228.196 284.974 236.751C284.794 245.307 283.65 245.932 280.914 245.879C278.179 245.827 271.398 244.683 270.165 244.72C268.932 244.757 266.801 246.172 267.322 247.31C267.843 248.447 270.244 249.817 271.475 251.972C272.705 254.127 272.767 257.067 271.438 259.468C270.109 261.869 267.388 263.734 264.374 263.973C261.361 264.212 258.053 262.826 256.094 260.686C254.136 258.546 253.528 255.652 253.853 253.984C254.177 252.316 255.435 251.875 257.11 252.487C258.785 253.098 260.876 254.761 262.576 254.958C264.276 255.155 265.584 253.887 265.734 252.917C265.884 251.948 264.873 251.275 263.776 250.482C262.678 249.689 261.492 248.775 261.462 247.585C261.432 246.396 262.559 244.933 262.606 244.119C262.654 243.305 261.621 243.14 259.126 241.964C256.631 240.789 252.674 238.603 249.118 228.668C245.562 218.734 242.409 201.052 242.037 182.877C241.666 164.703 244.078 146.037 248.174 134.417C252.271 122.796 258.052 118.221 263.823 116.669C269.595 115.117 275.356 116.587 278.23 117.823Z" fill="#794A30"/>
<path d="M318.01 115C311.571 115.024 301.781 115.807 296.289 116.374C290.431 116.979 289.465 117.337 288.871 138.564C288.277 159.791 288.058 201.883 288.008 223.262C287.957 244.64 288.077 245.302 290.916 245.956C293.755 246.61 299.31 247.259 302.017 246.642C304.723 246.024 304.583 244.138 304.628 236.179C304.674 228.221 304.904 214.189 305.277 206.809C305.649 199.43 306.162 198.707 307.169 198.409C308.176 198.111 309.675 198.239 310.626 198.322C311.577 198.404 311.98 198.443 313.469 206.156C314.958 213.869 317.536 229.257 318.884 237.341C320.233 245.425 320.352 246.202 322.375 246.618C324.399 247.034 328.324 247.09 330.512 246.884C332.701 246.677 333.155 246.209 332.959 230.07C332.763 213.931 331.916 182.12 331.237 160.687C330.558 139.254 330.043 128.2 328.806 122.16C327.569 116.119 325.607 115.093 319.252 115.006C318.854 115 318.439 114.999 318.01 115ZM308.828 139.792C309.109 139.793 309.388 139.831 309.658 139.909C310.736 140.217 311.647 141.134 312.545 145.681C313.443 150.227 314.329 158.404 314.537 162.465C314.746 166.526 314.278 166.473 312.356 166.581C310.434 166.69 307.061 166.96 305.308 166.786C303.555 166.612 303.423 165.99 303.655 162.244C303.886 158.498 304.48 151.627 304.946 147.432C305.412 143.237 305.75 141.722 306.542 140.812C307.136 140.13 307.986 139.789 308.828 139.792Z" fill="#794A30"/>
<path d="M291.007 108.556C290.928 110.582 291.5 111.799 292.609 111.976C293.718 112.154 295.363 111.296 296.45 110.42C297.536 109.545 298.063 108.653 299.569 108.381C301.075 108.109 303.559 108.457 305.629 109.255C307.699 110.052 309.355 111.297 312.291 111.513C315.226 111.73 319.442 110.919 322.548 109.781C325.653 108.643 327.651 107.178 327.957 104.279C328.263 101.379 326.878 97.0425 325.596 94.859C324.315 92.6756 323.135 92.647 321.674 93.5892C320.213 94.5315 318.472 96.4445 315.888 97.94C313.304 99.4355 309.877 100.514 306.618 100.576C303.359 100.638 300.267 99.6843 297.951 99.5623C295.635 99.4402 294.094 100.151 292.957 101.924C291.82 103.697 291.087 106.531 291.007 108.556Z" fill="#794A30"/>
<path d="M371.852 93.0001C367.246 93.0152 361.233 94.3573 356.425 96.6013C350.929 99.1658 347.011 102.907 344.386 113.115C341.762 123.322 340.431 139.993 339.004 159.922C337.576 179.85 336.052 203.037 336.001 216.844C335.95 230.65 337.372 235.076 339.46 238.542C341.548 242.007 344.302 244.51 348.589 245.873C352.877 247.235 358.696 247.458 364.185 246.012C369.674 244.566 374.831 241.449 378.668 232.033C382.504 222.617 385.023 206.9 387.029 185.183C389.034 163.467 390.528 135.752 389.823 120.218C389.117 104.684 386.212 101.329 383.551 98.5332C380.891 95.7376 378.476 93.501 373.733 93.0752C373.141 93.0219 372.51 92.998 371.852 93.0001ZM365.012 125.14C366.481 125.122 368.27 125.663 368.449 136.895C368.629 148.126 367.202 170.048 365.922 185.036C364.642 200.024 363.508 208.078 362.141 211.474C360.773 214.87 359.17 213.605 357.876 212.088C356.582 210.57 355.598 208.8 356.211 194.462C356.824 180.124 359.035 153.22 360.716 139.478C362.396 125.735 363.544 125.158 365.012 125.14Z" fill="#794A30"/>
</svg>
