<svg width="387" height="414" viewBox="0 0 387 414" fill="none" xmlns="http://www.w3.org/2000/svg">
<path d="M3.05762 107.449V39.8493C3.05762 34.0074 3.68663 28.8807 4.94477 24.4695C6.22199 20.0582 7.9186 16.7199 10.0346 14.4547C12.1505 12.1894 14.5144 11.0568 17.126 11.0568H43.8903V53.3514C40.6305 48.5825 38.1428 45.5422 36.4271 44.2308C34.7115 42.8597 32.4334 42.1741 29.5931 42.1741H26.2475C25.18 42.1741 24.3984 43.0087 23.9028 44.6778C23.4072 46.2874 23.1594 48.7613 23.1594 52.0995V94.9306C23.1594 98.3285 23.3977 100.832 23.8742 102.442C24.3699 104.051 25.1609 104.856 26.2475 104.856H26.7908C29.1165 104.856 30.8131 104.796 31.8806 104.677C32.9482 104.558 34.1586 104.111 35.5121 103.336C36.8656 102.561 38.1046 101.488 39.2294 100.117C40.3731 98.7459 41.9268 96.6594 43.8903 93.8577V135.973H17.126C15.925 135.973 14.724 135.735 13.5231 135.258C12.3412 134.722 11.1021 133.798 9.80587 132.486C8.50959 131.115 7.37531 129.416 6.4031 127.389C5.43089 125.303 4.63025 122.561 4.00119 119.163C3.37211 115.705 3.05762 111.801 3.05762 107.449ZM49.7234 107.449V39.8493C49.7234 34.1862 50.3049 29.149 51.4678 24.7377C52.6496 20.3264 54.2413 16.9584 56.2429 14.6335C58.2446 12.249 60.4844 11.0568 62.9626 11.0568H82.5211C84.9993 11.0568 87.2392 12.249 89.2408 14.6335C91.2424 16.9584 92.8246 20.3264 93.9874 24.7377C95.1693 29.149 95.7602 34.1862 95.7602 39.8493V107.449C95.7602 111.443 95.4838 115.079 94.931 118.358C94.3972 121.637 93.6919 124.349 92.815 126.495C91.9382 128.641 90.9088 130.459 89.7269 131.95C88.564 133.38 87.3821 134.424 86.1812 135.079C84.9802 135.675 83.7602 135.973 82.5211 135.973H62.9626C61.5519 135.973 60.1222 135.497 58.6735 134.543C57.2437 133.529 55.8331 132.009 54.4415 129.982C53.0499 127.896 51.9157 124.915 51.0388 121.041C50.1619 117.166 49.7234 112.635 49.7234 107.449ZM69.8252 99.1333C69.8252 102.114 70.0445 104.26 70.4829 105.571C70.9213 106.823 71.6172 107.449 72.5703 107.449H72.9136C73.8668 107.449 74.5625 106.823 75.001 105.571C75.4585 104.26 75.6872 102.114 75.6872 99.1333V47.7181C75.6872 44.7375 75.468 42.6213 75.0296 41.3694C74.6102 40.1175 73.9049 39.4916 72.9136 39.4916H72.5703C71.579 39.4916 70.8737 40.1175 70.4543 41.3694C70.0349 42.6213 69.8252 44.7375 69.8252 47.7181V99.1333ZM100.736 11.0568H120.866L128.415 51.3842L135.992 11.0568H154.121V135.973H135.992L136.049 80.892L128.415 122.382L120.866 80.892V135.973H102.766V42.353C102.766 31.2652 102.089 20.8331 100.736 11.0568ZM159.783 11.0568H182.344V135.973H162.299V52.9937C162.299 35.289 161.46 21.31 159.783 11.0568ZM189.664 135.973V93.6788C192.123 98.3882 194.296 101.428 196.183 102.799C198.09 104.17 200.501 104.856 203.418 104.856H207.678C208.746 104.856 209.461 104.349 209.823 103.336C210.204 102.323 210.395 100.564 210.395 98.0603C210.395 95.6758 210.204 94.0365 209.823 93.1423C209.461 92.2481 208.593 91.2645 207.221 90.1915L198.385 83.7534C197.299 82.9189 196.288 81.7863 195.354 80.3555C194.42 78.9249 193.534 77.1067 192.695 74.9011C191.856 72.6954 191.198 69.9235 190.722 66.5852C190.245 63.1873 190.007 59.402 190.007 55.2292V43.6943C190.007 34.216 190.96 26.4068 192.866 20.2668C194.792 14.1268 197.489 11.0568 200.959 11.0568H230.868V53.3514C228.295 48.7017 226.036 45.6912 224.091 44.3202C222.166 42.8895 219.726 42.1741 216.771 42.1741H212.596C211.605 42.1741 210.929 42.6213 210.566 43.5154C210.204 44.35 210.023 46.0489 210.023 48.6123C210.023 51.116 210.242 52.8745 210.681 53.8879C211.138 54.9013 212.091 55.7657 213.54 56.481L224.663 62.3826C229.238 64.9459 231.526 74.0367 231.526 89.655V107.181C231.526 111.294 231.307 115.02 230.868 118.358C230.43 121.696 229.848 124.439 229.124 126.585C228.4 128.731 227.561 130.549 226.608 132.039C225.674 133.47 224.721 134.483 223.748 135.079C222.776 135.675 221.794 135.973 220.803 135.973L189.664 135.973ZM237.96 135.973V93.6788C240.419 98.3882 242.592 101.428 244.479 102.799C246.385 104.17 248.797 104.856 251.713 104.856H255.974C257.042 104.856 257.756 104.349 258.119 103.336C258.5 102.323 258.69 100.564 258.69 98.0603C258.69 95.6758 258.5 94.0365 258.119 93.1423C257.756 92.2481 256.889 91.2645 255.517 90.1915L246.681 83.7534C245.594 82.9189 244.584 81.7863 243.65 80.3555C242.716 78.9249 241.829 77.1067 240.991 74.9011C240.152 72.6954 239.494 69.9235 239.018 66.5852C238.541 63.1873 238.303 59.402 238.303 55.2292V43.6943C238.303 34.216 239.256 26.4068 241.162 20.2668C243.088 14.1268 245.785 11.0568 249.254 11.0568H279.164V53.3514C276.591 48.7017 274.331 45.6912 272.387 44.3202C270.462 42.8895 268.022 42.1741 265.067 42.1741H260.892C259.901 42.1741 259.224 42.6213 258.862 43.5154C258.5 44.35 258.319 46.0489 258.319 48.6123C258.319 51.116 258.538 52.8745 258.976 53.8879C259.434 54.9013 260.387 55.7657 261.836 56.481L272.959 62.3826C277.534 64.9459 279.822 74.0367 279.822 89.655V107.181C279.822 111.294 279.602 115.02 279.164 118.358C278.726 121.696 278.144 124.439 277.42 126.585C276.695 128.731 275.857 130.549 274.903 132.039C273.969 133.47 273.016 134.483 272.044 135.079C271.072 135.675 270.09 135.973 269.099 135.973L237.96 135.973ZM286.827 135.973V46.0191C286.827 34.3948 287.647 25.6617 289.286 19.8197C290.945 13.9777 293.566 11.0568 297.15 11.0568H319.396C327.936 11.0568 332.206 20.2966 332.206 38.7763V135.973H312.019V96.4508H307.043V135.973H286.827ZM306.986 69.3572H312.019V47.1816C312.019 43.5452 311.857 41.2799 311.533 40.3858C311.209 39.432 310.589 38.9551 309.674 38.9551C308.568 38.9551 307.844 39.4022 307.501 40.2964C307.158 41.1906 306.986 43.3664 306.986 46.8239V69.3572ZM338.926 107.449V39.8493C338.926 34.1862 339.508 29.149 340.67 24.7377C341.852 20.3264 343.444 16.9584 345.445 14.6335C347.447 12.249 349.687 11.0568 352.165 11.0568H371.724C374.202 11.0568 376.442 12.249 378.443 14.6335C380.445 16.9584 382.027 20.3264 383.19 24.7377C384.372 29.149 384.963 34.1862 384.963 39.8493V107.449C384.963 111.443 384.686 115.079 384.134 118.358C383.6 121.637 382.895 124.349 382.018 126.495C381.141 128.641 380.111 130.459 378.929 131.95C377.767 133.38 376.585 134.424 375.384 135.079C374.183 135.675 372.963 135.973 371.724 135.973H352.165C350.755 135.973 349.325 135.497 347.876 134.543C346.446 133.529 345.036 132.009 343.644 129.982C342.253 127.896 341.118 124.915 340.241 121.041C339.365 117.166 338.926 112.635 338.926 107.449ZM359.028 99.1333C359.028 102.114 359.247 104.26 359.685 105.571C360.124 106.823 360.82 107.449 361.773 107.449H362.116C363.069 107.449 363.765 106.823 364.204 105.571C364.661 104.26 364.89 102.114 364.89 99.1333V47.7181C364.89 44.7375 364.671 42.6213 364.232 41.3694C363.813 40.1175 363.108 39.4916 362.116 39.4916H361.773C360.782 39.4916 360.076 40.1175 359.657 41.3694C359.237 42.6213 359.028 44.7375 359.028 47.7181V99.1333Z" fill="#760200"/>
<path d="M0 151.051H27.5157C28.3403 151.051 29.136 151.277 29.9027 151.73C30.684 152.137 31.4652 152.861 32.2463 153.901C33.0276 154.942 33.7003 156.276 34.2645 157.905C34.8431 159.488 35.3133 161.569 35.675 164.148C36.0367 166.681 36.2175 169.554 36.2175 172.766V224.203C36.2175 227.913 35.9788 231.215 35.5014 234.11C35.024 236.961 34.3874 239.222 33.5918 240.896C32.8106 242.525 31.957 243.769 31.0311 244.629C30.1197 245.443 29.1722 245.85 28.1884 245.85H1.9096V183.013C1.9096 176.589 1.77948 170.775 1.51922 165.573C1.25896 160.37 0.752409 155.53 0 151.051ZM17.1648 224.882H18.4017C19.4433 224.882 20.1304 224.475 20.4632 223.66C20.8104 222.846 20.984 221.127 20.984 218.503V179.28C20.984 176.657 20.8104 174.937 20.4632 174.123C20.1304 173.309 19.4433 172.902 18.4017 172.902H17.1648V224.882ZM39.5376 151.051H72.5652V183.148C70.5833 179.348 68.7677 176.951 67.1185 175.955C65.6718 175.051 63.6175 174.621 60.9556 174.666C60.594 174.666 60.2251 174.666 59.8489 174.666H56.8326V187.899H69.0931V208.731H56.8326V222.235H59.8489C60.4565 222.235 61.028 222.235 61.5632 222.235C62.0841 222.235 62.5904 222.235 63.0823 222.235C64.0371 222.19 64.8979 222.054 65.6646 221.828C66.4313 221.602 67.1763 221.195 67.8996 220.607C68.623 219.973 69.3536 219.114 70.0914 218.028C70.8292 216.942 71.6538 215.517 72.5652 213.753V245.85H41.534V182.606C41.534 167.315 40.8685 156.797 39.5376 151.051ZM88.6233 151.051H116.53C117.354 151.051 118.15 151.255 118.917 151.662C119.698 152.024 120.472 152.68 121.239 153.63C122.005 154.58 122.671 155.801 123.235 157.294C123.799 158.742 124.255 160.642 124.602 162.994C124.949 165.302 125.123 167.948 125.123 170.934V189.256C125.123 198.394 123.43 204.434 120.045 207.374L126.49 245.85H110.237L105.658 213.346V245.85H90.5329V182.741C90.5329 167.993 89.8963 157.43 88.6233 151.051ZM105.701 192.174H107.654C108.204 192.174 108.653 191.721 109 190.816C109.347 189.866 109.521 188.441 109.521 186.541V178.602C109.521 175.978 109.347 174.259 109 173.445C108.667 172.63 107.98 172.223 106.938 172.223H105.701V192.174ZM128.877 151.051H161.905V183.148C159.923 179.348 158.107 176.951 156.458 175.955C155.011 175.051 152.957 174.621 150.295 174.666C149.933 174.666 149.564 174.666 149.188 174.666H146.172V187.899H158.433V208.731H146.172V222.235H149.188C149.796 222.235 150.367 222.235 150.903 222.235C151.423 222.235 151.93 222.235 152.422 222.235C153.376 222.19 154.237 222.054 155.004 221.828C155.771 221.602 156.516 221.195 157.239 220.607C157.962 219.973 158.693 219.114 159.431 218.028C160.169 216.942 160.993 215.517 161.905 213.753V245.85H130.873V182.606C130.873 167.315 130.208 156.797 128.877 151.051ZM166.331 224.203V172.902C166.331 168.468 166.809 164.578 167.764 161.23C168.733 157.882 170.021 155.349 171.626 153.63C173.232 151.911 175.026 151.051 177.008 151.051H197.319V183.148C194.845 179.529 192.957 177.222 191.655 176.227C190.353 175.186 188.625 174.666 186.469 174.666H183.93C183.12 174.666 182.527 175.299 182.151 176.566C181.775 177.788 181.587 179.665 181.587 182.198V214.703C181.587 217.281 181.768 219.182 182.129 220.403C182.505 221.624 183.106 222.235 183.93 222.235H184.343C186.108 222.235 187.395 222.19 188.205 222.099C189.015 222.009 189.934 221.67 190.961 221.082C191.988 220.493 192.928 219.679 193.782 218.639C194.65 217.598 195.829 216.015 197.319 213.888V245.85H177.008C176.097 245.85 175.185 245.669 174.274 245.307C173.377 244.9 172.436 244.199 171.453 243.204C170.469 242.163 169.608 240.874 168.87 239.336C168.132 237.752 167.525 235.671 167.048 233.093C166.57 230.469 166.331 227.505 166.331 224.203ZM200.639 151.051H233.667V183.148C231.685 179.348 229.869 176.951 228.22 175.955C226.773 175.051 224.719 174.621 222.057 174.666C221.696 174.666 221.327 174.666 220.951 174.666H217.934V187.899H230.195V208.731H217.934V222.235H220.951C221.558 222.235 222.13 222.235 222.665 222.235C223.186 222.235 223.692 222.235 224.184 222.235C225.139 222.19 226 222.054 226.766 221.828C227.533 221.602 228.278 221.195 229.001 220.607C229.725 219.973 230.455 219.114 231.193 218.028C231.931 216.942 232.756 215.517 233.667 213.753V245.85H202.636V182.606C202.636 167.315 201.97 156.797 200.639 151.051ZM237.074 151.051H264.503C265.327 151.051 266.123 151.277 266.89 151.73C267.671 152.137 268.445 152.861 269.212 153.901C269.978 154.942 270.644 156.276 271.208 157.905C271.772 159.488 272.228 161.569 272.575 164.148C272.937 166.681 273.118 169.554 273.118 172.766V190.274C273.118 194.209 272.973 197.58 272.684 200.385C272.394 203.144 271.91 205.564 271.23 207.645C270.55 209.726 269.61 211.265 268.409 212.26C267.223 213.255 265.754 213.753 264.004 213.753H254.022V245.85H238.983V183.013C238.983 176.272 238.853 170.391 238.593 165.369C238.347 160.303 237.841 155.53 237.074 151.051ZM254.022 191.766H255.975C257.248 191.766 257.884 189.821 257.884 185.931V179.28C257.884 176.702 257.703 175.005 257.342 174.191C256.995 173.332 256.315 172.902 255.302 172.902H254.022V191.766ZM276.438 224.203V172.902C276.438 168.468 276.915 164.578 277.87 161.23C278.839 157.882 280.127 155.349 281.733 153.63C283.339 151.911 285.132 151.051 287.114 151.051H307.426V183.148C304.952 179.529 303.064 177.222 301.762 176.227C300.46 175.186 298.731 174.666 296.576 174.666H294.037C293.227 174.666 292.633 175.299 292.257 176.566C291.881 177.788 291.693 179.665 291.693 182.198V214.703C291.693 217.281 291.874 219.182 292.236 220.403C292.612 221.624 293.212 222.235 294.037 222.235H294.449C296.214 222.235 297.501 222.19 298.312 222.099C299.122 222.009 300.04 221.67 301.068 221.082C302.095 220.493 303.035 219.679 303.889 218.639C304.757 217.598 305.936 216.015 307.426 213.888V245.85H287.114C286.203 245.85 285.291 245.669 284.38 245.307C283.483 244.9 282.543 244.199 281.559 243.204C280.575 242.163 279.715 240.874 278.977 239.336C278.239 237.752 277.631 235.671 277.154 233.093C276.677 230.469 276.438 227.505 276.438 224.203ZM312.525 245.85V177.584C312.525 168.762 313.147 162.135 314.391 157.701C315.65 153.268 317.639 151.051 320.359 151.051H337.242C343.723 151.051 346.963 158.063 346.963 172.087V245.85H331.643V215.856H327.867V245.85H312.525ZM327.824 195.295H331.643V178.466C331.643 175.707 331.52 173.987 331.274 173.309C331.028 172.585 330.558 172.223 329.864 172.223C329.024 172.223 328.475 172.562 328.214 173.241C327.954 173.919 327.824 175.571 327.824 178.195L327.824 195.295ZM352.063 224.203V172.902C352.063 168.604 352.504 164.781 353.386 161.434C354.283 158.086 355.491 155.53 357.01 153.766C358.53 151.956 360.229 151.051 362.11 151.051H376.953C378.833 151.051 380.533 151.956 382.052 153.766C383.571 155.53 384.772 158.086 385.655 161.434C386.552 164.781 387 168.604 387 172.902V224.203C387 227.234 386.79 229.994 386.371 232.482C385.966 234.97 385.43 237.028 384.765 238.657C384.099 240.286 383.318 241.665 382.421 242.796C381.539 243.882 380.642 244.674 379.73 245.171C378.819 245.624 377.893 245.85 376.953 245.85H362.11C361.039 245.85 359.954 245.488 358.855 244.764C357.77 243.995 356.699 242.842 355.643 241.303C354.587 239.72 353.726 237.458 353.061 234.518C352.396 231.577 352.063 228.139 352.063 224.203ZM367.318 217.892C367.318 220.154 367.484 221.783 367.817 222.778C368.15 223.728 368.678 224.203 369.401 224.203H369.661C370.385 224.203 370.913 223.728 371.246 222.778C371.593 221.783 371.766 220.154 371.766 217.892V178.873C371.766 176.611 371.6 175.005 371.267 174.055C370.949 173.105 370.414 172.63 369.661 172.63H369.401C368.649 172.63 368.114 173.105 367.795 174.055C367.477 175.005 367.318 176.611 367.318 178.873V217.892Z" fill="#760200"/>
<path d="M325.122 0H293.334V7.26575H325.122V0Z" fill="#760200"/>
<path d="M300.097 241.131C298.143 241.131 289.692 241.131 289.692 241.131C289.692 241.131 289.692 242.471 289.692 245.22L289.692 253H303.835C302.24 252.052 301.223 251.329 300.785 250.831C300.326 250.332 300.097 249.67 300.097 248.844L300.096 247.872L300.097 241.131Z" fill="#760200"/>
<path d="M341.355 142.066H317.787V147.453H341.355V142.066Z" fill="#760200"/>
<g clip-path="url(#clip0_2440_60)">
<path fill-rule="evenodd" clip-rule="evenodd" d="M193.638 281.07C160.702 281.07 133.954 308.226 133.954 341.664C133.954 375.047 160.615 402.164 193.476 402.254L196.3 397.625C195.418 397.669 194.531 397.698 193.638 397.698C163.13 397.698 138.446 372.637 138.446 341.664C138.446 310.691 163.13 285.631 193.638 285.631C216.256 285.631 235.66 299.41 244.185 319.158L247 314.546C237.191 294.707 216.972 281.07 193.638 281.07ZM193.699 287.721C192.321 287.72 190.943 287.776 189.567 287.886C178.665 288.763 168.289 293.038 159.845 300.087C151.598 306.972 145.508 316.449 142.588 326.872C140.361 334.826 139.989 343.319 141.461 351.457C141.462 351.651 141.492 351.851 141.567 352.056C142.093 354.788 142.827 357.478 143.772 360.09C147.478 370.333 154.184 379.226 162.916 385.578C171.841 392.07 182.712 395.523 193.677 395.548C195.012 395.546 196.343 395.481 197.672 395.378L200.028 391.516C198.764 391.678 197.493 391.799 196.215 391.867C198.642 389.379 200.649 386.526 202.167 383.418C200.759 384.043 199.229 383.912 198.211 384.234C197.901 384.331 197.564 384.504 197.205 384.7C195.55 387.291 193.504 389.618 191.108 391.495C190.97 391.603 190.861 391.735 190.748 391.863C189.181 391.775 187.621 391.641 186.125 391.403C185.701 391.336 185.285 391.23 184.863 391.152C186.286 389.866 187.671 388.538 188.97 387.121C189.57 386.468 190.202 385.793 190.774 385.083C190.136 384.744 189.564 384.394 189.064 384.233C188.462 384.043 187.681 383.97 186.854 383.847C186.849 383.846 186.842 383.845 186.838 383.844C186.394 384.34 185.959 384.843 185.5 385.324C183.929 386.971 182.266 388.524 180.528 389.987C180.487 390.023 180.457 390.067 180.42 390.106C178.057 389.436 175.754 388.593 173.522 387.584C175.557 386.324 177.469 384.857 179.195 383.188C180.135 382.28 180.999 381.302 181.842 380.302C181.961 380.161 182.066 380.01 182.184 379.867C182.01 379.529 181.837 379.22 181.65 378.97C181.293 378.493 180.708 377.993 180.109 377.418C179.981 377.295 179.852 377.165 179.725 377.032C178.665 378.465 177.345 379.783 176.077 380.955C174.096 382.788 171.865 384.287 169.488 385.538C168.08 384.739 166.696 383.893 165.37 382.957C165.975 382.674 166.577 382.375 167.182 382.066C168.807 381.236 169.822 379.854 170.294 378.072C170.746 376.367 170.701 374.623 169.869 373.046C169.033 371.46 167.542 370.342 166.01 369.514C163.126 367.954 160.285 366.47 157.628 364.517C152.536 360.774 148.217 355.946 144.962 350.494C144.922 350.428 144.876 350.378 144.833 350.32C144.165 346.456 143.979 342.496 144.216 338.559C145.892 342.106 147.857 345.507 150.169 348.677C152.836 352.335 155.909 355.71 159.071 358.928C162.948 362.872 167.297 366.311 172.216 368.815C174.329 369.891 176.566 370.785 178.606 372.011C178.71 371.434 178.808 370.888 178.808 370.427C178.808 369.806 178.639 369.06 178.503 368.252C178.467 368.042 178.435 367.825 178.409 367.604C177.279 367.045 176.163 366.549 175.267 366.116C170.151 363.643 165.708 360.31 161.714 356.245C159.905 354.405 158.171 352.486 156.46 350.553C155.133 349.054 154.033 347.668 152.966 346.165C149.752 341.638 147.185 336.656 145.254 331.436C145.233 331.377 145.191 331.333 145.165 331.277C145.605 329.131 146.163 327.013 146.875 324.951C147.747 327.772 148.8 330.535 150.054 333.207C156.252 346.416 167.025 357.28 180.037 363.509C180.062 363.485 180.086 363.459 180.111 363.435C180.711 362.86 181.296 362.36 181.649 361.885C181.921 361.519 182.171 361.018 182.434 360.487C179.687 359.232 177.033 357.756 174.509 356.078C161.879 347.678 152.586 334.306 149.238 319.355C150.293 317.207 151.488 315.144 152.821 313.177C153.507 319.862 155.719 326.389 159.392 331.99C159.953 332.845 161.032 333.214 161.948 332.671C162.783 332.175 163.178 330.928 162.618 330.075C158.45 323.72 156.279 316.211 156.311 308.582C157.396 307.317 158.546 306.115 159.749 304.965C159.359 308.955 159.665 313.001 160.584 316.918C162.101 323.39 165.278 329.308 169.309 334.535C169.682 333.911 170.032 333.282 170.349 332.642C170.459 332.338 170.823 330.918 170.957 330.388C164.994 321.927 161.593 311.862 164.103 301.441C164.119 301.371 164.122 301.307 164.132 301.24C165.384 300.294 166.666 299.385 168.007 298.561C168.224 298.427 168.447 298.303 168.667 298.173C165.885 306.112 166.537 315.28 170.304 322.764C172.048 326.227 174.48 329.353 177.107 332.173C179.211 334.43 181.749 336.271 184.261 338.025C188.316 340.853 192.509 343.479 196.675 346.133C200.179 348.365 203.812 350.453 207.17 352.91C207.327 353.024 207.482 353.14 207.636 353.256C207.691 353.297 207.746 353.341 207.801 353.383C208.039 353.574 208.276 353.768 208.508 353.968C208.991 354.384 209.456 354.822 209.9 355.28C210.412 355.808 210.936 356.422 211.431 357.026C211.543 357.105 211.655 357.181 211.766 357.26L211.774 357.266L211.783 357.274C212.66 357.918 213.273 358.869 213.533 359.901C214.247 360.983 214.951 362.137 215.493 363.278C215.758 363.835 215.997 364.409 216.213 364.993L218.444 361.338C217.422 359.274 216.146 357.333 214.726 355.508C212.995 353.284 211.101 351.384 208.826 349.734C205.409 347.257 201.73 345.136 198.177 342.871C194.021 340.221 189.833 337.602 185.795 334.767C185.069 334.257 184.348 333.738 183.639 333.204C183.459 333.069 183.28 332.932 183.102 332.795C183.029 332.738 182.719 332.493 182.946 332.673C182.662 332.448 182.38 332.22 182.102 331.987C181.096 331.147 180.136 330.253 179.26 329.274C178.584 328.519 177.934 327.759 177.31 326.985L177.161 326.885L177.194 326.831C175.46 324.664 173.942 322.379 172.759 319.727C170.688 315.081 170.05 309.646 170.706 304.607C170.947 302.755 171.415 300.872 172.049 299.098C172.126 298.881 172.207 298.666 172.29 298.451C172.315 298.387 172.506 297.914 172.444 298.061C172.38 298.215 172.566 297.783 172.599 297.708C172.668 297.555 172.738 297.401 172.811 297.249C173.061 296.718 173.331 296.196 173.619 295.686C173.633 295.662 173.638 295.64 173.649 295.617C175.72 294.691 177.846 293.914 180.016 293.285C175.376 298.849 173.577 305.467 173.687 313.114C173.722 315.557 177.459 315.557 177.424 313.114C177.312 305.332 180.468 297.753 186.03 292.4C186.22 292.217 186.334 292.038 186.401 291.864C187.977 291.627 189.568 291.486 191.165 291.402L191.167 291.403C188.859 293.567 187.042 295.98 185.625 298.611C186.037 298.49 186.452 298.416 186.851 298.357C187.676 298.233 188.455 298.16 189.056 297.967L189.058 297.966L189.06 297.965C189.705 297.762 190.45 297.247 191.332 296.836C192.743 294.939 194.379 293.221 196.226 291.774C196.363 291.666 196.471 291.535 196.584 291.408C196.909 291.427 197.234 291.42 197.559 291.444C199.207 291.57 200.845 291.814 202.475 292.113C201.051 293.401 199.663 294.729 198.363 296.147C197.969 296.577 197.569 297.03 197.172 297.481C197.542 297.684 197.89 297.865 198.207 297.967C198.808 298.157 199.589 298.229 200.416 298.353C200.707 298.396 201.008 298.455 201.31 298.526C201.487 298.335 201.654 298.134 201.834 297.945C203.406 296.298 205.068 294.746 206.806 293.282C206.852 293.243 206.883 293.195 206.923 293.152C209.283 293.819 211.592 294.662 213.832 295.673C211.79 296.935 209.871 298.407 208.139 300.081C207.2 300.988 206.336 301.966 205.493 302.966C205.483 302.976 205.476 302.988 205.468 302.997C205.518 303.076 205.568 303.159 205.62 303.229C205.977 303.706 206.562 304.206 207.162 304.781C207.454 305.061 207.753 305.365 208.021 305.71C209.003 304.482 210.148 303.34 211.257 302.314C213.243 300.477 215.48 298.975 217.863 297.721C217.865 297.72 217.867 297.719 217.867 297.716C219.288 298.521 220.679 299.374 222.011 300.316C221.449 300.549 220.882 300.828 220.151 301.202C218.526 302.032 217.511 303.414 217.039 305.196C216.587 306.901 216.632 308.644 217.464 310.221C218.3 311.808 219.791 312.926 221.323 313.755C224.207 315.314 227.049 316.798 229.705 318.751C233.173 321.3 236.27 324.361 238.929 327.77L242.858 321.332C242.586 320.645 242.307 319.96 242.005 319.283C237.64 309.48 230.262 301.117 221.217 295.529C212.965 290.432 203.347 287.725 193.699 287.721ZM193.631 297.99C192.504 297.991 191.251 299.082 189.566 299.613C188.708 299.888 187.85 299.952 187.099 300.064C186.347 300.177 185.727 300.336 185.305 300.634C184.877 300.938 184.54 301.454 184.201 302.114C183.862 302.774 183.538 303.554 183.005 304.27C182.476 304.982 181.818 305.517 181.278 306.035C180.737 306.553 180.334 307.035 180.174 307.521L180.173 307.522C180.02 307.977 180.053 308.577 180.177 309.306C180.301 310.035 180.507 310.865 180.507 311.772C180.507 312.677 180.301 313.505 180.177 314.234C180.054 314.963 180.021 315.562 180.173 316.022L180.174 316.023C180.335 316.51 180.736 316.992 181.276 317.51C181.638 317.858 182.043 318.235 182.438 318.646C182.739 318.158 183.032 317.669 183.318 317.178C182.79 316.684 182.283 316.175 182.067 315.522C181.696 314.407 182.3 313.098 182.3 311.87C182.3 310.637 181.696 309.329 182.067 308.219C182.448 307.067 183.74 306.358 184.45 305.399C185.17 304.431 185.467 303.018 186.457 302.314C187.437 301.62 188.9 301.776 190.075 301.398C191.213 301.039 192.295 300.056 193.554 300.056C194.813 300.056 195.9 301.035 197.033 301.398C198.208 301.771 199.676 301.615 200.656 302.314C201.645 303.018 201.943 304.431 202.663 305.399C203.378 306.358 204.665 307.067 205.05 308.219C205.417 309.329 204.818 310.637 204.818 311.87C204.818 313.103 205.422 314.412 205.05 315.522C204.669 316.675 203.378 317.383 202.667 318.342C201.947 319.31 201.65 320.722 200.66 321.426C200.446 321.579 200.207 321.689 199.955 321.775L201.511 322.81L201.495 323.15C201.672 323.084 201.834 323.009 201.969 322.912C202.397 322.608 202.736 322.092 203.075 321.432C203.413 320.772 203.738 319.991 204.27 319.276C204.8 318.562 205.458 318.028 205.999 317.51C206.539 316.991 206.941 316.51 207.102 316.024L207.103 316.022L207.104 316.021C207.256 315.566 207.223 314.967 207.099 314.238C206.976 313.51 206.769 312.68 206.769 311.772C206.769 310.866 206.974 310.036 207.096 309.307C207.219 308.578 207.253 307.979 207.101 307.522C206.937 307.034 206.534 306.553 205.994 306.035C205.454 305.517 204.796 304.983 204.264 304.271L204.264 304.27C203.731 303.555 203.406 302.774 203.068 302.114C202.729 301.453 202.391 300.937 201.963 300.633C201.542 300.333 200.92 300.172 200.168 300.06C199.415 299.948 198.556 299.885 197.698 299.613L197.696 299.612C196.021 299.076 194.761 297.991 193.631 297.99ZM225.444 302.991C231.679 308.315 236.54 315.098 239.592 322.704C239.56 322.667 239.534 322.629 239.501 322.592C235.507 318.157 230.709 314.4 225.456 311.629C224.166 310.948 222.688 310.401 221.583 309.419C220.669 308.606 220.35 307.615 220.543 306.644C220.666 306.025 220.769 305.618 221.098 305.133C221.136 305.076 221.378 304.828 221.272 304.899C221.516 304.734 221.779 304.612 222.04 304.479C223.078 303.948 224.369 303.173 225.444 302.991ZM191.748 303.117L190.412 303.486L191.812 308.717L193.148 308.348L191.748 303.117ZM196.088 303.118L194.663 308.342L195.997 308.717L197.422 303.493L196.088 303.118ZM254.817 304.297L216.667 366.811L187.924 413.909C188.739 413.935 189.555 413.946 190.37 413.944L258.252 310.82C257.217 308.587 256.07 306.411 254.817 304.297ZM186.636 306.606L185.657 307.6L189.433 311.432L190.411 310.439L186.636 306.606ZM200.615 306.608L196.84 310.44L197.818 311.434L201.594 307.601L200.615 306.608ZM208.517 311.131C208.489 311.354 208.468 311.571 208.468 311.772C208.468 312.393 208.637 313.138 208.773 313.947C208.864 314.48 208.94 315.055 208.894 315.649C210.036 316.216 211.161 316.714 212.066 317.151C217.183 319.624 221.626 322.958 225.62 327.023C227.428 328.863 229.163 330.781 230.873 332.714C231.949 333.93 232.862 335.082 233.742 336.271L235.828 332.853C233.488 329.859 230.915 327.039 228.262 324.34C224.385 320.396 220.037 316.956 215.118 314.452C212.932 313.339 210.612 312.425 208.517 311.131ZM189.453 312.115L187.86 313.734L189.042 314.521L190.432 313.11L189.453 312.115ZM197.839 312.117L196.86 313.111L200.635 316.944L201.614 315.951L197.839 312.117ZM191.275 314.833L191.004 315.824L192.219 316.632L192.608 315.208L191.275 314.833ZM195.459 314.834L194.123 315.202L195.002 318.483L195.04 318.508L196.747 319.642L195.459 314.834ZM177.865 318.573C177.528 318.575 177.214 318.661 176.923 318.832C176.796 318.932 176.671 319.03 176.544 319.13C176.362 319.301 176.233 319.505 176.158 319.74C176.041 319.966 175.987 320.21 175.997 320.471C175.988 320.732 176.041 320.976 176.158 321.201C176.233 321.437 176.362 321.64 176.544 321.812C176.654 321.922 176.762 322.033 176.871 322.144C177.104 322.379 177.379 322.541 177.696 322.631C177.862 322.655 178.027 322.676 178.193 322.699C178.53 322.698 178.844 322.612 179.135 322.44C179.261 322.342 179.388 322.243 179.514 322.144C179.696 321.972 179.825 321.768 179.9 321.533C180.017 321.307 180.071 321.064 180.062 320.803C180.071 320.542 180.017 320.298 179.9 320.072C179.825 319.837 179.696 319.633 179.514 319.461C179.405 319.35 179.296 319.24 179.187 319.13C178.954 318.894 178.679 318.731 178.362 318.641C178.197 318.617 178.031 318.596 177.865 318.573ZM206.496 319.394C206.156 319.715 205.842 320.023 205.626 320.314C205.265 320.799 204.958 321.494 204.581 322.228C204.525 322.337 204.461 322.449 204.401 322.56C207.327 323.86 210.148 325.412 212.824 327.191C219.309 331.504 224.886 337.146 229.254 343.624L231.414 340.087C225.025 331.179 216.387 323.952 206.496 319.394ZM262.28 321.658L191.253 413.957C192.22 413.991 193.187 414.005 194.155 413.999L264 329.344C263.564 326.752 262.99 324.186 262.28 321.658ZM250.864 324.465L247.515 329.552C248.055 332.045 248.439 334.599 248.64 337.205L252.572 332.096C252.164 329.493 251.587 326.947 250.864 324.465ZM202.002 324.836C201.803 324.916 201.602 324.953 201.402 325.008L201.345 326.158L202.861 325.396C202.572 325.214 202.294 325.014 202.002 324.836ZM245.897 332.011L242.965 336.465C243.219 339.087 243.279 341.725 243.138 344.355L246.719 339.703C246.625 337.122 246.348 334.552 245.897 332.011ZM165.675 335.519C163.266 335.519 163.27 339.314 165.675 339.314C165.92 339.314 166.123 339.251 166.318 339.181C166.704 338.577 167.091 337.99 167.478 337.403C167.472 336.459 166.872 335.519 165.675 335.519ZM240.643 339.993L238.319 343.524C239.078 344.939 239.8 346.375 240.454 347.844L243.018 344.512C242.285 342.974 241.489 341.469 240.643 339.993ZM222.034 344.034L221.404 345.01L220.414 346.545L220.173 346.919C220.462 347.395 220.94 347.751 221.659 347.751C223.925 347.751 224.028 344.432 222.034 344.034ZM253.252 344.454L248.109 350.688C244.855 371.134 230.728 387.847 211.929 394.539L206.799 400.758C232.546 394.86 252.016 372.057 253.252 344.454ZM235.865 347.251L233.477 350.879C234.089 352.129 234.663 353.397 235.187 354.688L237.809 351.281C237.634 350.875 237.476 350.479 237.279 350.06C236.833 349.11 236.358 348.176 235.865 347.251ZM218.523 349.476L216.349 352.845C217.702 354.759 218.94 356.744 219.984 358.814L222.246 355.109C221.141 353.146 219.868 351.283 218.523 349.476ZM179.503 351.333C178.774 352.099 177.817 352.425 176.908 352.441L178.125 353.395L179.503 351.333ZM245.321 354.066C245.321 354.066 245.321 354.067 245.321 354.066ZM245.321 354.066L237.886 363.079C237.956 363.369 238.038 363.656 238.103 363.947C236.884 366.439 235.463 368.83 233.851 371.091C233.817 370.11 233.753 369.147 233.667 368.194L230.903 371.544C230.982 372.602 231.03 373.663 231.024 374.728C229.705 376.264 228.284 377.701 226.797 379.061C227.019 377.968 227.195 376.92 227.317 375.889L223.511 380.503C223.425 380.944 223.337 381.386 223.23 381.828C223.209 381.913 223.225 381.967 223.213 382.044C222.966 382.23 222.732 382.435 222.482 382.616C221.965 382.988 221.428 383.322 220.897 383.67L214.791 391.071C220.535 388.532 225.85 384.991 230.386 380.591C237.744 373.453 242.993 364.127 245.322 354.068L245.321 354.066ZM230.353 355.624L227.929 359.309C228.373 360.373 228.788 361.449 229.139 362.547L231.776 359.121C231.372 357.941 230.892 356.778 230.353 355.624ZM185.507 359.201C185.447 359.235 185.36 359.251 185.307 359.289C184.879 359.593 184.541 360.109 184.202 360.769C184.139 360.892 184.07 361.034 184.006 361.165C183.894 361.394 183.773 361.633 183.649 361.872C183.465 362.224 183.262 362.582 183.007 362.924C182.758 363.259 182.479 363.549 182.199 363.822C182.036 363.981 181.872 364.139 181.71 364.287C181.565 364.421 181.413 364.561 181.278 364.69C180.738 365.209 180.336 365.69 180.175 366.176L180.174 366.178L180.174 366.179C180.021 366.634 180.055 367.232 180.178 367.961C180.213 368.167 180.256 368.398 180.297 368.619C180.334 368.817 180.367 369.025 180.399 369.232C180.458 369.614 180.507 370.01 180.507 370.428C180.507 370.88 180.456 371.313 180.389 371.724C180.322 372.135 180.24 372.525 180.178 372.889C180.166 372.96 180.159 373.024 180.149 373.093C180.151 373.095 180.154 373.098 180.156 373.099C180.064 373.727 180.037 374.266 180.172 374.677L180.173 374.679C180.267 374.965 180.463 375.251 180.702 375.541C180.701 375.543 180.701 375.546 180.7 375.546C180.819 375.69 180.966 375.838 181.111 375.987C181.171 376.047 181.211 376.103 181.275 376.164C181.814 376.682 182.472 377.216 183.003 377.928L183.004 377.929C183.537 378.645 183.862 379.425 184.201 380.085C184.539 380.745 184.877 381.262 185.305 381.566C185.726 381.866 186.347 382.027 187.1 382.14C187.451 382.192 187.829 382.235 188.216 382.292C188.649 382.356 189.095 382.44 189.543 382.58C189.552 382.582 189.562 382.582 189.57 382.584L189.572 382.584C191.247 383.121 192.507 384.208 193.637 384.208C194.765 384.208 196.019 383.115 197.705 382.584C198.057 382.472 198.405 382.402 198.748 382.334C199.555 382.177 200.312 382.087 200.936 381.949C201.034 381.928 201.14 381.908 201.23 381.883C201.513 381.804 201.769 381.707 201.967 381.565L201.969 381.564C202.398 381.26 202.735 380.744 203.074 380.084C203.41 379.43 203.732 378.659 204.256 377.949C204.26 377.942 204.262 377.934 204.269 377.927C204.799 377.214 205.457 376.679 205.998 376.161C206.538 375.643 206.94 375.162 207.101 374.676L207.102 374.675L207.102 374.673C207.255 374.218 207.221 373.62 207.098 372.891C206.975 372.162 206.769 371.332 206.769 370.425C206.769 369.519 206.974 368.689 207.096 367.959C207.124 367.79 207.127 367.652 207.145 367.497C206.348 367.276 205.636 366.951 204.974 366.583C204.996 366.633 205.036 366.674 205.054 366.726C205.419 367.816 204.823 369.101 204.823 370.311C204.823 371.522 205.423 372.806 205.054 373.896C204.676 375.028 203.392 375.723 202.686 376.665C201.971 377.615 201.676 379.003 200.694 379.694C199.72 380.38 198.266 380.227 197.094 380.593C195.964 380.946 194.889 381.91 193.638 381.91C192.388 381.91 191.308 380.95 190.182 380.593C189.015 380.227 187.557 380.38 186.583 379.694C185.6 379.003 185.305 377.615 184.59 376.665C183.879 375.723 182.601 375.028 182.223 373.896C181.854 372.801 182.453 371.517 182.453 370.311C182.453 369.101 181.853 367.816 182.223 366.726C182.601 365.594 183.884 364.899 184.59 363.957C185.305 363.007 185.6 361.62 186.583 360.929C186.853 360.74 187.165 360.626 187.49 360.534C187.033 360.255 186.618 359.958 186.248 359.691L186.285 359.719L185.507 359.201ZM147.802 360.642C147.814 360.654 147.823 360.666 147.833 360.678C151.827 365.113 156.625 368.87 161.878 371.641C163.168 372.321 164.647 372.869 165.751 373.851C166.665 374.664 166.984 375.654 166.791 376.626C166.668 377.245 166.564 377.651 166.235 378.136C166.197 378.193 165.957 378.442 166.063 378.37C165.819 378.535 165.556 378.658 165.295 378.792C164.265 379.318 162.987 380.081 161.918 380.271C161.078 379.56 160.251 378.831 159.457 378.062C154.384 373.14 150.44 367.184 147.802 360.642ZM193.269 360.902C192.401 361.057 191.619 361.672 190.809 361.927C189.854 362.234 188.663 362.107 187.867 362.67C187.062 363.242 186.821 364.388 186.235 365.174C185.658 365.952 184.608 366.528 184.298 367.463C183.996 368.364 184.487 369.426 184.487 370.426C184.487 371.423 183.996 372.485 184.298 373.39C184.608 374.325 185.654 374.9 186.236 375.678C186.821 376.464 187.062 377.61 187.867 378.181C188.663 378.749 189.857 378.623 190.812 378.926C191.733 379.221 192.618 380.015 193.641 380.015C194.664 380.015 195.544 379.217 196.469 378.926C197.428 378.623 198.618 378.749 199.414 378.181C200.219 377.61 200.461 376.464 201.046 375.678C201.624 374.9 202.673 374.325 202.983 373.39C203.285 372.489 202.795 371.427 202.794 370.426C202.794 369.426 203.281 368.364 202.983 367.463C202.713 366.659 201.917 366.115 201.326 365.486L199.415 368.449L191.73 363.339L192.383 362.294C192.675 361.826 192.972 361.363 193.269 360.902ZM225.683 362.72L223.006 366.787C223.252 367.753 223.469 368.724 223.629 369.708L226.605 365.84C226.342 364.785 226.03 363.746 225.683 362.72ZM211.75 368.323C210.816 368.323 209.891 368.934 209.909 370.155C209.939 372.245 209.714 374.317 209.289 376.339L213.502 369.437C213.204 368.697 212.478 368.323 211.75 368.323ZM220.869 370.033L217.082 375.787C216.855 377.028 216.554 378.255 216.139 379.442L220.896 373.26C220.956 372.191 220.946 371.114 220.869 370.033ZM208.276 389.659C208.137 389.702 208 389.747 207.862 389.794L206.027 392.582L208.276 389.659Z" fill="#760200"/>
<path d="M185.99 314.418L192.405 318.687L185.012 330.16L179.312 326.367L184.224 318.746C185.271 317.12 185.86 315.677 185.99 314.418ZM194.153 319.851L199.877 323.66L199.637 328.792L204.178 326.522L209.333 329.952L201.939 341.425L196.785 337.994L200.061 332.947L195.435 335.312L195.744 330.073L192.484 335.132L187.337 331.707L192.878 323.109C193.534 322.091 193.959 321.005 194.153 319.851ZM210.91 331.002L223.285 339.237L220.782 343.121C220.335 342.167 219.842 341.424 219.302 340.893C218.83 340.423 218.094 339.858 217.093 339.2C216.958 339.11 216.82 339.018 216.679 338.924L215.548 338.172L214.516 339.774L219.11 342.831L217.485 345.352L212.892 342.295L211.838 343.929L212.969 344.681C213.196 344.832 213.41 344.975 213.611 345.108C213.806 345.238 213.996 345.365 214.18 345.487C214.541 345.72 214.874 345.918 215.179 346.082C215.484 346.246 215.795 346.382 216.112 346.491C216.432 346.595 216.773 346.673 217.134 346.726C217.495 346.778 217.916 346.811 218.395 346.825L215.891 350.709L204.265 342.972L209.197 335.318C210.39 333.468 210.961 332.029 210.91 331.002Z" fill="#760200"/>
<path d="M171.772 332.142L177.812 336.162L172.742 344.028C172.559 344.313 172.491 344.545 172.537 344.725C172.584 344.904 172.748 345.095 173.028 345.297C173.039 345.305 173.049 345.312 173.06 345.319C173.299 345.478 173.509 345.524 173.691 345.457C173.881 345.38 174.072 345.191 174.266 344.89L177.69 339.577C178.304 338.625 178.702 337.724 178.885 336.876L184.877 340.863L179.061 349.887C178.828 350.248 178.57 350.534 178.287 350.745C178.013 350.954 177.679 351.095 177.283 351.168C176.896 351.239 176.437 351.188 175.906 351.014C175.379 350.835 174.79 350.53 174.14 350.097L167.579 345.731C167.167 345.457 166.824 345.166 166.55 344.859C166.279 344.545 166.087 344.249 165.973 343.97C165.862 343.685 165.798 343.4 165.78 343.115C165.768 342.833 165.793 342.579 165.853 342.353C165.922 342.126 166.019 341.916 166.142 341.724L170.577 334.844C171.155 333.946 171.554 333.045 171.772 332.142ZM179.481 353.651L181.984 349.767C182.404 350.665 182.842 351.355 183.298 351.838C183.759 352.325 184.404 352.844 185.233 353.396L186.444 354.202C186.748 354.404 186.981 354.493 187.144 354.468C187.312 354.447 187.471 354.322 187.619 354.092C187.76 353.873 187.803 353.686 187.747 353.532C187.697 353.381 187.509 353.127 187.182 352.769L185.051 350.506C184.791 350.224 184.571 349.928 184.39 349.62C184.209 349.312 184.065 348.978 183.957 348.616C183.849 348.255 183.826 347.876 183.888 347.48C183.954 347.077 184.11 346.685 184.357 346.301L185.04 345.242C185.601 344.372 186.334 343.835 187.239 343.632C188.15 343.432 189.099 343.661 190.085 344.317L198.589 349.976L196.086 353.86C195.629 352.946 195.165 352.242 194.693 351.748C194.231 351.253 193.579 350.725 192.739 350.166L191.552 349.376C191.27 349.189 191.052 349.102 190.896 349.116C190.743 349.124 190.591 349.245 190.44 349.481C190.291 349.711 190.25 349.914 190.314 350.09C190.384 350.269 190.604 350.529 190.974 350.869L193.787 353.515C194.936 354.616 195.048 355.884 194.124 357.318L193.087 358.927C192.843 359.305 192.561 359.606 192.238 359.829C191.916 360.053 191.589 360.194 191.256 360.255C190.923 360.315 190.577 360.323 190.217 360.279C189.867 360.234 189.536 360.147 189.225 360.018C188.913 359.888 188.616 359.73 188.334 359.542L179.481 353.651ZM200.133 351.004L210.409 357.842C210.718 358.047 210.999 358.273 211.251 358.519C211.512 358.763 211.745 359.044 211.951 359.361C212.157 359.678 212.303 360.005 212.387 360.343C212.475 360.675 212.483 361.04 212.412 361.439C212.35 361.836 212.194 362.228 211.943 362.617L210.578 364.736C210.271 365.212 209.954 365.584 209.627 365.851C209.303 366.113 208.933 366.285 208.516 366.367C208.099 366.449 207.627 366.401 207.099 366.222C206.577 366.047 205.988 365.741 205.333 365.304L201.593 362.816L199.09 366.7L193.456 362.951L198.356 355.347C198.882 354.532 199.292 353.788 199.586 353.115C199.889 352.441 200.071 351.737 200.133 351.004ZM203.308 360.155L204.039 360.642C204.516 360.96 204.906 360.883 205.21 360.412L205.728 359.608C205.929 359.296 205.994 359.045 205.922 358.857C205.859 358.666 205.638 358.444 205.258 358.192L204.779 357.873L203.308 360.155Z" fill="#760200"/>
</g>
<defs>
<clipPath id="clip0_2440_60">
<rect width="142" height="145" fill="white" transform="translate(122 269)"/>
</clipPath>
</defs>
</svg>
