<svg width="387" height="412" viewBox="0 0 387 412" fill="none" xmlns="http://www.w3.org/2000/svg">
<path d="M3.05762 107.449V39.8493C3.05762 34.0074 3.68663 28.8807 4.94477 24.4695C6.22199 20.0582 7.9186 16.7199 10.0346 14.4547C12.1505 12.1894 14.5144 11.0568 17.126 11.0568H43.8903V53.3514C40.6305 48.5825 38.1428 45.5422 36.4271 44.2308C34.7115 42.8597 32.4334 42.1741 29.5931 42.1741H26.2475C25.18 42.1741 24.3984 43.0087 23.9028 44.6778C23.4072 46.2874 23.1594 48.7613 23.1594 52.0995V94.9306C23.1594 98.3285 23.3977 100.832 23.8742 102.442C24.3699 104.051 25.1609 104.856 26.2475 104.856H26.7908C29.1165 104.856 30.8131 104.796 31.8806 104.677C32.9482 104.558 34.1586 104.111 35.5121 103.336C36.8656 102.561 38.1046 101.488 39.2294 100.117C40.3731 98.7459 41.9268 96.6594 43.8903 93.8577V135.973H17.126C15.925 135.973 14.724 135.735 13.5231 135.258C12.3412 134.722 11.1021 133.798 9.80587 132.486C8.50959 131.115 7.37531 129.416 6.4031 127.389C5.43089 125.303 4.63025 122.561 4.00119 119.163C3.37211 115.705 3.05762 111.801 3.05762 107.449ZM49.7234 107.449V39.8493C49.7234 34.1862 50.3049 29.149 51.4678 24.7377C52.6496 20.3264 54.2413 16.9584 56.2429 14.6335C58.2446 12.249 60.4844 11.0568 62.9626 11.0568H82.5211C84.9993 11.0568 87.2392 12.249 89.2408 14.6335C91.2424 16.9584 92.8246 20.3264 93.9874 24.7377C95.1693 29.149 95.7602 34.1862 95.7602 39.8493V107.449C95.7602 111.443 95.4838 115.079 94.931 118.358C94.3972 121.637 93.6919 124.349 92.815 126.495C91.9382 128.641 90.9088 130.459 89.7269 131.95C88.564 133.38 87.3821 134.424 86.1812 135.079C84.9802 135.675 83.7602 135.973 82.5211 135.973H62.9626C61.5519 135.973 60.1222 135.497 58.6735 134.543C57.2437 133.529 55.8331 132.009 54.4415 129.982C53.0499 127.896 51.9157 124.915 51.0388 121.041C50.1619 117.166 49.7234 112.635 49.7234 107.449ZM69.8252 99.1333C69.8252 102.114 70.0445 104.26 70.4829 105.571C70.9213 106.823 71.6172 107.449 72.5703 107.449H72.9136C73.8668 107.449 74.5625 106.823 75.001 105.571C75.4585 104.26 75.6872 102.114 75.6872 99.1333V47.7181C75.6872 44.7375 75.468 42.6213 75.0296 41.3694C74.6102 40.1175 73.9049 39.4916 72.9136 39.4916H72.5703C71.579 39.4916 70.8737 40.1175 70.4543 41.3694C70.0349 42.6213 69.8252 44.7375 69.8252 47.7181V99.1333ZM100.736 11.0568H120.866L128.415 51.3842L135.992 11.0568H154.121V135.973H135.992L136.049 80.892L128.415 122.382L120.866 80.892V135.973H102.766V42.353C102.766 31.2652 102.089 20.8331 100.736 11.0568ZM159.783 11.0568H182.344V135.973H162.299V52.9937C162.299 35.289 161.46 21.31 159.783 11.0568ZM189.664 135.973V93.6788C192.123 98.3882 194.296 101.428 196.183 102.799C198.09 104.17 200.501 104.856 203.418 104.856H207.678C208.746 104.856 209.461 104.349 209.823 103.336C210.204 102.323 210.395 100.564 210.395 98.0603C210.395 95.6758 210.204 94.0365 209.823 93.1423C209.461 92.2481 208.593 91.2645 207.221 90.1915L198.385 83.7534C197.299 82.9189 196.288 81.7863 195.354 80.3555C194.42 78.9249 193.534 77.1067 192.695 74.9011C191.856 72.6954 191.198 69.9235 190.722 66.5852C190.245 63.1873 190.007 59.402 190.007 55.2292V43.6943C190.007 34.216 190.96 26.4068 192.866 20.2668C194.792 14.1268 197.489 11.0568 200.959 11.0568H230.868V53.3514C228.295 48.7017 226.036 45.6912 224.091 44.3202C222.166 42.8895 219.726 42.1741 216.771 42.1741H212.596C211.605 42.1741 210.929 42.6213 210.566 43.5154C210.204 44.35 210.023 46.0489 210.023 48.6123C210.023 51.116 210.242 52.8745 210.681 53.8879C211.138 54.9013 212.091 55.7657 213.54 56.481L224.663 62.3826C229.238 64.9459 231.526 74.0367 231.526 89.655V107.181C231.526 111.294 231.307 115.02 230.868 118.358C230.43 121.696 229.848 124.439 229.124 126.585C228.4 128.731 227.561 130.549 226.608 132.039C225.674 133.47 224.721 134.483 223.748 135.079C222.776 135.675 221.794 135.973 220.803 135.973L189.664 135.973ZM237.96 135.973V93.6788C240.419 98.3882 242.592 101.428 244.479 102.799C246.385 104.17 248.797 104.856 251.713 104.856H255.974C257.042 104.856 257.756 104.349 258.119 103.336C258.5 102.323 258.69 100.564 258.69 98.0603C258.69 95.6758 258.5 94.0365 258.119 93.1423C257.756 92.2481 256.889 91.2645 255.517 90.1915L246.681 83.7534C245.594 82.9189 244.584 81.7863 243.65 80.3555C242.716 78.9249 241.829 77.1067 240.991 74.9011C240.152 72.6954 239.494 69.9235 239.018 66.5852C238.541 63.1873 238.303 59.402 238.303 55.2292V43.6943C238.303 34.216 239.256 26.4068 241.162 20.2668C243.088 14.1268 245.785 11.0568 249.254 11.0568H279.164V53.3514C276.591 48.7017 274.331 45.6912 272.387 44.3202C270.462 42.8895 268.022 42.1741 265.067 42.1741H260.892C259.901 42.1741 259.224 42.6213 258.862 43.5154C258.5 44.35 258.319 46.0489 258.319 48.6123C258.319 51.116 258.538 52.8745 258.976 53.8879C259.434 54.9013 260.387 55.7657 261.836 56.481L272.959 62.3826C277.534 64.9459 279.822 74.0367 279.822 89.655V107.181C279.822 111.294 279.602 115.02 279.164 118.358C278.726 121.696 278.144 124.439 277.42 126.585C276.695 128.731 275.857 130.549 274.903 132.039C273.969 133.47 273.016 134.483 272.044 135.079C271.072 135.675 270.09 135.973 269.099 135.973L237.96 135.973ZM286.827 135.973V46.0191C286.827 34.3948 287.647 25.6617 289.286 19.8197C290.945 13.9777 293.566 11.0568 297.15 11.0568H319.396C327.936 11.0568 332.206 20.2966 332.206 38.7763V135.973H312.019V96.4508H307.043V135.973H286.827ZM306.986 69.3572H312.019V47.1816C312.019 43.5452 311.857 41.2799 311.533 40.3858C311.209 39.432 310.589 38.9551 309.674 38.9551C308.568 38.9551 307.844 39.4022 307.501 40.2964C307.158 41.1906 306.986 43.3664 306.986 46.8239V69.3572ZM338.926 107.449V39.8493C338.926 34.1862 339.508 29.149 340.67 24.7377C341.852 20.3264 343.444 16.9584 345.445 14.6335C347.447 12.249 349.687 11.0568 352.165 11.0568H371.724C374.202 11.0568 376.442 12.249 378.443 14.6335C380.445 16.9584 382.027 20.3264 383.19 24.7377C384.372 29.149 384.963 34.1862 384.963 39.8493V107.449C384.963 111.443 384.686 115.079 384.134 118.358C383.6 121.637 382.895 124.349 382.018 126.495C381.141 128.641 380.111 130.459 378.929 131.95C377.767 133.38 376.585 134.424 375.384 135.079C374.183 135.675 372.963 135.973 371.724 135.973H352.165C350.755 135.973 349.325 135.497 347.876 134.543C346.446 133.529 345.036 132.009 343.644 129.982C342.253 127.896 341.118 124.915 340.241 121.041C339.365 117.166 338.926 112.635 338.926 107.449ZM359.028 99.1333C359.028 102.114 359.247 104.26 359.685 105.571C360.124 106.823 360.82 107.449 361.773 107.449H362.116C363.069 107.449 363.765 106.823 364.204 105.571C364.661 104.26 364.89 102.114 364.89 99.1333V47.7181C364.89 44.7375 364.671 42.6213 364.232 41.3694C363.813 40.1175 363.108 39.4916 362.116 39.4916H361.773C360.782 39.4916 360.076 40.1175 359.657 41.3694C359.237 42.6213 359.028 44.7375 359.028 47.7181V99.1333Z" fill="#760200"/>
<path d="M0 151.051H27.5157C28.3403 151.051 29.136 151.277 29.9027 151.73C30.684 152.137 31.4652 152.861 32.2463 153.901C33.0276 154.942 33.7003 156.276 34.2645 157.905C34.8431 159.488 35.3133 161.569 35.675 164.148C36.0367 166.681 36.2175 169.554 36.2175 172.766V224.203C36.2175 227.913 35.9788 231.215 35.5014 234.11C35.024 236.961 34.3874 239.222 33.5918 240.896C32.8106 242.525 31.957 243.769 31.0311 244.629C30.1197 245.443 29.1722 245.85 28.1884 245.85H1.9096V183.013C1.9096 176.589 1.77948 170.775 1.51922 165.573C1.25896 160.37 0.752409 155.53 0 151.051ZM17.1648 224.882H18.4017C19.4433 224.882 20.1304 224.475 20.4632 223.66C20.8104 222.846 20.984 221.127 20.984 218.503V179.28C20.984 176.657 20.8104 174.937 20.4632 174.123C20.1304 173.309 19.4433 172.902 18.4017 172.902H17.1648V224.882ZM39.5376 151.051H72.5652V183.148C70.5833 179.348 68.7677 176.951 67.1185 175.955C65.6718 175.051 63.6175 174.621 60.9556 174.666C60.594 174.666 60.2251 174.666 59.8489 174.666H56.8326V187.899H69.0931V208.731H56.8326V222.235H59.8489C60.4565 222.235 61.028 222.235 61.5632 222.235C62.0841 222.235 62.5904 222.235 63.0823 222.235C64.0371 222.19 64.8979 222.054 65.6646 221.828C66.4313 221.602 67.1763 221.195 67.8996 220.607C68.623 219.973 69.3536 219.114 70.0914 218.028C70.8292 216.942 71.6538 215.517 72.5652 213.753V245.85H41.534V182.606C41.534 167.315 40.8685 156.797 39.5376 151.051ZM88.6233 151.051H116.53C117.354 151.051 118.15 151.255 118.917 151.662C119.698 152.024 120.472 152.68 121.239 153.63C122.005 154.58 122.671 155.801 123.235 157.294C123.799 158.742 124.255 160.642 124.602 162.994C124.949 165.302 125.123 167.948 125.123 170.934V189.256C125.123 198.394 123.43 204.434 120.045 207.374L126.49 245.85H110.237L105.658 213.346V245.85H90.5329V182.741C90.5329 167.993 89.8963 157.43 88.6233 151.051ZM105.701 192.174H107.654C108.204 192.174 108.653 191.721 109 190.816C109.347 189.866 109.521 188.441 109.521 186.541V178.602C109.521 175.978 109.347 174.259 109 173.445C108.667 172.63 107.98 172.223 106.938 172.223H105.701V192.174ZM128.877 151.051H161.905V183.148C159.923 179.348 158.107 176.951 156.458 175.955C155.011 175.051 152.957 174.621 150.295 174.666C149.933 174.666 149.564 174.666 149.188 174.666H146.172V187.899H158.433V208.731H146.172V222.235H149.188C149.796 222.235 150.367 222.235 150.903 222.235C151.423 222.235 151.93 222.235 152.422 222.235C153.376 222.19 154.237 222.054 155.004 221.828C155.771 221.602 156.516 221.195 157.239 220.607C157.962 219.973 158.693 219.114 159.431 218.028C160.169 216.942 160.993 215.517 161.905 213.753V245.85H130.873V182.606C130.873 167.315 130.208 156.797 128.877 151.051ZM166.331 224.203V172.902C166.331 168.468 166.809 164.578 167.764 161.23C168.733 157.882 170.021 155.349 171.626 153.63C173.232 151.911 175.026 151.051 177.008 151.051H197.319V183.148C194.845 179.529 192.957 177.222 191.655 176.227C190.353 175.186 188.625 174.666 186.469 174.666H183.93C183.12 174.666 182.527 175.299 182.151 176.566C181.775 177.788 181.587 179.665 181.587 182.198V214.703C181.587 217.281 181.768 219.182 182.129 220.403C182.505 221.624 183.106 222.235 183.93 222.235H184.343C186.108 222.235 187.395 222.19 188.205 222.099C189.015 222.009 189.934 221.67 190.961 221.082C191.988 220.493 192.928 219.679 193.782 218.639C194.65 217.598 195.829 216.015 197.319 213.888V245.85H177.008C176.097 245.85 175.185 245.669 174.274 245.307C173.377 244.9 172.436 244.199 171.453 243.204C170.469 242.163 169.608 240.874 168.87 239.336C168.132 237.752 167.525 235.671 167.048 233.093C166.57 230.469 166.331 227.505 166.331 224.203ZM200.639 151.051H233.667V183.148C231.685 179.348 229.869 176.951 228.22 175.955C226.773 175.051 224.719 174.621 222.057 174.666C221.696 174.666 221.327 174.666 220.951 174.666H217.934V187.899H230.195V208.731H217.934V222.235H220.951C221.558 222.235 222.13 222.235 222.665 222.235C223.186 222.235 223.692 222.235 224.184 222.235C225.139 222.19 226 222.054 226.766 221.828C227.533 221.602 228.278 221.195 229.001 220.607C229.725 219.973 230.455 219.114 231.193 218.028C231.931 216.942 232.756 215.517 233.667 213.753V245.85H202.636V182.606C202.636 167.315 201.97 156.797 200.639 151.051ZM237.074 151.051H264.503C265.327 151.051 266.123 151.277 266.89 151.73C267.671 152.137 268.445 152.861 269.212 153.901C269.978 154.942 270.644 156.276 271.208 157.905C271.772 159.488 272.228 161.569 272.575 164.148C272.937 166.681 273.118 169.554 273.118 172.766V190.274C273.118 194.209 272.973 197.58 272.684 200.385C272.394 203.144 271.91 205.564 271.23 207.645C270.55 209.726 269.61 211.265 268.409 212.26C267.223 213.255 265.754 213.753 264.004 213.753H254.022V245.85H238.983V183.013C238.983 176.272 238.853 170.391 238.593 165.369C238.347 160.303 237.841 155.53 237.074 151.051ZM254.022 191.766H255.975C257.248 191.766 257.884 189.821 257.884 185.931V179.28C257.884 176.702 257.703 175.005 257.342 174.191C256.995 173.332 256.315 172.902 255.302 172.902H254.022V191.766ZM276.438 224.203V172.902C276.438 168.468 276.915 164.578 277.87 161.23C278.839 157.882 280.127 155.349 281.733 153.63C283.339 151.911 285.132 151.051 287.114 151.051H307.426V183.148C304.952 179.529 303.064 177.222 301.762 176.227C300.46 175.186 298.731 174.666 296.576 174.666H294.037C293.227 174.666 292.633 175.299 292.257 176.566C291.881 177.788 291.693 179.665 291.693 182.198V214.703C291.693 217.281 291.874 219.182 292.236 220.403C292.612 221.624 293.212 222.235 294.037 222.235H294.449C296.214 222.235 297.501 222.19 298.312 222.099C299.122 222.009 300.04 221.67 301.068 221.082C302.095 220.493 303.035 219.679 303.889 218.639C304.757 217.598 305.936 216.015 307.426 213.888V245.85H287.114C286.203 245.85 285.291 245.669 284.38 245.307C283.483 244.9 282.543 244.199 281.559 243.204C280.575 242.163 279.715 240.874 278.977 239.336C278.239 237.752 277.631 235.671 277.154 233.093C276.677 230.469 276.438 227.505 276.438 224.203ZM312.525 245.85V177.584C312.525 168.762 313.147 162.135 314.391 157.701C315.65 153.268 317.639 151.051 320.359 151.051H337.242C343.723 151.051 346.963 158.063 346.963 172.087V245.85H331.643V215.856H327.867V245.85H312.525ZM327.824 195.295H331.643V178.466C331.643 175.707 331.52 173.987 331.274 173.309C331.028 172.585 330.558 172.223 329.864 172.223C329.024 172.223 328.475 172.562 328.214 173.241C327.954 173.919 327.824 175.571 327.824 178.195L327.824 195.295ZM352.063 224.203V172.902C352.063 168.604 352.504 164.781 353.386 161.434C354.283 158.086 355.491 155.53 357.01 153.766C358.53 151.956 360.229 151.051 362.11 151.051H376.953C378.833 151.051 380.533 151.956 382.052 153.766C383.571 155.53 384.772 158.086 385.655 161.434C386.552 164.781 387 168.604 387 172.902V224.203C387 227.234 386.79 229.994 386.371 232.482C385.966 234.97 385.43 237.028 384.765 238.657C384.099 240.286 383.318 241.665 382.421 242.796C381.539 243.882 380.642 244.674 379.73 245.171C378.819 245.624 377.893 245.85 376.953 245.85H362.11C361.039 245.85 359.954 245.488 358.855 244.764C357.77 243.995 356.699 242.842 355.643 241.303C354.587 239.72 353.726 237.458 353.061 234.518C352.396 231.577 352.063 228.139 352.063 224.203ZM367.318 217.892C367.318 220.154 367.484 221.783 367.817 222.778C368.15 223.728 368.678 224.203 369.401 224.203H369.661C370.385 224.203 370.913 223.728 371.246 222.778C371.593 221.783 371.766 220.154 371.766 217.892V178.873C371.766 176.611 371.6 175.005 371.267 174.055C370.949 173.105 370.414 172.63 369.661 172.63H369.401C368.649 172.63 368.114 173.105 367.795 174.055C367.477 175.005 367.318 176.611 367.318 178.873V217.892Z" fill="#760200"/>
<path d="M325.122 0H293.334V7.26575H325.122V0Z" fill="#760200"/>
<path d="M300.097 241.131C298.143 241.131 289.692 241.131 289.692 241.131C289.692 241.131 289.692 242.471 289.692 245.22L289.692 253H303.835C302.24 252.052 301.223 251.329 300.785 250.831C300.326 250.332 300.097 249.67 300.097 248.844L300.096 247.872L300.097 241.131Z" fill="#760200"/>
<path d="M341.355 142.066H317.787V147.453H341.355V142.066Z" fill="#760200"/>
<g clip-path="url(#clip0_2440_60)">
<path fill-rule="evenodd" clip-rule="evenodd" d="M183.682 269.903C148.428 269.903 119.796 298.932 119.796 334.675C119.796 370.36 148.334 399.348 183.509 399.444L186.532 394.496C185.588 394.542 184.639 394.574 183.682 394.574C151.026 394.574 124.604 367.785 124.604 334.675C124.604 301.566 151.026 274.778 183.682 274.778C207.894 274.778 228.664 289.508 237.79 310.617L240.803 305.687C230.303 284.48 208.66 269.903 183.682 269.903ZM183.748 277.012C182.273 277.011 180.798 277.07 179.326 277.188C167.655 278.126 156.549 282.696 147.51 290.231C138.682 297.591 132.164 307.721 129.038 318.864C126.654 327.366 126.256 336.444 127.832 345.144C127.832 345.351 127.864 345.565 127.945 345.784C128.508 348.705 129.293 351.58 130.305 354.373C134.272 365.322 141.45 374.827 150.798 381.618C160.351 388.558 171.987 392.249 183.724 392.275C185.153 392.273 186.579 392.204 188.001 392.093L190.523 387.966C189.17 388.139 187.81 388.268 186.442 388.341C189.039 385.681 191.187 382.631 192.812 379.309C191.306 379.977 189.668 379.837 188.577 380.181C188.246 380.285 187.885 380.47 187.501 380.679C185.73 383.449 183.539 385.936 180.975 387.943C180.827 388.059 180.71 388.2 180.589 388.337C178.911 388.243 177.242 388.099 175.641 387.845C175.186 387.772 174.742 387.66 174.29 387.576C175.813 386.201 177.296 384.782 178.686 383.268C179.328 382.569 180.004 381.847 180.617 381.089C179.934 380.726 179.322 380.352 178.786 380.18C178.143 379.977 177.306 379.899 176.421 379.768C176.416 379.767 176.409 379.765 176.404 379.764C175.929 380.294 175.463 380.832 174.972 381.347C173.29 383.107 171.51 384.767 169.65 386.331C169.605 386.369 169.573 386.417 169.534 386.459C167.005 385.742 164.54 384.841 162.151 383.762C164.329 382.416 166.376 380.847 168.223 379.063C169.228 378.093 170.153 377.047 171.056 375.978C171.184 375.827 171.296 375.666 171.423 375.513C171.236 375.151 171.05 374.821 170.851 374.554C170.469 374.044 169.842 373.51 169.201 372.895C169.064 372.764 168.926 372.625 168.79 372.483C167.655 374.015 166.242 375.423 164.886 376.676C162.765 378.636 160.376 380.237 157.833 381.575C156.325 380.721 154.844 379.817 153.424 378.817C154.072 378.514 154.716 378.194 155.363 377.863C157.103 376.976 158.189 375.499 158.695 373.594C159.179 371.772 159.131 369.907 158.24 368.222C157.345 366.526 155.749 365.331 154.109 364.446C151.022 362.778 147.98 361.192 145.137 359.104C139.687 355.103 135.063 349.942 131.579 344.114C131.536 344.044 131.487 343.99 131.441 343.928C130.726 339.797 130.527 335.565 130.78 331.356C132.574 335.147 134.678 338.783 137.153 342.172C140.007 346.082 143.296 349.69 146.682 353.13C150.832 357.346 155.487 361.022 160.752 363.699C163.014 364.849 165.408 365.804 167.592 367.115C167.704 366.499 167.808 365.915 167.808 365.422C167.808 364.758 167.628 363.961 167.482 363.097C167.444 362.872 167.409 362.641 167.382 362.404C166.172 361.806 164.978 361.277 164.018 360.814C158.541 358.17 153.786 354.607 149.51 350.262C147.575 348.295 145.718 346.244 143.887 344.178C142.466 342.575 141.289 341.093 140.147 339.487C136.707 334.647 133.958 329.322 131.891 323.742C131.869 323.679 131.824 323.632 131.796 323.572C132.267 321.278 132.864 319.014 133.626 316.81C134.56 319.825 135.687 322.779 137.029 325.635C143.664 339.755 155.195 351.368 169.124 358.027C169.15 358.001 169.177 357.973 169.203 357.948C169.845 357.333 170.472 356.799 170.849 356.29C171.141 355.9 171.408 355.364 171.69 354.796C168.749 353.455 165.909 351.877 163.207 350.083C149.688 341.105 139.74 326.81 136.156 310.828C137.285 308.531 138.565 306.326 139.992 304.224C140.726 311.37 143.093 318.347 147.025 324.334C147.626 325.248 148.781 325.643 149.761 325.062C150.655 324.532 151.078 323.199 150.479 322.287C146.017 315.493 143.693 307.467 143.727 299.312C144.888 297.96 146.12 296.674 147.407 295.445C146.99 299.71 147.318 304.035 148.301 308.222C149.925 315.141 153.326 321.467 157.641 327.055C158.04 326.387 158.415 325.715 158.753 325.032C158.871 324.706 159.261 323.188 159.404 322.621C153.022 313.577 149.381 302.818 152.068 291.678C152.085 291.604 152.088 291.536 152.099 291.464C153.439 290.452 154.811 289.481 156.246 288.6C156.48 288.456 156.718 288.324 156.953 288.185C153.976 296.672 154.673 306.472 158.706 314.471C160.573 318.174 163.175 321.516 165.988 324.53C168.24 326.942 170.957 328.91 173.646 330.785C177.986 333.809 182.475 336.616 186.934 339.452C190.684 341.839 194.573 344.07 198.168 346.697C198.336 346.819 198.501 346.942 198.667 347.067C198.726 347.111 198.784 347.157 198.843 347.203C199.098 347.407 199.352 347.614 199.6 347.828C200.117 348.272 200.615 348.741 201.09 349.23C201.638 349.795 202.199 350.451 202.729 351.097C202.848 351.181 202.968 351.263 203.087 351.347L203.096 351.353L203.106 351.362C204.045 352.05 204.701 353.066 204.979 354.17C205.744 355.327 206.496 356.56 207.077 357.78C207.36 358.375 207.616 358.989 207.848 359.614L210.236 355.706C209.142 353.5 207.776 351.425 206.255 349.474C204.403 347.097 202.376 345.066 199.94 343.302C196.283 340.654 192.345 338.387 188.542 335.966C184.093 333.132 179.61 330.333 175.287 327.302C174.51 326.758 173.739 326.203 172.98 325.632C172.787 325.487 172.596 325.341 172.405 325.195C172.326 325.134 171.995 324.872 172.238 325.065C171.934 324.823 171.632 324.58 171.334 324.331C170.258 323.433 169.23 322.478 168.292 321.431C167.568 320.624 166.873 319.811 166.205 318.984L166.045 318.878L166.081 318.82C164.225 316.503 162.599 314.06 161.333 311.226C159.116 306.259 158.434 300.449 159.136 295.062C159.393 293.083 159.894 291.07 160.574 289.173C160.656 288.942 160.743 288.712 160.831 288.482C160.858 288.413 161.063 287.908 160.996 288.065C160.927 288.23 161.127 287.768 161.162 287.688C161.236 287.524 161.312 287.36 161.389 287.197C161.657 286.63 161.946 286.072 162.254 285.526C162.269 285.501 162.274 285.478 162.286 285.453C164.503 284.462 166.779 283.632 169.102 282.96C164.135 288.907 162.209 295.982 162.327 304.156C162.364 306.768 166.364 306.767 166.327 304.156C166.207 295.838 169.585 287.736 175.539 282.014C175.743 281.818 175.864 281.627 175.936 281.441C177.624 281.188 179.326 281.037 181.036 280.947L181.038 280.948C178.567 283.262 176.623 285.841 175.105 288.653C175.546 288.523 175.991 288.445 176.417 288.381C177.301 288.249 178.135 288.171 178.778 287.964L178.78 287.964L178.782 287.963C179.473 287.746 180.27 287.196 181.215 286.755C182.725 284.727 184.476 282.891 186.453 281.344C186.6 281.229 186.715 281.089 186.836 280.954C187.184 280.974 187.532 280.966 187.88 280.992C189.644 281.126 191.397 281.388 193.142 281.707C191.618 283.083 190.132 284.504 188.74 286.02C188.319 286.479 187.89 286.963 187.466 287.446C187.861 287.662 188.234 287.856 188.573 287.964C189.217 288.168 190.052 288.245 190.938 288.377C191.25 288.424 191.572 288.486 191.895 288.562C192.085 288.358 192.263 288.143 192.456 287.941C194.138 286.181 195.918 284.522 197.778 282.957C197.827 282.915 197.861 282.864 197.903 282.818C200.43 283.531 202.901 284.431 205.299 285.512C203.113 286.861 201.059 288.435 199.205 290.224C198.2 291.194 197.275 292.24 196.372 293.309C196.362 293.319 196.355 293.332 196.346 293.342C196.4 293.426 196.453 293.515 196.509 293.59C196.891 294.1 197.517 294.634 198.159 295.249C198.472 295.548 198.792 295.873 199.079 296.242C200.13 294.929 201.355 293.709 202.543 292.612C204.668 290.648 207.063 289.042 209.614 287.702C209.616 287.701 209.618 287.699 209.618 287.697C211.139 288.557 212.628 289.469 214.054 290.476C213.452 290.725 212.845 291.023 212.063 291.422C210.324 292.31 209.237 293.788 208.732 295.692C208.248 297.515 208.296 299.379 209.186 301.064C210.082 302.76 211.678 303.956 213.317 304.841C216.404 306.508 219.446 308.095 222.29 310.183C226.001 312.907 229.318 316.179 232.164 319.824L236.369 312.941C236.077 312.206 235.779 311.474 235.456 310.751C230.783 300.272 222.886 291.332 213.204 285.359C204.371 279.91 194.075 277.017 183.748 277.012ZM183.676 287.989C182.469 287.99 181.128 289.156 179.324 289.724C178.406 290.018 177.487 290.087 176.683 290.207C175.878 290.327 175.214 290.497 174.763 290.815C174.305 291.14 173.944 291.692 173.581 292.397C173.219 293.103 172.871 293.937 172.301 294.702C171.734 295.464 171.031 296.035 170.452 296.589C169.874 297.143 169.442 297.658 169.27 298.177L169.27 298.179C169.106 298.665 169.142 299.306 169.274 300.086C169.406 300.865 169.627 301.752 169.627 302.722C169.627 303.69 169.406 304.574 169.274 305.353C169.143 306.133 169.106 306.774 169.27 307.265L169.27 307.266C169.443 307.786 169.873 308.302 170.45 308.856C170.838 309.227 171.271 309.631 171.694 310.07C172.017 309.549 172.33 309.026 172.637 308.501C172.071 307.973 171.528 307.428 171.297 306.73C170.899 305.539 171.546 304.14 171.546 302.827C171.546 301.509 170.9 300.11 171.297 298.924C171.705 297.692 173.088 296.934 173.848 295.909C174.619 294.874 174.937 293.364 175.996 292.612C177.045 291.869 178.611 292.037 179.869 291.633C181.087 291.249 182.246 290.198 183.593 290.198C184.94 290.198 186.104 291.244 187.317 291.633C188.575 292.032 190.146 291.864 191.195 292.612C192.254 293.364 192.573 294.874 193.343 295.909C194.109 296.934 195.486 297.692 195.899 298.924C196.291 300.11 195.65 301.509 195.65 302.827C195.65 304.145 196.296 305.544 195.898 306.73C195.491 307.962 194.109 308.72 193.348 309.745C192.577 310.78 192.259 312.29 191.2 313.042C190.97 313.205 190.714 313.322 190.444 313.415L192.111 314.521L192.093 314.884C192.283 314.814 192.456 314.733 192.601 314.63C193.059 314.305 193.422 313.753 193.784 313.048C194.147 312.342 194.494 311.508 195.064 310.743C195.631 309.98 196.335 309.409 196.914 308.855C197.493 308.301 197.923 307.787 198.095 307.267L198.096 307.265L198.097 307.264C198.26 306.777 198.224 306.138 198.092 305.358C197.96 304.579 197.739 303.692 197.739 302.722C197.739 301.753 197.958 300.866 198.089 300.086C198.22 299.307 198.256 298.667 198.094 298.179C197.918 297.657 197.487 297.142 196.909 296.589C196.331 296.035 195.627 295.464 195.058 294.704L195.057 294.703C194.487 293.938 194.139 293.103 193.777 292.397C193.414 291.692 193.052 291.14 192.594 290.814C192.143 290.494 191.478 290.322 190.672 290.202C189.867 290.082 188.947 290.015 188.028 289.724L188.026 289.724C186.233 289.15 184.885 287.99 183.676 287.989ZM217.728 293.336C224.403 299.027 229.606 306.277 232.873 314.408C232.838 314.368 232.811 314.327 232.776 314.288C228.501 309.547 223.365 305.531 217.742 302.569C216.361 301.841 214.778 301.256 213.596 300.207C212.618 299.337 212.276 298.278 212.483 297.24C212.615 296.578 212.725 296.144 213.077 295.625C213.118 295.564 213.376 295.298 213.263 295.375C213.524 295.199 213.805 295.068 214.085 294.925C215.196 294.358 216.578 293.529 217.728 293.336ZM181.66 293.47L180.23 293.864L181.728 299.456L183.158 299.062L181.66 293.47ZM186.305 293.471L184.78 299.055L186.208 299.456L187.733 293.872L186.305 293.471ZM249.17 294.731L208.333 361.556L177.567 411.902C178.439 411.93 179.312 411.943 180.185 411.94L252.847 301.704C251.739 299.318 250.512 296.991 249.17 294.731ZM176.188 297.199L175.14 298.262L179.181 302.359L180.229 301.297L176.188 297.199ZM191.151 297.201L187.11 301.298L188.157 302.361L192.199 298.263L191.151 297.201ZM199.61 302.036C199.58 302.275 199.557 302.507 199.557 302.721C199.557 303.385 199.738 304.182 199.884 305.046C199.981 305.617 200.062 306.231 200.013 306.866C201.235 307.472 202.44 308.004 203.409 308.472C208.886 311.115 213.642 314.68 217.917 319.024C219.853 320.992 221.709 323.042 223.54 325.108C224.692 326.407 225.669 327.639 226.611 328.91L228.844 325.257C226.34 322.056 223.585 319.041 220.745 316.157C216.595 311.94 211.941 308.263 206.676 305.587C204.335 304.397 201.852 303.42 199.61 302.036ZM179.204 303.089L177.497 304.819L178.763 305.66L180.251 304.152L179.204 303.089ZM188.179 303.091L187.132 304.153L191.173 308.251L192.221 307.189L188.179 303.091ZM181.153 305.994L180.863 307.054L182.164 307.917L182.58 306.394L181.153 305.994ZM185.633 305.994L184.202 306.388L185.142 309.895L185.184 309.923L187.011 311.135L185.633 305.994ZM166.8 309.992C166.439 309.994 166.102 310.086 165.79 310.269C165.655 310.375 165.521 310.481 165.385 310.587C165.191 310.771 165.052 310.988 164.972 311.239C164.847 311.481 164.789 311.741 164.8 312.021C164.79 312.3 164.847 312.56 164.971 312.802C165.052 313.053 165.191 313.27 165.385 313.454C165.502 313.572 165.618 313.691 165.735 313.809C165.985 314.06 166.279 314.234 166.618 314.33C166.796 314.356 166.973 314.378 167.15 314.403C167.511 314.401 167.847 314.309 168.159 314.126C168.293 314.02 168.429 313.915 168.564 313.809C168.759 313.625 168.897 313.407 168.977 313.156C169.103 312.915 169.16 312.655 169.15 312.376C169.16 312.096 169.103 311.836 168.977 311.594C168.897 311.343 168.759 311.125 168.564 310.941C168.448 310.823 168.331 310.705 168.214 310.587C167.964 310.335 167.671 310.161 167.331 310.065C167.154 310.039 166.977 310.017 166.8 309.992ZM197.446 310.869C197.082 311.212 196.747 311.542 196.516 311.853C196.129 312.371 195.8 313.114 195.397 313.899C195.336 314.016 195.269 314.135 195.203 314.254C198.336 315.643 201.355 317.302 204.219 319.204C211.162 323.815 217.131 329.846 221.807 336.771L224.119 332.989C217.28 323.468 208.034 315.742 197.446 310.869ZM257.159 313.289L181.13 411.954C182.165 411.99 183.2 412.005 184.236 411.999L259 321.506C258.534 318.735 257.919 315.992 257.159 313.289ZM244.938 316.29L241.354 321.728C241.933 324.393 242.343 327.123 242.559 329.909L246.767 324.448C246.331 321.665 245.713 318.944 244.938 316.29ZM192.636 316.687C192.423 316.772 192.208 316.812 191.994 316.871L191.933 318.1L193.555 317.285C193.246 317.09 192.948 316.877 192.636 316.687ZM239.622 324.357L236.484 329.117C236.756 331.921 236.82 334.74 236.669 337.552L240.502 332.579C240.401 329.82 240.105 327.073 239.622 324.357ZM153.751 328.107C151.172 328.107 151.176 332.163 153.751 332.163C154.013 332.163 154.23 332.096 154.439 332.021C154.852 331.376 155.266 330.748 155.681 330.12C155.674 329.111 155.032 328.107 153.751 328.107ZM233.998 332.889L231.51 336.664C232.323 338.176 233.096 339.711 233.795 341.281L236.541 337.719C235.756 336.075 234.903 334.467 233.998 332.889ZM214.079 337.208L213.404 338.252L212.345 339.893L212.086 340.292C212.396 340.801 212.907 341.182 213.677 341.182C216.103 341.182 216.213 337.635 214.079 337.208ZM247.495 337.658L241.99 344.321C238.507 366.178 223.385 384.043 203.262 391.197L197.77 397.845C225.331 391.54 246.172 367.164 247.495 337.658ZM228.884 340.647L226.327 344.526C226.982 345.862 227.597 347.218 228.158 348.597L230.964 344.955C230.777 344.522 230.608 344.099 230.397 343.651C229.92 342.635 229.411 341.636 228.884 340.647ZM210.321 343.026L207.993 346.628C209.442 348.673 210.766 350.796 211.885 353.008L214.305 349.048C213.123 346.949 211.76 344.958 210.321 343.026ZM168.553 345.011C167.772 345.83 166.748 346.179 165.775 346.196L167.078 347.216L168.553 345.011ZM239.006 347.933C239.006 347.934 239.006 347.933 239.006 347.933V347.933ZM239.006 347.933L231.047 357.567C231.121 357.877 231.21 358.184 231.279 358.495C229.975 361.159 228.453 363.715 226.728 366.132C226.692 365.083 226.623 364.053 226.53 363.035L223.572 366.616C223.657 367.747 223.708 368.881 223.702 370.02C222.29 371.662 220.769 373.197 219.177 374.651C219.414 373.484 219.603 372.363 219.734 371.261L215.659 376.193C215.567 376.665 215.473 377.136 215.359 377.609C215.336 377.7 215.353 377.758 215.341 377.84C215.076 378.039 214.826 378.258 214.558 378.451C214.005 378.85 213.429 379.206 212.862 379.578L206.325 387.49C212.474 384.776 218.164 380.99 223.019 376.286C230.895 368.657 236.514 358.687 239.006 347.934L239.006 347.933ZM222.984 349.598L220.388 353.537C220.864 354.674 221.308 355.824 221.684 356.998L224.506 353.337C224.074 352.075 223.561 350.831 222.984 349.598ZM174.98 353.422C174.915 353.458 174.822 353.475 174.765 353.516C174.307 353.841 173.945 354.393 173.583 355.098C173.515 355.23 173.441 355.381 173.372 355.521C173.252 355.766 173.124 356.022 172.99 356.277C172.793 356.653 172.576 357.036 172.303 357.402C172.037 357.76 171.737 358.07 171.438 358.362C171.264 358.531 171.088 358.7 170.915 358.859C170.76 359.002 170.597 359.152 170.453 359.29C169.874 359.844 169.444 360.358 169.272 360.877L169.271 360.88L169.27 360.881C169.107 361.367 169.143 362.007 169.275 362.786C169.312 363.006 169.358 363.253 169.403 363.489C169.442 363.701 169.477 363.923 169.511 364.144C169.575 364.553 169.627 364.976 169.627 365.423C169.627 365.906 169.573 366.369 169.501 366.809C169.43 367.248 169.341 367.665 169.275 368.054C169.263 368.13 169.255 368.198 169.244 368.271C169.246 368.274 169.249 368.277 169.252 368.278C169.153 368.949 169.124 369.526 169.269 369.965L169.27 369.967C169.371 370.273 169.58 370.579 169.836 370.889C169.835 370.89 169.835 370.894 169.834 370.894C169.962 371.047 170.119 371.207 170.274 371.365C170.338 371.429 170.381 371.49 170.449 371.555C171.026 372.109 171.73 372.68 172.299 373.44L172.3 373.441C172.87 374.206 173.218 375.04 173.581 375.746C173.943 376.452 174.304 377.004 174.763 377.329C175.213 377.65 175.879 377.822 176.684 377.942C177.061 377.998 177.465 378.044 177.879 378.105C178.343 378.174 178.82 378.264 179.299 378.413C179.309 378.416 179.319 378.415 179.328 378.418L179.33 378.418C181.124 378.992 182.472 380.154 183.682 380.154C184.889 380.154 186.231 378.985 188.036 378.417C188.413 378.298 188.785 378.222 189.153 378.151C190.017 377.982 190.827 377.886 191.495 377.739C191.599 377.716 191.713 377.695 191.809 377.668C192.113 377.583 192.386 377.479 192.599 377.328L192.601 377.328C193.059 377.002 193.421 376.45 193.784 375.745C194.143 375.046 194.488 374.221 195.048 373.463C195.053 373.455 195.055 373.447 195.063 373.439C195.629 372.677 196.334 372.105 196.913 371.552C197.491 370.998 197.922 370.483 198.094 369.964L198.095 369.962L198.095 369.961C198.259 369.474 198.223 368.835 198.091 368.056C197.959 367.276 197.738 366.39 197.738 365.42C197.738 364.451 197.958 363.564 198.089 362.784C198.119 362.603 198.122 362.456 198.141 362.29C197.288 362.054 196.526 361.707 195.818 361.313C195.84 361.366 195.884 361.41 195.903 361.466C196.293 362.631 195.655 364.004 195.655 365.298C195.655 366.592 196.298 367.965 195.903 369.13C195.498 370.34 194.124 371.083 193.368 372.09C192.603 373.106 192.287 374.589 191.235 375.328C190.193 376.062 188.637 375.898 187.382 376.289C186.172 376.666 185.022 377.697 183.683 377.697C182.345 377.697 181.189 376.671 179.983 376.289C178.734 375.898 177.173 376.062 176.131 375.328C175.079 374.589 174.763 373.106 173.997 372.09C173.237 371.083 171.869 370.34 171.464 369.13C171.069 367.96 171.71 366.587 171.71 365.298C171.71 364.004 171.068 362.631 171.464 361.466C171.869 360.256 173.242 359.512 173.997 358.506C174.763 357.49 175.079 356.007 176.131 355.269C176.42 355.067 176.754 354.945 177.102 354.847C176.613 354.548 176.168 354.231 175.772 353.946L175.812 353.976L174.98 353.422ZM134.619 354.962C134.631 354.975 134.642 354.988 134.652 355C138.927 359.741 144.063 363.757 149.686 366.719C151.067 367.447 152.65 368.032 153.832 369.082C154.81 369.951 155.152 371.01 154.945 372.048C154.813 372.71 154.702 373.145 154.351 373.663C154.31 373.724 154.053 373.99 154.166 373.913C153.905 374.089 153.623 374.221 153.344 374.363C152.242 374.926 150.873 375.742 149.729 375.945C148.83 375.184 147.944 374.406 147.095 373.583C141.664 368.322 137.443 361.955 134.619 354.962ZM183.287 355.24C182.358 355.406 181.522 356.063 180.654 356.336C179.632 356.663 178.358 356.528 177.505 357.13C176.644 357.741 176.385 358.967 175.759 359.807C175.14 360.639 174.017 361.254 173.685 362.253C173.362 363.217 173.888 364.352 173.888 365.421C173.888 366.487 173.362 367.622 173.685 368.589C174.017 369.589 175.137 370.204 175.76 371.036C176.386 371.876 176.644 373.101 177.505 373.711C178.358 374.318 179.635 374.183 180.658 374.507C181.644 374.822 182.591 375.671 183.686 375.671C184.781 375.671 185.723 374.818 186.713 374.507C187.74 374.183 189.013 374.318 189.866 373.711C190.727 373.101 190.986 371.876 191.612 371.036C192.231 370.204 193.354 369.589 193.686 368.589C194.009 367.626 193.484 366.491 193.484 365.421C193.484 364.352 194.005 363.217 193.686 362.254C193.397 361.394 192.545 360.813 191.912 360.14L189.867 363.307L181.64 357.845L182.34 356.728C182.652 356.228 182.969 355.733 183.287 355.24ZM217.985 357.183L215.119 361.531C215.382 362.563 215.615 363.602 215.786 364.653L218.971 360.519C218.69 359.39 218.355 358.28 217.985 357.183ZM203.071 363.173C202.071 363.173 201.08 363.825 201.099 365.131C201.131 367.366 200.891 369.58 200.436 371.742L204.945 364.364C204.627 363.573 203.849 363.173 203.071 363.173ZM212.831 365.001L208.777 371.151C208.535 372.479 208.213 373.79 207.768 375.059L212.86 368.45C212.924 367.307 212.914 366.156 212.831 365.001ZM199.352 385.98C199.203 386.026 199.056 386.075 198.909 386.124L196.944 389.105L199.352 385.98Z" fill="#760200"/>
<path d="M173.37 305.487L180.215 310.078L172.176 322.182L166.094 318.103L171.434 310.062C172.574 308.347 173.219 306.822 173.37 305.487ZM182.08 311.329L188.188 315.425L187.883 320.869L192.778 318.503L198.278 322.192L190.24 334.296L184.739 330.607L188.301 325.281L183.315 327.748L183.694 322.192L180.149 327.529L174.658 323.846L180.682 314.774C181.396 313.7 181.862 312.551 182.08 311.329ZM199.961 323.321L213.166 332.177L210.444 336.275C209.974 335.258 209.452 334.465 208.877 333.896C208.375 333.393 207.59 332.787 206.522 332.079C206.377 331.982 206.23 331.883 206.08 331.782L204.874 330.973L203.751 332.663L208.653 335.95L206.887 338.61L201.985 335.323L200.84 337.047L202.046 337.856C202.289 338.019 202.517 338.172 202.731 338.316C202.939 338.455 203.142 338.591 203.339 338.723C203.724 338.973 204.08 339.187 204.405 339.363C204.731 339.54 205.064 339.688 205.403 339.807C205.746 339.92 206.111 340.006 206.498 340.065C206.885 340.124 207.335 340.163 207.849 340.183L205.127 344.281L192.721 335.96L198.084 327.885C199.38 325.933 200.006 324.411 199.961 323.321Z" fill="#670100"/>
<path d="M158.143 324.433L164.592 328.752L159.084 337.055C158.885 337.355 158.809 337.601 158.858 337.792C158.907 337.983 159.08 338.188 159.379 338.404C159.391 338.412 159.403 338.42 159.414 338.428C159.669 338.598 159.894 338.649 160.09 338.58C160.294 338.5 160.501 338.301 160.712 337.983L164.432 332.375C165.099 331.37 165.534 330.418 165.738 329.519L172.134 333.804L165.815 343.328C165.562 343.71 165.283 344.011 164.978 344.232C164.682 344.451 164.322 344.598 163.896 344.672C163.481 344.744 162.989 344.686 162.42 344.497C161.856 344.302 161.226 343.972 160.532 343.507L153.528 338.816C153.088 338.522 152.722 338.21 152.431 337.881C152.143 337.547 151.939 337.231 151.819 336.933C151.702 336.63 151.636 336.327 151.62 336.024C151.609 335.725 151.637 335.456 151.704 335.217C151.78 334.976 151.886 334.754 152.02 334.552L156.838 327.289C157.466 326.341 157.902 325.39 158.143 324.433ZM166.234 347.327L168.954 343.227C169.397 344.184 169.861 344.92 170.346 345.437C170.837 345.957 171.524 346.514 172.41 347.107L173.703 347.973C174.027 348.19 174.277 348.286 174.452 348.261C174.633 348.241 174.803 348.109 174.964 347.866C175.118 347.635 175.165 347.437 175.107 347.273C175.055 347.113 174.855 346.841 174.507 346.458L172.239 344.038C171.963 343.736 171.729 343.421 171.538 343.093C171.346 342.764 171.194 342.408 171.081 342.023C170.968 341.639 170.947 341.237 171.017 340.816C171.091 340.39 171.262 339.975 171.53 339.57L172.272 338.452C172.881 337.534 173.673 336.97 174.646 336.763C175.625 336.559 176.641 336.81 177.695 337.515L186.773 343.596L184.054 347.695C183.571 346.721 183.079 345.97 182.577 345.442C182.085 344.912 181.39 344.346 180.493 343.746L179.226 342.897C178.925 342.696 178.691 342.601 178.524 342.614C178.36 342.622 178.196 342.749 178.031 342.998C177.87 343.241 177.824 343.456 177.892 343.643C177.965 343.834 178.199 344.112 178.593 344.476L181.589 347.309C182.813 348.487 182.923 349.834 181.919 351.347L180.792 353.046C180.527 353.445 180.221 353.761 179.874 353.996C179.526 354.23 179.173 354.378 178.815 354.438C178.457 354.499 178.086 354.505 177.701 354.456C177.325 354.404 176.971 354.309 176.637 354.169C176.304 354.029 175.987 353.858 175.686 353.657L166.234 347.327ZM188.422 344.7L199.393 352.048C199.722 352.268 200.022 352.51 200.29 352.774C200.568 353.035 200.816 353.335 201.035 353.673C201.253 354.011 201.406 354.36 201.494 354.719C201.585 355.072 201.591 355.46 201.512 355.883C201.442 356.303 201.271 356.718 200.998 357.129L199.515 359.365C199.182 359.867 198.838 360.259 198.485 360.54C198.135 360.815 197.736 360.994 197.288 361.078C196.84 361.161 196.333 361.106 195.769 360.911C195.21 360.721 194.581 360.391 193.881 359.922L189.888 357.248L187.169 361.347L181.154 357.319L186.478 349.294C187.049 348.433 187.495 347.647 187.816 346.936C188.147 346.223 188.349 345.477 188.422 344.7ZM191.751 354.44L192.532 354.963C193.041 355.304 193.461 355.226 193.79 354.729L194.354 353.88C194.572 353.551 194.644 353.286 194.568 353.085C194.502 352.882 194.266 352.645 193.861 352.374L193.349 352.031L191.751 354.44Z" fill="#670100"/>
</g>
<defs>
<clipPath id="clip0_2440_60">
<rect width="152" height="155" fill="white" transform="translate(107 257)"/>
</clipPath>
</defs>
</svg>
